<?xml version="1.0" encoding="UTF-8" standalone="no"?>
<svg
   xmlns:dc="http://purl.org/dc/elements/1.1/"
   xmlns:cc="http://creativecommons.org/ns#"
   xmlns:rdf="http://www.w3.org/1999/02/22-rdf-syntax-ns#"
   xmlns:svg="http://www.w3.org/2000/svg"
   xmlns="http://www.w3.org/2000/svg"
   xmlns:sodipodi="http://sodipodi.sourceforge.net/DTD/sodipodi-0.dtd"
   xmlns:inkscape="http://www.inkscape.org/namespaces/inkscape"
   version="1.1"
   x="0px"
   y="0px"
   viewBox="0 0 100 125"
   enable-background="new 0 0 100 100"
   xml:space="preserve"
   id="svg16"
   sodipodi:docname="noun_Bow Tie_75639.svg"
   inkscape:version="0.92.2 5c3e80d, 2017-08-06"><metadata
     id="metadata22"><rdf:RDF><cc:Work
         rdf:about=""><dc:format>image/svg+xml</dc:format><dc:type
           rdf:resource="http://purl.org/dc/dcmitype/StillImage" /></cc:Work></rdf:RDF></metadata><defs
     id="defs20" /><sodipodi:namedview
     pagecolor="#ffffff"
     bordercolor="#666666"
     borderopacity="1"
     objecttolerance="10"
     gridtolerance="10"
     guidetolerance="10"
     inkscape:pageopacity="0"
     inkscape:pageshadow="2"
     inkscape:window-width="1146"
     inkscape:window-height="761"
     id="namedview18"
     showgrid="false"
     inkscape:zoom="1.888"
     inkscape:cx="-56.461864"
     inkscape:cy="62.5"
     inkscape:window-x="116"
     inkscape:window-y="0"
     inkscape:window-maximized="0"
     inkscape:current-layer="svg16" /><g
     id="g10"><g
       id="g8"><path
         d="M43.977,43.657v12.684c0,0,2.46,0.966,6.168,0.966c3.703,0,5.882-0.966,5.882-0.966V43.657c0,0-2.18-0.964-5.882-0.964    C46.438,42.693,43.977,43.657,43.977,43.657"
         id="path2"
         style="fill:#ffffff" /><path
         d="M88.352,28.64c0,0-8.006,0.113-18.625,5.614c-6.694,3.47-8.35,7.53-13.533,9.722c0.164,0.325,0.432,0.902,0.682,1.663    c0.236,0.745,0.391,1.653,0.498,2.61c0.027,0,0.064-0.01,0.1-0.01c1.643,0.055,3.397,0.287,5.155,0.408    c7.011,0.443,14.026,1.183,14.026,1.183v0.342c0,0-7.016,0.743-14.026,1.18c-1.758,0.119-3.515,0.358-5.155,0.408    c-0.039,0-0.072-0.009-0.105-0.009c-0.104,0.956-0.26,1.865-0.496,2.608c-0.245,0.765-0.512,1.33-0.678,1.67    c5.186,2.179,6.84,6.236,13.535,9.721c10.617,5.498,18.625,5.609,18.625,5.609S95,68.583,95,49.771    C95,30.956,88.352,28.64,88.352,28.64"
         id="path4"
         style="fill:#ffffff" /><path
         d="M37.375,48.647c1.754-0.118,3.511-0.352,5.154-0.408c0.036,0,0.067,0.01,0.1,0.01c0.115-0.959,0.268-1.867,0.502-2.611    c0.252-0.76,0.514-1.329,0.679-1.661c-5.181-2.185-6.838-6.241-13.532-9.721c-10.616-5.505-18.63-5.616-18.63-5.616    S5,30.958,5,49.772c0,18.811,6.648,21.587,6.648,21.587s8.014-0.111,18.63-5.609c6.694-3.482,8.351-7.542,13.532-9.727    c-0.165-0.334-0.436-0.901-0.687-1.664c-0.233-0.741-0.379-1.652-0.494-2.61c-0.032,0-0.063,0.01-0.1,0.01    c-1.643-0.051-3.4-0.288-5.154-0.407c-7.015-0.437-14.028-1.178-14.028-1.178v-0.345C23.347,49.829,30.36,49.09,37.375,48.647"
         id="path6"
         style="fill:#ffffff" /></g></g></svg>