<svg height="512pt" viewBox="-26 0 512 512.00002" width="512pt" xmlns="http://www.w3.org/2000/svg"><path d="m210.625 56.785156-96.921875-18.910156c-4.207031-.824219-8.460937 1.117188-10.609375 4.820312-1.449219 2.5-35.675781 62.140626-50.558594 138.421876-3.433594 17.601562-4.945312 35.074218-4.59375 51.6875.164063 13.011718 1.730469 26.109374 4.65625 38.785156.832032 3.59375 1.800782 7.160156 2.902344 10.679687 8.269531 26.402344 22.472656 44.441407 40.550781 51.894531l-20.933593 112.824219-45.082032-8.796875c-11.417968-2.226562-23.195312 4.125-27.539062 14.925782-.734375 1.832031-1.179688 3.726562-1.554688 5.65625-.359375 1.828124-.753906 3.648437-.8828122 5.511718-.4101558 5.902344 1.3828122 11.8125 4.9492182 16.527344 3.636719 4.808594 8.984376 8.128906 14.898438 9.285156l109.96875 21.457032c9.535156 1.859374 19.644531-2.378907 25.113281-10.390626 1.429688-2.097656 2.523438-4.421874 3.210938-6.867187.84375-2.992187 1.527343-6.234375 1.679687-9.339844.28125-5.710937-1.527344-11.449219-4.96875-16.007812-3.621094-4.792969-9.011718-8.144531-14.910156-9.296875l-45.175781-8.816406 20.941406-112.855469c18.460937-.167969 37.261719-10.378907 54.097656-29.535157 1.378907-1.5625 2.695313-3.167968 3.996094-4.796874 12.359375-15.417969 22.703125-34.839844 30.296875-56.621094 3.917969-11.257813 7.019531-22.8125 9.300781-34.511719 14.886719-76.277344 5.589844-144.410156 5.1875-147.273437-.597656-4.238282-3.816406-7.636719-8.019531-8.457032zm-71.574219 424.492188c.765625 1.136718.816407 2.507812.625 3.824218-.175781 1.210938-.394531 2.5625-.839843 3.707032-.8125 2.109375-2.828126 3.484375-5.117188 3.039062l-109.964844-21.457031c-1.324218-.257813-2.484375-1.125-3.125-2.308594-.875-1.609375-.398437-3.28125-.078125-4.96875.289063-1.515625.507813-3.011719 1.710938-4.101562 1.050781-.953125 2.53125-1.382813 3.925781-1.109375l109.96875 21.457031c1.601562.3125 2.5 1.335937 2.894531 1.917969zm-21.96875-422.285156 82.480469 16.09375c1.910156 19.09375 5.746094 74.347656-5.808594 133.585937-.921875 4.722656-1.992187 9.367187-3.167968 13.933594h-122.5625c.328124-12.203125 1.726562-24.863281 4.21875-37.644531 11.539062-59.121094 35.894531-108.976563 44.839843-125.96875zm58.734375 203.980468c-5.113281 10.425782-11.238281 20.421875-18.632812 29.394532-10.78125 13.09375-22.15625 21.375-33.109375 24.320312-5.519531 1.464844-11.320313 1.648438-16.84375.117188-9.3125-2.59375-17.445313-9.796876-23.859375-20.496094-7.414063-12.453125-11.347656-26.882813-13.472656-41.125-.621094-4.144532-1.074219-8.320313-1.390626-12.5h115.886719c-2.492187 6.910156-5.332031 13.699218-8.578125 20.289062zm0 0"/><path d="m176.144531 174.269531c.3125.027344.621094.042969.925781.042969 5.132813 0 9.511719-3.917969 9.988282-9.128906 1.882812-20.648438 2.410156-41.988282 1.5625-63.425782-.222656-5.542968-4.84375-9.859374-10.429688-9.636718-5.542968.21875-9.855468 4.886718-9.636718 10.429687.816406 20.566407.3125 41.023438-1.496094 60.808594-.503906 5.523437 3.566406 10.40625 9.085937 10.910156zm0 0"/><path d="m459.542969 461.222656c-.714844-3.675781-1.503907-7.394531-3.285157-10.726562-1.523437-2.855469-3.703124-5.375-6.234374-7.386719-5.617188-4.46875-12.996094-6.292969-20.050782-4.914063l-45.132812 8.804688-22.023438-112.875c38.703125-16.085938 57.648438-80.195312 43.441406-153.007812-14.882812-76.28125-49.113281-135.921876-50.558593-138.421876-2.148438-3.703124-6.410157-5.640624-10.609375-4.820312l-96.925782 18.910156c-4.199218.820313-7.421874 4.21875-8.019531 8.457032-.402343 2.863281-9.695312 70.996093 5.1875 147.273437 14.207031 72.8125 55.867188 125.097656 97.777344 125.457031l22.023437 112.875-45.128906 8.804688c-9.398437 1.832031-17.113281 9.359375-19.285156 18.667968-1.285156 5.527344-.433594 11.445313 1.316406 16.777344 1.703125 5.191406 5.175782 9.75 9.722656 12.773438 5.355469 3.5625 12.054688 4.914062 18.371094 3.683594l109.96875-21.457032c13.160156-2.570312 22.019532-15.695312 19.445313-28.875zm-200.308594-386.136718 82.476563-16.09375c8.949218 17 33.304687 66.851562 44.839843 125.96875.511719 2.621093.96875 5.234374 1.386719 7.839843h-125.652344c-8.101562-52.929687-4.78125-100.320312-3.050781-117.714843zm179.910156 393.386718c-.390625.582032-1.285156 1.601563-2.890625 1.914063l-109.964844 21.460937c-1.386718.269532-2.878906-.15625-3.921874-1.105468-1.191407-1.074219-1.433594-2.621094-1.71875-4.117188-.296876-1.53125-.726563-3.152344-.066407-4.652344.585938-1.332031 1.839844-2.335937 3.269531-2.613281l109.964844-21.460937c2.257813-.441407 4.300782.972656 5.117188 3.039062.839844 2.117188 1.578125 5.503906.210937 7.535156zm-97.542969-150.625c-8.660156-.519531-16.761718-4.484375-23.65625-9.554687-6.894531-5.070313-12.84375-11.351563-18.105468-18.078125-3.1875-4.078125-6.117188-8.355469-8.832032-12.761719-5.160156-8.367187-9.886718-17.785156-13.996093-28.007813-4.769531-11.828124-8.425781-24.101562-11.105469-36.566406h124.34375c1.28125 18.269532.476562 36.957032-3.765625 54.824219-1.210937 5.097656-2.722656 10.128906-4.59375 15.023437-7.046875 18.421876-17.625 30.367188-29.992187 33.984376-3.335938.964843-6.824219 1.339843-10.296876 1.136718zm0 0"/><path d="m237.941406 10.039062c0-5.542968-4.496094-10.039062-10.039062-10.039062-5.546875 0-10.039063 4.496094-10.039063 10.039062v32.621094c0 5.542969 4.492188 10.039063 10.039063 10.039063 5.542968 0 10.039062-4.496094 10.039062-10.039063zm0 0"/><path d="m187.1875 37.992188c1.890625 3.113281 5.199219 4.832031 8.59375 4.832031 1.773438 0 3.574219-.472657 5.199219-1.460938 4.738281-2.878906 6.25-9.054687 3.371093-13.792969l-12.375-20.375c-2.878906-4.734374-9.050781-6.246093-13.792968-3.367187-4.738282 2.878906-6.246094 9.054687-3.367188 13.792969zm0 0"/><path d="m256.816406 41.363281c1.625.988281 3.425782 1.460938 5.199219 1.460938 3.394531 0 6.703125-1.71875 8.59375-4.832031l12.371094-20.371094c2.878906-4.738282 1.371093-10.914063-3.367188-13.792969-4.742187-2.878906-10.914062-1.371094-13.792969 3.367187l-12.371093 20.375c-2.882813 4.738282-1.371094 10.914063 3.367187 13.792969zm0 0"/><path d="m334.726562 125.015625c3.820313 10.46875 7.273438 21.078125 10.296876 31.804687 1.195312 4.242188 1.851562 8.707032 5.941406 11.167969 3.597656 2.160157 8.304687 1.820313 11.546875-.847656 3.042969-2.5 4.285156-6.558594 3.324219-10.351563-1.316407-5.207031-2.878907-10.367187-4.460938-15.503906-1.632812-5.316406-3.367188-10.605468-5.191406-15.859375-.902344-2.601562-1.71875-5.285156-2.804688-7.816406-.738281-1.730469-1.96875-3.230469-3.515625-4.296875-3.535156-2.4375-8.363281-2.332031-11.789062.265625-3.460938 2.636719-4.84375 7.351563-3.347657 11.4375zm0 0"/><path d="m181.492188 204.039062c0 5.566407-4.515626 10.082032-10.082032 10.082032-5.570312 0-10.082031-4.515625-10.082031-10.082032 0-5.570312 4.511719-10.082031 10.082031-10.082031 5.566406 0 10.082032 4.511719 10.082032 10.082031zm0 0"/><path d="m339.113281 84.566406c0 5.566406-4.515625 10.082032-10.082031 10.082032s-10.082031-4.515626-10.082031-10.082032c0-5.570312 4.515625-10.082031 10.082031-10.082031s10.082031 4.511719 10.082031 10.082031zm0 0"/></svg>