<svg
   xmlns:dc="http://purl.org/dc/elements/1.1/"
   xmlns:cc="http://creativecommons.org/ns#"
   xmlns:rdf="http://www.w3.org/1999/02/22-rdf-syntax-ns#"
   xmlns:svg="http://www.w3.org/2000/svg"
   xmlns="http://www.w3.org/2000/svg"
   xmlns:sodipodi="http://sodipodi.sourceforge.net/DTD/sodipodi-0.dtd"
   xmlns:inkscape="http://www.inkscape.org/namespaces/inkscape"
   width="100%"
   viewBox="0 0 210 297"
   version="1.1"
   id="svg8"
   inkscape:version="0.92.2 5c3e80d, 2017-08-06"
   sodipodi:docname="steam_map.svg">
  <defs
     id="defs2" />
  <sodipodi:namedview
     id="base"
     pagecolor="#ffffff"
     bordercolor="#666666"
     borderopacity="1.0"
     inkscape:pageopacity="0.0"
     inkscape:pageshadow="2"
     inkscape:zoom="0.5"
     inkscape:cx="493.99126"
     inkscape:cy="586.15002"
     inkscape:document-units="mm"
     inkscape:current-layer="layer1"
     showgrid="false"
     inkscape:window-width="1283"
     inkscape:window-height="862"
     inkscape:window-x="31"
     inkscape:window-y="0"
     inkscape:window-maximized="0" />
  <metadata
     id="metadata5">
    <rdf:RDF>
      <cc:Work
         rdf:about="">
        <dc:format>image/svg+xml</dc:format>
        <dc:type
           rdf:resource="http://purl.org/dc/dcmitype/StillImage" />
        <dc:title />
      </cc:Work>
    </rdf:RDF>
  </metadata>
  <g
     inkscape:label="Layer 1"
     inkscape:groupmode="layer"
     id="layer1">
    <path
       style="fill:none;stroke:#000000;stroke-width:1.3833077;stroke-linecap:butt;stroke-linejoin:round;stroke-miterlimit:4;stroke-dasharray:none;stroke-opacity:1"
       d="M 106.22029,107.51883 96.133344,26.517486 136.93971,21.626846"
       id="path860"
       inkscape:connector-curvature="0" />
    <path
       style="fill:none;stroke:#000000;stroke-width:1.3833077;stroke-linecap:butt;stroke-linejoin:miter;stroke-miterlimit:4;stroke-dasharray:none;stroke-opacity:1"
       d="M 149.55204,6.6168507 7.5491696,23.367551"
       id="path862"
       inkscape:connector-curvature="0"
       sodipodi:nodetypes="cc" />
    <path
       style="fill:none;stroke:#000000;stroke-width:1.3833077;stroke-linecap:butt;stroke-linejoin:round;stroke-miterlimit:4;stroke-dasharray:none;stroke-opacity:1"
       d="M 7.9289837,37.32064 81.416044,28.675114 91.574535,108.64627"
       id="path864"
       inkscape:connector-curvature="0" />
    <text
       xml:space="preserve"
       style="font-style:normal;font-variant:normal;font-weight:normal;font-stretch:normal;font-size:7.10683441px;line-height:1.25;font-family:'Proxima Nova';-inkscape-font-specification:'Proxima Nova';text-align:center;letter-spacing:0px;word-spacing:0px;text-anchor:middle;fill:#000000;fill-opacity:1;stroke:none;stroke-width:0.03701477"
       x="69.331184"
       y="-82.279556"
       id="text870"
       transform="rotate(84.773526)"><tspan
         sodipodi:role="line"
         id="tspan868"
         x="69.331184"
         y="-82.279556"
         style="stroke-width:0.03701477">Lucas St</tspan></text>
    <text
       xml:space="preserve"
       style="font-style:normal;font-variant:normal;font-weight:normal;font-stretch:normal;font-size:6.77102375px;line-height:1.25;font-family:'Proxima Nova';-inkscape-font-specification:'Proxima Nova';text-align:center;letter-spacing:0px;word-spacing:0px;text-anchor:middle;fill:#000000;fill-opacity:1;stroke:none;stroke-width:0.03526575"
       x="46.117329"
       y="34.257095"
       id="text882"
       transform="rotate(-5.8098661)"><tspan
         sodipodi:role="line"
         id="tspan880"
         x="46.117329"
         y="34.257095"
         style="stroke-width:0.03526575">W Town St</tspan></text>
    <path
       style="fill:none;stroke:#000000;stroke-width:1.3833077;stroke-linecap:butt;stroke-linejoin:miter;stroke-miterlimit:4;stroke-dasharray:none;stroke-opacity:1"
       d="m 91.574535,108.64627 2.970297,22.68234 -70.569158,8.53745"
       id="path911"
       inkscape:connector-curvature="0" />
    <path
       style="fill:none;stroke:#000000;stroke-width:1.3833077;stroke-linecap:butt;stroke-linejoin:miter;stroke-miterlimit:4;stroke-dasharray:none;stroke-opacity:1"
       d="M 106.22029,107.46533 122.10247,220.1755"
       id="path913"
       inkscape:connector-curvature="0" />
    <path
       style="fill:none;stroke:#000000;stroke-width:1.3833077;stroke-linecap:butt;stroke-linejoin:miter;stroke-miterlimit:4;stroke-dasharray:none;stroke-opacity:1"
       d="M 107.443,224.55066 96.133344,147.52289 24.301907,155.77586"
       id="path935"
       inkscape:connector-curvature="0" />
    <text
       xml:space="preserve"
       style="font-style:normal;font-variant:normal;font-weight:normal;font-stretch:normal;font-size:6.56015062px;line-height:1.25;font-family:'Proxima Nova';-inkscape-font-specification:'Proxima Nova';text-align:center;letter-spacing:0px;word-spacing:0px;text-anchor:middle;fill:#000000;fill-opacity:1;stroke:none;stroke-width:0.03416745"
       x="44.33707"
       y="152.89485"
       id="text939"
       transform="rotate(-5.8276821)"><tspan
         sodipodi:role="line"
         id="tspan937"
         x="44.33707"
         y="152.89485"
         style="stroke-width:0.03416745">W Walnut St</tspan></text>
    <path
       style="fill:none;stroke:#000000;stroke-width:1.3833077;stroke-linecap:butt;stroke-linejoin:miter;stroke-miterlimit:4;stroke-dasharray:none;stroke-opacity:1"
       d="m 149.98613,25.681276 -47.12815,5.520532 25.37025,185.844682"
       id="path1014"
       inkscape:connector-curvature="0"
       sodipodi:nodetypes="ccc" />
    <path
       style="fill:none;stroke:#000000;stroke-width:1.3833077;stroke-linecap:butt;stroke-linejoin:round;stroke-miterlimit:4;stroke-dasharray:none;stroke-opacity:1"
       d="m 107.443,224.55066 3.2041,20.03445"
       id="path1016"
       inkscape:connector-curvature="0" />
    <path
       style="fill:none;stroke:#000000;stroke-width:1.3833077;stroke-linecap:butt;stroke-linejoin:miter;stroke-miterlimit:4;stroke-dasharray:none;stroke-opacity:1"
       d="m 136.93971,21.626846 12.77441,-1.501364 v 0"
       id="path1028"
       inkscape:connector-curvature="0" />
    <path
       style="fill:none;stroke:#000000;stroke-width:1.3833077;stroke-linecap:butt;stroke-linejoin:miter;stroke-miterlimit:4;stroke-dasharray:none;stroke-opacity:1"
       d="m 122.10247,220.1755 3.24209,22.3563 66.78672,-10.37466"
       id="path1030"
       inkscape:connector-curvature="0" />
    <path
       inkscape:connector-curvature="0"
       id="path1032"
       d="m 127.69327,213.14136 3.24209,22.35629 68.46795,-10.68031"
       style="fill:none;stroke:#000000;stroke-width:1.3833077;stroke-linecap:butt;stroke-linejoin:miter;stroke-miterlimit:4;stroke-dasharray:none;stroke-opacity:1"
       sodipodi:nodetypes="ccc" />
    <path
       inkscape:connector-curvature="0"
       id="path1034"
       d="m 38.580534,254.16565 72.488816,-9.58054"
       style="fill:none;stroke:#000000;stroke-width:1.3833077;stroke-linecap:butt;stroke-linejoin:round;stroke-miterlimit:4;stroke-dasharray:none;stroke-opacity:1"
       sodipodi:nodetypes="cc" />
    <path
       style="fill:none;stroke:#000000;stroke-width:1.3833077;stroke-linecap:butt;stroke-linejoin:miter;stroke-miterlimit:4;stroke-dasharray:none;stroke-opacity:1"
       d="m 149.98613,25.681276 55.54575,82.196334 -26.36891,3.89047 20.24034,113.04926"
       id="path1036"
       inkscape:connector-curvature="0"
       sodipodi:nodetypes="cccc" />
    <path
       sodipodi:nodetypes="cc"
       style="fill:none;stroke:#000000;stroke-width:1.3833077;stroke-linecap:butt;stroke-linejoin:miter;stroke-miterlimit:4;stroke-dasharray:none;stroke-opacity:1"
       d="M 38.528046,271.9852 195.3442,251.25949"
       id="path1038"
       inkscape:connector-curvature="0" />
    <text
       xml:space="preserve"
       style="font-style:normal;font-variant:normal;font-weight:normal;font-stretch:normal;font-size:7.60044622px;line-height:1.25;font-family:'Proxima Nova';-inkscape-font-specification:'Proxima Nova';text-align:center;letter-spacing:0px;word-spacing:0px;text-anchor:middle;fill:#000000;fill-opacity:1;stroke:none;stroke-width:0.03958566"
       x="80.810768"
       y="270.93909"
       id="text1042"
       transform="rotate(-7.6955673)"><tspan
         sodipodi:role="line"
         id="tspan1040"
         x="80.810768"
         y="270.93909"
         style="stroke-width:0.03958566">Rich St</tspan><tspan
         sodipodi:role="line"
         x="80.810768"
         y="280.43964"
         style="stroke-width:0.03958566"
         id="tspan1044" /></text>
    <text
       xml:space="preserve"
       style="font-style:normal;font-variant:normal;font-weight:normal;font-stretch:normal;font-size:8.94861317px;line-height:1.25;font-family:'Proxima Nova';-inkscape-font-specification:'Proxima Nova';text-align:center;letter-spacing:0px;word-spacing:0px;text-anchor:middle;fill:#000000;fill-opacity:1;stroke:none;stroke-width:0.33557299"
       x="48.149746"
       y="80.13755"
       id="text1508"><tspan
         sodipodi:role="line"
         id="tspan1506"
         x="49.312016"
         y="80.13755"
         style="font-size:8.94861317px;stroke-width:0.33557299">limited parking </tspan><tspan
         sodipodi:role="line"
         x="48.149746"
         y="91.323318"
         style="font-size:8.94861317px;stroke-width:0.33557299"
         id="tspan1510">available here</tspan></text>
    <text
       id="text1538"
       y="192.94025"
       x="65.933258"
       style="font-style:normal;font-variant:normal;font-weight:normal;font-stretch:normal;font-size:8.94861317px;line-height:1.25;font-family:'Proxima Nova';-inkscape-font-specification:'Proxima Nova';text-align:center;letter-spacing:0px;word-spacing:0px;text-anchor:middle;fill:#000000;fill-opacity:1;stroke:none;stroke-width:0.33557299"
       xml:space="preserve"><tspan
         style="font-size:8.94861317px;stroke-width:0.33557299"
         y="192.94025"
         x="67.095528"
         id="tspan1534"
         sodipodi:role="line">limited parking </tspan><tspan
         id="tspan1536"
         style="font-size:8.94861317px;stroke-width:0.33557299"
         y="204.12601"
         x="65.933258"
         sodipodi:role="line">available here</tspan></text>
    <text
       xml:space="preserve"
       style="font-style:normal;font-variant:normal;font-weight:normal;font-stretch:normal;font-size:7.32000303px;line-height:1.25;font-family:'Proxima Nova';-inkscape-font-specification:'Proxima Nova';text-align:center;letter-spacing:0px;word-spacing:0px;text-anchor:middle;fill:#000000;fill-opacity:1;stroke:none;stroke-width:0.36600015"
       x="136.64786"
       y="52.72823"
       id="text1542"><tspan
         sodipodi:role="line"
         id="tspan1540"
         x="136.64786"
         y="52.72823"
         style="font-size:7.32000303px;stroke-width:0.36600015">strongwater food</tspan><tspan
         sodipodi:role="line"
         x="136.64786"
         y="61.878235"
         style="font-size:7.32000303px;stroke-width:0.36600015"
         id="tspan1544">and spirits</tspan></text>
    <text
       xml:space="preserve"
       style="font-style:normal;font-variant:normal;font-weight:normal;font-stretch:normal;font-size:12.20000553px;line-height:1.25;font-family:'Proxima Nova';-inkscape-font-specification:'Proxima Nova';text-align:center;letter-spacing:0px;word-spacing:0px;text-anchor:middle;fill:#000000;fill-opacity:1;stroke:none;stroke-width:0.36600015"
       x="160.52699"
       y="92.089157"
       id="text1548"><tspan
         sodipodi:role="line"
         id="tspan1546"
         x="160.52699"
         y="92.089157"
         style="font-size:12.20000553px;stroke-width:0.36600015">the STEAM</tspan><tspan
         sodipodi:role="line"
         x="160.52699"
         y="107.33916"
         style="font-size:12.20000553px;stroke-width:0.36600015"
         id="tspan1550">factory</tspan></text>
    <path
       style="fill:#000000;stroke-width:0.01264163"
       d="m 129.59444,94.655487 c -1.11423,0.40161 -2.32058,0.71804 -3.13317,1.64741 -0.39409,0.45711 -0.95678,-0.0987 -1.41203,0.2602 -0.2685,0.16767 -0.63659,0.22325 -0.90566,0.29373 -0.23367,-0.22844 -0.32953,-0.52966 -0.66198,-0.61792 -0.29902,-0.27871 -0.58484,0.21559 -0.80858,-0.13816 -0.35295,-0.0877 -0.61635,-0.37171 -0.94374,-0.45012 -0.81162,-0.18648 -1.74045,0.0505 -2.59728,-0.0191 -0.56366,0.15462 -1.56765,-0.30393 -1.82144,0.38516 -0.0306,3.26574 -0.26059,6.538553 -0.25919,9.807303 -0.003,0.54355 0.57165,0.15349 0.84937,0.43543 0.46676,-0.14049 0.8505,0.26374 0.84692,0.74167 0.21316,0.44501 0.82351,0.39557 1.1741,0.47105 0.20944,0.38137 0.8628,0.74539 1.19586,0.33099 0.3487,-0.0132 0.58433,0.51352 0.97719,0.2426 0.2837,0.12206 0.55384,-0.34422 0.66307,-0.27197 0.0771,0.51986 0.76369,0.40127 0.86161,0.89778 0.37102,0.32718 0.98419,0.11475 1.35251,-0.11695 0.15221,-0.25252 0.18169,-0.46276 0.45991,-0.60595 0.24085,-0.26784 -0.14655,-0.91074 0.20044,-0.99107 0.35133,0.3001 0.79742,-0.0455 1.05389,-0.27877 0.0958,-0.35025 -0.0483,-0.78035 0.1572,-1.07946 0.36527,0.0354 0.36171,-0.43871 0.72181,-0.29971 0.60511,-0.12087 0.92523,-0.63566 1.33321,-1.04356 0.47803,-0.0583 0.34214,-0.71931 0.62445,-0.87738 -0.20944,-0.3223 0.20943,-0.66065 0.11885,-1.04491 0.0437,-0.50393 0.51768,-0.95718 0.34132,-1.52332 -0.0304,-0.29399 -0.0307,-0.43887 0.17842,-0.65871 0.0957,-1.823433 -0.0638,-3.675203 -0.0677,-5.508253 -0.16447,0.0132 -0.33858,-0.0229 -0.49934,0.012 z m -0.2543,1.15697 c -0.0127,1.29822 0.15748,2.70566 0.0245,3.93842 -0.43899,0.1766 -0.35419,0.684403 -0.16427,0.995423 -0.10603,0.28077 0.0882,0.52243 -0.14714,0.78273 -0.18986,0.40504 -0.13915,0.82028 -0.38185,1.19097 -0.0266,0.29541 -0.23173,0.55287 -0.15964,0.84202 -0.38287,0.17963 -0.58745,0.82954 -0.99841,0.81129 -0.54295,-0.32623 -0.79549,0.4018 -1.21245,0.53987 -0.32541,0.26712 -0.27664,0.9753 -0.79987,0.8238 -0.51464,0.19226 -0.61645,0.82284 -0.88989,1.22007 -0.0129,0.27076 0.18572,0.45815 -0.12674,0.61846 -0.0827,0.24677 -0.19317,0.64138 -0.4542,0.2804 -0.14475,-0.32365 -0.67316,-0.2498 -0.55835,-0.67911 -0.11927,-0.65613 -0.96532,-0.39249 -1.26603,-0.0615 -0.38838,0.33472 -0.85081,-0.35494 -1.31771,-0.13028 -0.3565,0.24904 -0.47801,-0.38663 -0.87983,-0.35465 -0.27488,-0.0211 -0.58569,0.11281 -0.60731,-0.2872 -0.0983,-0.33698 -0.32238,-0.57319 -0.56162,-0.78872 -0.18583,-0.38723 -0.62012,-0.10421 -0.85862,-0.16835 -0.4354,-0.42604 -9.7e-4,-1.23896 -0.11833,-1.81218 0.10147,-2.37299 0.14254,-4.813163 0.23637,-7.147663 1.09358,0.0524 2.25561,-0.16968 3.30799,0.0296 0.51462,0.0852 0.91615,0.41303 1.34436,0.68456 0.30997,0.11721 0.60685,-0.16409 0.78355,0.22057 0.29976,0.35178 0.82173,0.41898 1.18661,0.15148 0.41363,0.009 0.70682,-0.43845 1.12189,-0.22002 0.99143,0.18754 1.40986,-0.9694 2.25709,-1.213 0.37748,-0.23906 0.8287,-0.32505 1.23611,-0.49934 l 0.002,0.13923 z"
       id="path2201"
       inkscape:connector-curvature="0" />
    <path
       inkscape:connector-curvature="0"
       id="path2233"
       d="m 126.49635,275.29777 c -1.59175,0.57372 -3.31509,1.02576 -4.47592,2.35342 -0.56299,0.65301 -1.36682,-0.141 -2.01718,0.37171 -0.38356,0.23953 -0.9094,0.31893 -1.29378,0.41961 -0.33382,-0.32634 -0.47075,-0.75664 -0.94568,-0.88274 -0.42717,-0.39814 -0.83548,0.30799 -1.15511,-0.19736 -0.50421,-0.12529 -0.88049,-0.53101 -1.34818,-0.64303 -1.15945,-0.26639 -2.48634,0.0722 -3.71038,-0.0273 -0.80523,0.22088 -2.23948,-0.43419 -2.60203,0.55022 -0.0437,4.6653 -0.37227,9.34071 -0.37028,14.01031 -0.005,0.77651 0.81665,0.21927 1.21338,0.62205 0.66679,-0.2007 1.215,0.37676 1.20988,1.05952 0.30451,0.63572 1.17644,0.5651 1.67727,0.67293 0.2992,0.5448 1.23256,1.06483 1.70836,0.47283 0.49814,-0.0188 0.83475,0.7336 1.39597,0.34656 0.40529,0.17438 0.7912,-0.49173 0.94724,-0.38851 0.11013,0.74265 1.09098,0.57323 1.23086,1.28253 0.53003,0.46739 1.40598,0.16393 1.93214,-0.16707 0.21745,-0.36075 0.25956,-0.66108 0.65702,-0.86564 0.34407,-0.38262 -0.20936,-1.30105 0.28633,-1.41581 0.5019,0.42872 1.13917,-0.065 1.50554,-0.39824 0.13687,-0.50034 -0.069,-1.11477 0.22458,-1.54207 0.52181,0.0505 0.51673,-0.62672 1.03115,-0.42815 0.86444,-0.17267 1.32174,-0.90808 1.90457,-1.49079 0.68289,-0.0833 0.48876,-1.02758 0.89207,-1.25338 -0.29921,-0.46043 0.29918,-0.94378 0.16978,-1.49272 0.0624,-0.7199 0.73953,-1.3674 0.4876,-2.17616 -0.0434,-0.41998 -0.0438,-0.62696 0.25488,-0.941 0.13672,-2.60489 -0.0911,-5.25026 -0.0968,-7.86887 -0.23495,0.0188 -0.48368,-0.0327 -0.71334,0.0171 z m -0.36328,1.6528 c -0.0181,1.85458 0.22497,3.86519 0.035,5.62626 -0.62713,0.25229 -0.50599,0.97772 -0.23467,1.42202 -0.15147,0.40111 0.126,0.74633 -0.21021,1.11818 -0.27121,0.57863 -0.19877,1.17182 -0.54549,1.70138 -0.038,0.42201 -0.33104,0.7898 -0.22805,1.20287 -0.54696,0.25661 -0.83921,1.18505 -1.42629,1.15898 -0.77563,-0.46605 -1.1364,0.57399 -1.73206,0.77124 -0.46487,0.38159 -0.3952,1.39327 -1.14266,1.17685 -0.7352,0.27465 -0.88064,1.17548 -1.27127,1.74294 -0.0185,0.38679 0.26532,0.65449 -0.18105,0.8835 -0.11814,0.35253 -0.27595,0.91625 -0.64885,0.40058 -0.20678,-0.46236 -0.96166,-0.35687 -0.79764,-0.97016 -0.17038,-0.93732 -1.37901,-0.56069 -1.8086,-0.0878 -0.55482,0.47817 -1.21543,-0.50705 -1.88243,-0.18612 -0.50928,0.35578 -0.68286,-0.55231 -1.25688,-0.50663 -0.39269,-0.0301 -0.8367,0.16116 -0.86759,-0.41028 -0.14042,-0.4814 -0.46054,-0.81883 -0.8023,-1.12674 -0.26547,-0.55318 -0.88588,-0.14886 -1.2266,-0.24049 -0.62199,-0.60863 -10e-4,-1.76993 -0.16903,-2.58882 0.14496,-3.38995 0.20362,-6.87588 0.33767,-10.21086 1.56224,0.0749 3.22227,-0.2424 4.72566,0.0423 0.73516,0.12171 1.30877,0.59003 1.92049,0.97793 0.44281,0.16744 0.86693,-0.23441 1.11935,0.3151 0.42823,0.50254 1.1739,0.59854 1.69514,0.2164 0.5909,0.0128 1.00975,-0.62636 1.60269,-0.31432 1.41632,0.26791 2.01407,-1.38484 3.22439,-1.73285 0.53926,-0.3415 1.18385,-0.46435 1.76586,-0.71333 l 0.003,0.19889 z"
       style="fill:#000000;stroke-width:0.01805933" />
    <text
       xml:space="preserve"
       style="font-style:normal;font-variant:normal;font-weight:normal;font-stretch:normal;font-size:11.28888893px;line-height:1.25;font-family:'Proxima Nova';-inkscape-font-specification:'Proxima Nova';text-align:center;letter-spacing:0px;word-spacing:0px;text-anchor:middle;fill:#000000;fill-opacity:1;stroke:none;stroke-width:0.26458332"
       x="161.6604"
       y="288.00415"
       id="text2248"><tspan
         sodipodi:role="line"
         id="tspan2246"
         x="161.6604"
         y="288.00415"
         style="font-size:11.28888893px;stroke-width:0.26458332;font-weight:normal;-inkscape-font-specification:'Proxima Nova';font-family:'Proxima Nova';font-style:normal;font-stretch:normal;font-variant:normal">- Enter Here</tspan></text>
  </g>
</svg>
