<?xml version="1.0" encoding="UTF-8" standalone="no"?>
<svg
   xmlns:dc="http://purl.org/dc/elements/1.1/"
   xmlns:cc="http://creativecommons.org/ns#"
   xmlns:rdf="http://www.w3.org/1999/02/22-rdf-syntax-ns#"
   xmlns:svg="http://www.w3.org/2000/svg"
   xmlns="http://www.w3.org/2000/svg"
   viewBox="0 0 933 687"
   height="687"
   width="933"
   id="svg885"
   version="1.1">
  <metadata
     id="metadata891">
    <rdf:RDF>
      <cc:Work
         rdf:about="">
        <dc:format>image/svg+xml</dc:format>
        <dc:type
           rdf:resource="http://purl.org/dc/dcmitype/StillImage" />
        <dc:title></dc:title>
      </cc:Work>
    </rdf:RDF>
  </metadata>
  <defs
     id="defs889" />
  <path
     id="path913"
     d="M 54.499996,685.5133 C 28.646035,680.7661 7.1566895,660.04951 1.442042,634.36326 c -2.184086,-9.81705 -1.543687,-26.24848 1.340963,-34.40657 8.439931,-23.869 26.73734,-40.59229 49.745681,-45.46608 10.552289,-2.23526 816.390324,-2.23526 826.942614,0 30.37379,6.43399 52.5287,34.05494 52.5287,65.48856 0,32.23081 -23.18022,59.87163 -55.00001,65.58383 -10.85236,1.9482 -811.882915,1.8998 -822.499994,-0.05 z m 0.5,-276.21712 C 37.167396,406.31582 18.634045,393.39954 9.2109515,377.38481 3.144535,367.07482 0.909658,359.31762 0.306925,346.47917 c -0.635179,-13.52957 0.998627,-21.42187 6.9349285,-33.5 8.1138395,-16.5086 24.5483215,-29.55792 43.7581415,-34.74489 6.14779,-1.66001 28.635181,-1.75511 414.999995,-1.75511 386.36482,0 408.85221,0.0951 415,1.75511 3.575,0.96531 10.31942,3.62759 14.9876,5.91617 16.67724,8.17606 30.17751,25.47981 34.58511,44.32872 2.2116,9.45832 1.4679,26.40271 -1.5582,35.5 -6.5437,19.67209 -22.73775,35.92698 -43.01451,43.17617 l -6.5,2.32383 -411,0.11742 c -226.05,0.0646 -412.124994,-0.0706 -413.499994,-0.30041 z m -1.002,-276.79848 C 22.585925,126.21313 0,98.80847 0,66.97917 0,41.12301 14.116846,18.51058 37.499995,6.9115 52.641885,-0.59954 14.533134,0.0139 465.99999,0.0139 c 451.46686,0 413.35812,-0.61344 428.5,6.8976 34.12241,16.92623 47.35621,57.451 29.83731,91.36815 -5.28018,10.22255 -18.20151,22.95821 -28.33731,27.93011 -4.125,2.02343 -10.2,4.48681 -13.5,5.47418 -5.72545,1.71308 -24.66939,1.80254 -414,1.95492 -331.40452,0.12971 -409.220644,-0.0845 -414.501994,-1.14116 z"
     style="fill:#ffffff;fill-opacity:1" />
</svg>
