<?xml version="1.0" standalone="no"?> <!DOCTYPE svg PUBLIC "-//W3C//DTD SVG 1.0//EN" "http://www.w3.org/TR/2001/REC-SVG-20010904/DTD/svg10.dtd" > <svg xmlns="http://www.w3.org/2000/svg" width="100%" height="100%">
<defs >
<font id="socialglyphs-regular" horiz-adv-x="776" ><font-face
    font-family="Socialglyphs"
    units-per-em="1000"
    panose-1="0 0 5 0 0 0 0 0 0 0"
    ascent="1000"
    descent="-200"
    alphabetic="0" />
<missing-glyph horiz-adv-x="500" />
<glyph unicode=" " glyph-name="space" horiz-adv-x="600" />
<glyph unicode="A" glyph-name="A" horiz-adv-x="552" d="M102 495Q105 552 149 591T251 631H318Q375 631 412 592T452 495V491V122Q452 105 450 96T436 86H320V-57Q320 -78 309 -87T283 -97Q269 -97 258 -87T246 -57V86H138Q126 86 114 97T102 120V122V491V495Z" />
<glyph unicode="B" glyph-name="B" horiz-adv-x="926" d="M789 349T807 332T826 296V134Q826 68 791 13T698 -74T574 -108L337 -110V-108Q272 -108 218 -74T132 18T100 142V375Q100 441 132 496T218 584T339 616H456Q514 616 567 585T653 500T689 384V385Q689
377 698 363T736 349H741H769Q789 349 807 332ZM323 424Q304 424 292 414T280 385Q280 368 292 359T323 349H325H459Q479 349 489 359T500 388Q500 424 456 424H325H323ZM623 83T623 120Q623 137 612 147T580 157H325H323Q304 157 292 148T280 121Q280 103 292
93T323 83H325H580Q623 83 623 120Z" />
<glyph unicode="C" glyph-name="C" horiz-adv-x="686" d="M100 -103H130Q135 -84 140 -77Q146 -67 162 -67Q165 -67 173 -69Q174 -69 186 -72L206 -79Q232 -90 268 -97Q300 -103 331 -103Q465 -103 526 -34Q586 35 586 114Q586 199 530 256Q501 287 448 313L372
351Q279 398 249 424Q221 448 221 497Q221 539 251 567Q280 595 332 595Q405 595 456 539Q508 481 527 404H556V629H525Q523 617 515 603Q508 593 492 593Q486 593 432 610Q380 628 323 628Q212 628 160 562Q106 496 106 421Q106 350 147 301Q188 252 285 203L351
170Q411 139 432 120Q463 90 463 44Q463 5 434 -32Q404 -68 335 -68Q264 -68 209 -16Q154 38 130 153H100V-103Z" />
<glyph unicode="D" glyph-name="D" horiz-adv-x="934" d="M463 381Q649 380 724 299T811 178T822 137Q826 124 829 102T834 71H475V298L564 282V131H715Q715 150 699 195T627 285T463 329L445 328V71H100Q101 78 103 101T109 137Q120 193 175 268T371 371V449L445
457V380L463 381ZM371 320Q276 295 246 237T215 134V131H371V320Z" />
<glyph unicode="E" glyph-name="E" horiz-adv-x="600" />
<glyph unicode="F" glyph-name="F" horiz-adv-x="552" />
<glyph unicode="G" glyph-name="G" horiz-adv-x="929" />
<glyph unicode="H" glyph-name="H" horiz-adv-x="600" />
<glyph unicode="I" glyph-name="I" horiz-adv-x="600" />
<glyph unicode="J" glyph-name="J" horiz-adv-x="600" />
<glyph unicode="K" glyph-name="K" horiz-adv-x="600" />
<glyph unicode="L" glyph-name="L" horiz-adv-x="600" />
<glyph unicode="M" glyph-name="M" horiz-adv-x="600" />
<glyph unicode="N" glyph-name="N" horiz-adv-x="600" />
<glyph unicode="O" glyph-name="O" horiz-adv-x="600" />
<glyph unicode="P" glyph-name="P" horiz-adv-x="907" />
<glyph unicode="Q" glyph-name="Q" horiz-adv-x="600" />
<glyph unicode="R" glyph-name="R" horiz-adv-x="600" />
<glyph unicode="S" glyph-name="S" horiz-adv-x="928" />
<glyph unicode="T" glyph-name="T" horiz-adv-x="902" />
<glyph unicode="U" glyph-name="U" horiz-adv-x="600" />
<glyph unicode="V" glyph-name="V" horiz-adv-x="600" />
<glyph unicode="W" glyph-name="W" horiz-adv-x="600" />
<glyph unicode="X" glyph-name="X" horiz-adv-x="600" />
<glyph unicode="Y" glyph-name="Y" horiz-adv-x="600" />
<glyph unicode="Z" glyph-name="Z" horiz-adv-x="600" />
<glyph unicode="a" glyph-name="a" horiz-adv-x="928" d="M211 402T176 382T121 326T100 250Q100 209 120 175T176 120T252 99Q293 99 327 119T382 174T403 250Q403 291 383 326T328 381T252 402Q211 402 176 382ZM636 402T601 382T546 326T525 250Q525 209 545
175T601 120T677 99Q718 99 753 119T808 174T828 250Q828 291 808 326T753 381T677 402Q636 402 601 382Z" />
<glyph unicode="b" glyph-name="b" horiz-adv-x="931" d="M561 402H770V477H561V402ZM333 34T361 40Q391 46 411 62Q427 74 442 97Q461 126 461 167Q461 207 444 231Q428 258 393 270Q415 282 427 295Q447 319 447 360Q447 401 427 428Q394 474 313 475H100V34H298Q333
34 361 40ZM284 398Q316 398 336 391Q359 382 359 350Q359 323 342 312Q326 301 295 301H188V398H284ZM831 194Q831 216 829 238Q823 276 803 305Q781 338 746 353Q713 368 670 368Q598 368 553 323Q508 278 508 193Q508 102 558 63Q607 23 673 23Q752 23 795 70Q824
101 827 129H740Q732 114 722 107Q704 92 675 92Q648 92 628 104Q595 124 594 173H831V194ZM600 260T619 280Q637 298 670 298Q700 298 720 281Q740 264 743 229H596Q600 260 619 280ZM296 228Q324 228 340 220Q368 208 368 173Q368 133 339 118Q323 110 295 110H188V228H296Z"
/>
<glyph unicode="c" glyph-name="c" horiz-adv-x="928" d="M475 421T490 425T526 430Q592 430 639 384T690 272Q708 280 727 280Q769 280 798 250T828 178Q828 138 800 108T734 78H447V409Q475 421 490 425ZM411 78T417 83T423 97V365Q423 373 417 379T403 385H396Q388
385 382 379T376 365V97Q376 89 382 84T396 78H403Q411 78 417 83ZM267 78T272 83T278 97V335Q278 343 273 348T259 354H252Q244 354 238 349T232 335V97Q232 89 238 84T252 78H259Q267 78 272 83ZM344 78T349 83T355 97V335Q355 343 350 348T336 354H328Q321 354
315 349T309 335V97Q309 89 314 84T328 78H336Q344 78 349 83ZM190 78T196 83T202 97V258Q202 266 196 271T182 277H175Q167 277 161 272T155 258V97Q155 89 161 84T175 78H182Q190 78 196 83ZM131 108T131 128V222Q131 246 116 246H115Q100 246 100 222V128Q100
108 115 108H116Q131 108 131 128Z" />
<glyph unicode="d" glyph-name="d" horiz-adv-x="931" d="M565 615T649 566T782 433T831 250Q831 151 782 67T649 -66T466 -116Q367 -116 283 -67T150 67T100 250Q100 349 149 433T283 566T466 615Q565 615 649 566ZM579 562T466 562Q428 562 397 555Q455 479
505 376Q627 422 664 491Q579 562 466 562ZM273 508T224 448T159 312Q322 321 454 359Q403 464 344 538Q273 508 224 448ZM778 365T703 453Q653 376 527 328Q542 295 554 264Q597 272 639 272Q705 272 778 253Q778 365 703 453ZM153 250Q153 138 223 52Q265 109
335 166T502 252Q504 248 477 311Q338 269 153 259V250ZM693 25T728 80T774 200Q702 219 638 219Q608 219 573 214Q612 104 639 -11Q693 25 728 80ZM348 -63T466 -63Q533 -63 591 -37Q562 89 521 203Q427 176 362 121T260 14Q348 -63 466 -63Z" />
<glyph unicode="e" glyph-name="e" horiz-adv-x="907" d="M145 158T123 202T100 316Q100 379 132 448T242 568T446 619H451Q509 619 586 602T725 527Q807 450 807 323Q807 206 736 141Q669 79 559 79H546H470V66Q470 -29 425 -78Q391 -115 332 -115H329H326Q272
-115 252 -89L260 34L268 18Q277 1 323 1Q349 1 349 57L351 63V424H470V197H555Q556 197 560 197T570 196Q625 196 657 226Q691 259 691 323Q691 400 645 443Q607 479 553 491T458 503H451H448Q347 503 295 465T229 385T215 316Q215 277 226 253T246 220L163 140Q145
158 123 202Z" />
<glyph unicode="f" glyph-name="f" horiz-adv-x="540" d="M427 259Q437 331 440 386H325V402V420Q325 469 333 484Q344 502 419 502H440V626H384Q320 626 280 618T213 584Q189 559 182 521T174 442T172 386H100V259H174V-105H329V259H427Z" />
<glyph unicode="g" glyph-name="g" horiz-adv-x="934" d="M286 615T195 510Q97 397 100 261Q103 123 200 17Q249 -36 317 -67T469 -99Q490 -99 501 -98Q595 -91 672 -40T792 94T834 278Q833 345 803 410T734 519Q629 633 471 633Q448 633 424 630Q286 615 195
510ZM605 266T559 326T458 424T338 481Q341 400 341 398Q341 297 301 249Q285 231 263 218T220 205Q208 205 200 209Q177 220 177 265Q177 297 186 335Q207 427 278 489T447 559L466 560Q545 560 611 521T713 424Q731 396 743 354T756 273V266Q755 192 709 192Q688
192 662 209T616 252Q605 266 559 326Z" />
<glyph unicode="h" glyph-name="h" horiz-adv-x="929" d="M331 566Q264 566 209 530Q158 494 146 439Q143 426 143 413Q143 361 181 325Q223 285 286 285Q294 285 312 287Q304 271 304 253Q304 241 306 235Q309 227 317 216T328 201Q251 195 203 181T125 131Q100
100 100 65Q100 2 174 -31Q221 -52 284 -52Q297 -52 321 -50Q396 -44 447 -7Q509 36 509 102Q509 154 462 195L423 226Q421 228 410 236T391 254T383 274Q383 280 386 287Q390 298 408 313Q413 317 434 334T467 372T480 419Q482 486 420 537H472L526 566H331ZM676
557V445H559V407L638 408Q664 408 676 407V290H713V407H829V445L751 444Q725 444 713 445V559H676V557ZM230 509T247 522T288 538L299 539Q321 539 336 530Q364 514 384 475T404 392V382Q402 360 397 349Q388 331 367 320T323 308Q304 308 290 315Q254 333 233
384Q218 420 218 454Q218 474 224 490Q230 509 247 522ZM256 174T329 177L348 178Q354 178 356 177Q363 176 370 170T380 161Q386 157 400 148T424 129T441 107Q451 91 451 70Q451 47 440 30Q412 -17 325 -17Q306 -17 297 -16Q254 -12 221 7T179 57Q175 73 175
82Q175 95 180 108Q190 135 217 151Q256 174 329 177Z" />
<glyph unicode="i" glyph-name="i" horiz-adv-x="933" d="M147 622T124 599T100 542Q100 508 123 485T181 461Q214 461 238 484T262 542Q262 575 238 598T181 622Q147 622 124 599ZM833 341T784 381Q734 422 658 422Q596 422 557 392Q533 373 509 336V409H383V-88H513V181Q513
225 526 257Q550 313 616 313Q670 313 689 275Q699 255 699 215V-88H833V247Q833 341 784 381ZM112 -88H244V410H112V-88Z" />
<glyph unicode="j" glyph-name="j" horiz-adv-x="961" d="M108 281T202 281L246 280Q230 318 230 357Q230 362 230 365T231 370Q231 426 278 475Q269 497 269 533Q269 547 270 557T271 573Q272 585 288 585H293Q304 584 319 579T340 571Q367 561 394 541Q437 554
492 554Q538 554 582 543Q607 562 632 571Q637 573 653 578T680 585H685Q701 585 702 573Q702 567 703 558T704 536Q704 506 697 484Q753 433 753 370Q753 369 753 365T754 355Q754 315 737 276Q777 284 809 284Q852 284 861 275L858 269Q858 270 845 273T809 277Q775
277 733 268Q732 266 725 254Q769 257 794 257Q851 257 854 246L851 245L849 243Q849 244 838 246T799 249Q767 249 723 245Q699 212 665 190T574 159Q595 145 607 126T623 93T628 75V-52H573V82H560V-52H506V96H493V-52H452V82H439V-52H385V42L335 52Q319 55 307
62Q292 70 282 83L274 95Q273 98 269 104Q259 122 243 139L214 172Q212 174 212 175L213 179Q215 185 222 185Q225 185 226 184T229 183Q251 171 266 160Q276 153 300 129Q303 126 309 119Q313 115 315 114Q321 109 328 108Q329 107 344 105H347H353L390 107Q396
144 422 163Q309 180 261 253H253Q211 253 181 249T136 241T118 235L115 241Q124 246 158 252T253 259H256L249 273L203 274Q116 274 106 264L100 267Q108 281 202 281Z" />
<glyph unicode="k" glyph-name="k" horiz-adv-x="604" d="M564 1H370V-102H223V1H40L302 623L564 1ZM326 119V164H429V208H326V252H267V164H178V119H269L267 4V-58H326V90H429V119H326Z" />
<glyph unicode="l" glyph-name="l" horiz-adv-x="933" d="M821 388T812 406T779 437Q748 457 692 457Q650 457 612 445T557 410Q533 380 533 343Q533 306 554 274T605 230Q618 225 660 217T724 198T746 161Q746 154 745 150Q741 132 717 124T664 115H659Q573 116
535 185Q518 216 504 266T479 345T447 399Q424 427 383 441T295 456Q254 456 217 444T157 410Q129 383 115 340T100 249Q100 189 122 139T187 67Q228 46 282 46Q324 46 363 58T425 94Q419 106 412 127T399 163Q390 157 370 144T331 123T290 115Q277 115 259 120Q227
129 209 167T190 254Q190 309 214 346Q227 366 250 377T298 388Q335 388 361 367Q379 353 391 327T411 274T423 236Q426 226 435 197T456 144T484 104Q511 77 562 61T667 44Q742 44 788 75Q807 88 820 113T833 167Q833 192 825 212Q804 268 704 289Q697 291 676
295T642 306T624 327Q621 336 621 343Q621 365 640 378T684 391Q709 391 726 378Q734 372 738 358T747 338Q764 340 789 342T828 348Q821 388 812 406Z" />
<glyph unicode="m" glyph-name="m" horiz-adv-x="933" d="M833 363V138H100V363H250V273H683V363H833Z" />
<glyph unicode="n" glyph-name="n" horiz-adv-x="951" d="M577 628T663 578T800 441T851 252Q851 155 806 72T682 -62Q641 5 569 44T413 84Q351 84 295 62T196 1Q150 51 125 116T100 252Q100 354 150 440T287 577T475 628Q577 628 663 578ZM715 324T721 323T729
322Q743 322 753 332T764 357Q764 378 746 388Q620 466 439 466Q374 466 323 458T252 445Q224 441 224 411Q224 396 234 386T259 376Q265 376 268 377Q275 380 326 388T438 396Q601 396 709 328Q715 324 721 323ZM303 264T341 270T425 276Q562 276 664 214Q671
210 679 210Q691 210 700 221T709 245Q709 257 692 277Q578 338 437 338Q359 338 316 328T270 317Q261 314 255 305T248 286Q248 274 256 265T276 256L288 259Q303 264 341 270ZM293 151T333 157T418 164Q545 164 622 105Q623 104 626 103T635 101Q642 101 648
106Q655 111 657 115T659 129Q659 131 657 136T647 147Q552 211 408 211Q337 211 289 199Q268 193 268 176Q268 2 268 1V1V176Q268 166 274 158T290 149H293Q293 151 333 157ZM464 -26T502 -49T560 -113Q520 -124 475 -124Q375 -124 294 -76Q340 -26 413 -26Q464
-26 502 -49Z" />
<glyph unicode="o" glyph-name="o" horiz-adv-x="932" d="M565 614T649 565T782 431T832 248Q832 149 783 65T649 -69T466 -119Q367 -119 283 -70T150 64T100 248Q100 347 149 431T283 564T466 614Q565 614 649 565ZM527 23T578 53T660 135T691 248Q691 286 678
323Q666 293 639 274T578 255Q534 255 503 286T471 363Q471 396 489 422T536 461Q501 472 466 472Q405 472 354 442T272 361T241 248Q241 187 271 136T353 54T466 23Q527 23 578 53Z" />
<glyph unicode="p" glyph-name="p" horiz-adv-x="767" d="M351 119T375 106Q400 92 433 89H444Q466 89 498 97Q527 106 549 120Q639 178 661 305Q667 349 667 373Q667 410 658 438Q642 493 605 533Q566 573 518 594Q467 618 404 618H393Q363 616 346 614Q283 604
232 575Q169 539 132 473Q112 436 105 400Q101 381 101 354Q101 327 105 307Q119 231 175 200Q187 193 194 193Q201 193 204 198T209 210T212 222Q213 226 215 233T217 247Q217 250 215 256L202 273Q182 303 182 344Q182 396 206 442Q252 527 349 543Q368 546 389
546Q429 546 458 536Q503 521 531 487Q560 450 564 398V382Q564 366 562 340Q553 256 513 206Q478 163 436 161Q408 161 389 175Q369 188 364 211Q363 216 363 225Q363 240 370 263Q376 284 384 311T397 358Q401 378 401 393Q401 400 399 412Q393 437 374 447Q364
454 346 454Q334 454 324 451Q283 437 269 384Q264 364 264 348Q264 335 265 329Q266 309 277 280V279Q277 276 274 267L233 91Q217 29 216 -8L215 -30Q215 -58 221 -104Q223 -113 226 -114H227Q231 -114 238 -103Q276 -55 298 -3Q304 12 310 34T319 68L337 141Q351
119 375 106Z" />
<glyph unicode="q" glyph-name="q" horiz-adv-x="830" d="M650 49T690 132T730 313Q730 381 709 441T646 541Q606 579 545 600T420 621Q402 621 393 620Q317 615 252 574T147 466T101 324Q100 313 100 290Q100 198 135 125T239 10T399 -32Q439 -32 484 -23Q534
-105 611 -105Q635 -105 663 -96V-39Q607 -39 579 16Q650 49 690 132ZM501 536T540 471T580 308Q580 194 535 107Q488 167 415 167Q398 167 375 162V107Q441 96 452 56Q433 52 412 52Q332 52 290 118T247 280Q247 346 267 405T327 501T421 537Q501 536 540 471Z"
/>
<glyph unicode="r" glyph-name="r" horiz-adv-x="931" d="M566 506T569 505T574 502Q650 458 653 456Q741 409 814 406Q831 406 831 387Q831 381 830 375T827 367Q827 366 823 359T806 332Q796 319 779 308T748 291T730 283V242Q730 161 687 93T571 -16T413 -57Q328
-57 256 -17T142 92T100 242Q100 324 142 392T257 501T415 542Q462 542 507 530V354Q470 368 438 368Q408 368 375 356Q326 338 296 301T265 221Q265 203 270 189Q283 155 316 136T393 116Q428 116 457 127Q505 144 535 180T566 257V507Q566 506 569 505Z" />
<glyph unicode="s" glyph-name="s" horiz-adv-x="932" d="M832 133T832 79Q832 24 805 -22T732 -95T631 -122Q580 -122 535 -98Q502 -104 466 -104Q372 -104 293 -58T167 68T120 242Q120 277 126 308Q100 355 100 407Q100 462 127 508T200 581T301 608Q353 608
400 582Q432 588 466 588Q560 588 639 542T765 416T812 242Q812 209 806 177Q832 133 832 79ZM639 65T656 95T673 158Q673 185 662 208Q646 244 608 261T503 294Q497 295 465 302T413 324T392 357Q393 382 418 395T477 408Q504 408 519 401Q537 393 549 370T571
335T601 321H605Q622 321 635 332T651 360V365Q651 384 639 403T612 435Q567 472 480 472Q460 472 451 471Q375 464 340 435Q322 420 310 397T298 347Q298 322 308 301Q324 266 361 249T433 224T471 214Q473 213 506 206T556 183T574 146Q573 118 545 100T479 81Q449
81 424 94Q405 104 391 132T367 173T335 187Q317 188 305 178T290 153Q289 149 289 142Q289 115 306 90T347 49Q398 13 480 13Q562 13 615 49Q639 65 656 95Z" />
<glyph unicode="t" glyph-name="t" horiz-adv-x="930" d="M813 476T754 465Q755 466 771 481T799 512T817 545Q754 519 720 511Q680 560 615 560Q575 560 538 541T478 486T455 408Q455 389 459 372Q356 380 281 421T142 533Q126 505 126 467Q126 425 145 386T189
330H181Q167 330 151 336T126 343Q128 283 158 250T244 195Q236 191 219 191H193H180Q208 103 319 86Q285 53 225 36T100 18Q204 -45 323 -45Q441 -45 545 14T710 178T762 410Q769 416 787 431T816 460T830 486Q813 476 754 465Z" />
<glyph unicode="u" glyph-name="u" horiz-adv-x="902" d="M352 95Q352 79 356 67T364 48T369 39Q369 37 376 29T398 14T438 7Q463 7 490 14T535 29T559 39V-62Q559 -63 533 -74T467 -94T380 -103Q332 -103 302 -95T256 -76T241 -64Q241 -66 231 -54T212 -22T204
25V265V318H100V414Q115 419 145 435Q199 473 229 516T259 615V614H352V436H530V318H352V95ZM680 89T655 64T630 3Q630 -32 655 -57T716 -83Q751 -83 776 -58T802 3Q802 39 777 64T716 89Q680 89 655 64Z" />
<glyph unicode="v" glyph-name="v" horiz-adv-x="928" d="M730 194T757 238T806 337T828 445Q828 459 827 466Q821 521 790 548T712 575Q667 575 621 552T544 489T514 406Q544 414 566 414Q603 414 611 391Q613 373 613 365Q613 260 499 167Q442 198 433 314T412
489T349 563Q337 566 324 566Q267 566 185 496Q180 492 156 472T116 432T100 397Q100 386 110 377Q118 364 127 364Q135 364 154 378T188 393Q192 393 200 391Q241 357 269 223T322 17T409 -64Q414 -65 424 -65Q486 -65 573 10Q644 71 730 197Q730 194 757 238Z"
/>
<glyph unicode="w" glyph-name="w" horiz-adv-x="932" d="M373 618T307 586Q240 553 201 509Q95 394 100 245Q104 163 132 103T212 -8Q261 -57 328 -85T476 -111Q628 -107 729 1Q836 115 832 265Q829 409 720 518Q673 566 605 595T457 621Q373 618 307 586ZM246
534T306 565T439 603Q449 604 468 604Q600 604 700 515Q804 421 815 281Q816 272 816 254Q816 122 726 23Q634 -82 494 -93Q484 -94 465 -94Q398 -94 339 -70T234 -6Q129 87 118 226Q117 236 117 256Q117 388 203 487Q246 534 306 565ZM589 570T468 570Q451 570
442 569Q373 565 317 533T223 453Q220 449 213 442T206 429V428Q212 426 220 426Q230 426 256 428T294 431Q320 431 321 421V418Q321 410 313 408T294 405T274 403Q368 120 389 64Q430 193 457 268Q448 294 433 334T408 403Q401 404 389 404T369 407T362 419Q362
431 426 431H461H498H516H523Q557 431 557 416Q557 408 550 406T531 404T510 403Q590 162 623 67Q628 81 651 161Q655 174 662 195T674 236T679 275L678 288Q676 308 669 324T643 370T622 422V430Q622 456 637 472T676 487Q589 570 468 570ZM744 392T744 371Q744
329 719 260Q701 212 671 120T625 -15Q724 40 763 151Q780 200 780 256Q780 345 744 402V402Q743 403 742 403Q744 392 744 371ZM154 320T152 275L151 256Q151 158 202 84T329 -26Q304 40 255 176T178 382Q154 320 152 275ZM447 158T424 90T377 -46Q413 -59 466
-59Q531 -59 570 -40Q552 5 524 84T471 226Q447 158 424 90Z" />
<glyph unicode="x" glyph-name="x" horiz-adv-x="932" d="M832 564V296L441 -58L286 86Q266 83 265 83Q220 83 182 105T122 165T100 248Q100 293 122 331T182 391T265 413Q320 413 365 378L391 404Q410 423 436 423Q463 423 481 404L574 309L832 564ZM791 466L598
279L449 119L405 164Q379 120 331 99L440 -2L646 185L791 314V466ZM317 126T353 162T389 248Q389 310 337 349Q302 372 265 372Q214 372 178 336T142 248Q142 197 178 161T265 125H267Q317 126 353 162Z" />
<glyph unicode="y" glyph-name="y" horiz-adv-x="931" d="M766 504T798 475T831 399V90Q831 45 799 18T719 -9H232Q182 -9 141 18T100 90V399Q100 444 141 474T232 504H719Q766 504 798 475ZM577 245L409 365V139L577 245Z" />
<glyph unicode="z" glyph-name="z" horiz-adv-x="746" d="M518 593T420 593Q308 593 249 621Q199 565 199 529Q199 524 201 516Q212 474 295 474Q312 474 341 476T394 478H403Q370 432 334 389T256 300T190 226Q180 215 154 189T114 134T100 71Q100 57 103 40Q137
44 154 44Q251 44 336 -11Q350 -20 381 -44T436 -82T484 -103Q504 -109 523 -109Q574 -109 609 -74T645 15Q645 34 641 51Q605 24 561 24Q526 24 491 38T379 96T249 143Q289 189 380 287T517 437Q527 448 553 476T593 532T607 592Q607 604 606 610Q518 593 420
593Z" />
</font>
</defs>
</svg>
