<?xml version="1.0" encoding="UTF-8" standalone="no"?>
<!-- Generator: Adobe Illustrator 24.0.2, SVG Export Plug-In . SVG Version: 6.00 Build 0)  -->

<svg
   xmlns:dc="http://purl.org/dc/elements/1.1/"
   xmlns:cc="http://creativecommons.org/ns#"
   xmlns:rdf="http://www.w3.org/1999/02/22-rdf-syntax-ns#"
   xmlns:svg="http://www.w3.org/2000/svg"
   xmlns="http://www.w3.org/2000/svg"
   xmlns:sodipodi="http://sodipodi.sourceforge.net/DTD/sodipodi-0.dtd"
   xmlns:inkscape="http://www.inkscape.org/namespaces/inkscape"
   version="1.1"
   id="Layer_1"
   x="0px"
   y="0px"
   viewBox="0 0 677.38379 200.85753"
   xml:space="preserve"
   sodipodi:docname="highschool_2020.svg"
   inkscape:version="0.92.4 (f8dce91, 2019-08-02)"
   width="677.38379"
   height="200.85753"><metadata
   id="metadata55"><rdf:RDF><cc:Work
       rdf:about=""><dc:format>image/svg+xml</dc:format><dc:type
         rdf:resource="http://purl.org/dc/dcmitype/StillImage" /><dc:title></dc:title></cc:Work></rdf:RDF></metadata><defs
   id="defs53" /><sodipodi:namedview
   pagecolor="#ffffff"
   bordercolor="#666666"
   borderopacity="1"
   objecttolerance="10"
   gridtolerance="10"
   guidetolerance="10"
   inkscape:pageopacity="0"
   inkscape:pageshadow="2"
   inkscape:window-width="3700"
   inkscape:window-height="2032"
   id="namedview51"
   showgrid="false"
   inkscape:zoom="2.2626263"
   inkscape:cx="348.97"
   inkscape:cy="90.147525"
   inkscape:window-x="140"
   inkscape:window-y="54"
   inkscape:window-maximized="1"
   inkscape:current-layer="g48"
   fit-margin-top="0"
   fit-margin-left="0"
   fit-margin-right="0"
   fit-margin-bottom="0" />
<style
   type="text/css"
   id="style2">
	.st0{fill:#FEFEFE;}
	.st1{fill:#040404;}
	.st2{fill:#FCFCFC;}
	.st3{fill:#FBFBFB;}
	.st4{fill:#FAFAFA;}
	.st5{fill:#080808;}
	.st6{fill:#0C0C0C;}
	.st7{fill:#0B0B0B;}
	.st8{fill:#060606;}
	.st9{fill:#030303;}
	.st10{fill:#0E0E0E;}
</style>
<g
   id="g48"
   transform="translate(42.97,-285.29)">
	
	<path
   class="st1"
   d="m 603.15,416.2 c 0.79,0.65 1.49,1.53 2.4,1.9 3.92,1.58 7.92,2.97 11.86,4.51 4.03,1.58 4.43,3.43 1.32,6.54 -4.13,4.14 -8.36,8.19 -12.74,12.46 8.78,8.78 17.24,17.23 25.7,25.69 3.62,3.62 3.62,4.3 0.07,7.87 -2.91,2.92 -5.81,5.84 -8.75,8.74 -3,2.97 -4.12,2.99 -7.1,0.02 -8.57,-8.54 -17.12,-17.12 -26.01,-26.02 -4.12,4.14 -8.11,8.21 -12.15,12.22 -3.63,3.61 -5.44,3.24 -7.21,-1.47 -3.07,-8.15 -6.15,-16.29 -9.12,-24.48 -0.67,-1.86 -1.46,-3.04 -3.66,-2.63 -0.85,0.16 -1.74,0.03 -2.62,0.03 -197.84,0 -395.67,0 -593.51,0 -1.47,0 -2.94,0 -4.6,0 0,-43.35 0,-86.39 0,-129.89 7.99,0 16.01,0 24.32,0 0,-9.01 0,-17.59 0,-26.4 215.55,0 430.82,0 646.39,0 0,43.03 0,86.17 0,129.72 -7.85,0 -15.89,0 -23.93,0 -0.22,0.41 -0.44,0.8 -0.66,1.19 z m -49.03,-10.74 c -0.23,-0.12 -0.46,-0.23 -0.69,-0.35 0.05,0.29 0.09,0.57 0.14,0.86 7.16,19.2 14.32,38.41 21.72,58.27 4.07,-4.14 7.78,-7.81 11.36,-11.61 2.32,-2.46 4.3,-2.34 6.63,0.04 6.2,6.34 12.57,12.52 18.77,18.86 2.41,2.46 4.56,5.18 6.35,7.23 3.32,-3.07 5.85,-5.41 8.5,-7.86 -8.61,-8.6 -17.19,-17.15 -25.75,-25.72 -3.1,-3.1 -3.1,-3.9 0.05,-7.04 3.6,-3.58 7.28,-7.09 11.28,-10.97 -5.97,-2.25 -11.17,-4.23 -16.38,-6.17 -13.99,-5.19 -27.99,-10.36 -41.98,-15.54 z m -563.68,0.2 c 185.54,0 370.79,0 556.3,0 -0.44,-1.3 -0.93,-2.22 -1.02,-3.17 -0.14,-1.61 -0.64,-4.12 0.13,-4.66 1.17,-0.83 3.46,-0.77 5,-0.25 5.89,1.99 11.59,4.53 17.51,6.44 3.37,1.09 6.99,1.82 10.52,1.89 11.99,0.23 23.98,0.09 35.97,0.08 1.31,0 2.62,-0.11 3.98,-0.18 0,-37.45 0,-74.49 0,-111.65 -209.55,0 -418.93,0 -628.38,0 -0.01,37.26 -0.01,74.33 -0.01,111.5 z m -24.54,26.62 c 196.96,0 393.73,0 590.95,0 -1.67,-4.47 -3.51,-8.55 -4.71,-12.81 -0.99,-3.51 -2.84,-4.32 -6.33,-4.31 -186.5,0.09 -373,0.08 -559.49,0.08 -1.57,0 -3.14,0 -5.06,0 0,-31.92 0,-63.33 0,-94.75 -5.3,0 -10.24,0 -15.37,0 0.01,37.32 0.01,74.47 0.01,111.79 z"
   id="path6"
   inkscape:connector-curvature="0"
   style="fill:#040404" />
	<path
   class="st2"
   d="m -9.56,405.66 c 0,-37.18 0,-74.24 0,-111.51 209.45,0 418.83,0 628.38,0 0,37.16 0,74.2 0,111.65 -1.36,0.06 -2.67,0.18 -3.98,0.18 -11.99,0.01 -23.98,0.15 -35.97,-0.08 -3.53,-0.07 -7.15,-0.8 -10.52,-1.89 -5.91,-1.91 -11.62,-4.45 -17.51,-6.44 -1.53,-0.52 -3.82,-0.57 -5,0.25 -0.77,0.54 -0.27,3.05 -0.13,4.66 0.08,0.95 0.58,1.86 1.02,3.17 -185.5,0.01 -370.75,0.01 -556.29,0.01 z m 457.39,-57.44 c 0.03,-13.9 -9.42,-23.75 -22.8,-23.77 -13.38,-0.02 -22.89,9.81 -22.92,23.69 -0.03,13.83 9.51,23.78 22.83,23.8 13.35,0.01 22.86,-9.85 22.89,-23.72 z M 120.76,332.89 c -5.26,-6.28 -11.58,-8.77 -19.18,-8.41 -10.74,0.52 -18.93,7.15 -21.53,17.52 -2.7,10.77 1.64,21.67 10.69,26.87 8.99,5.17 21.25,3.87 28.51,-3.11 0.75,-0.72 1.62,-1.79 1.65,-2.73 0.16,-5.09 0.08,-10.18 0.08,-15.4 -7.29,0 -14.22,0 -21.28,0 0,1.65 0,3.1 0,5.01 5.27,0 10.44,0 15.72,0 0,2.2 -0.22,3.98 0.05,5.68 0.5,3.16 -1.05,4.8 -3.63,6.13 -6.56,3.38 -13.05,3.37 -19.08,-0.89 -6.64,-4.69 -8.34,-11.67 -7.1,-19.27 1.16,-7.05 5.26,-12.09 12.35,-14.04 7.12,-1.96 13.28,0.05 18.38,5.49 1.46,-0.95 2.78,-1.81 4.37,-2.85 z m 226.17,15.12 c -0.07,13.98 9.3,23.89 22.61,23.93 13.36,0.04 22.99,-9.78 23.11,-23.58 0.12,-13.76 -9.43,-23.81 -22.76,-23.91 -13.41,-0.11 -22.89,9.62 -22.96,23.56 z m 255.09,0.09 c -0.02,-13.89 -9.51,-23.7 -22.9,-23.66 -13.31,0.03 -22.87,10.01 -22.83,23.82 0.05,13.82 9.63,23.69 22.98,23.67 13.33,-0.02 22.77,-9.91 22.75,-23.83 z M 302.99,325.37 c -2.21,0 -3.9,0 -5.59,0 0,15.36 0,30.49 0,45.57 1.97,0 3.65,0 5.62,0 0,-7.02 0,-13.83 0,-20.6 9.08,0 17.86,0 26.92,0 0,7.05 0,13.86 0,20.63 1.98,0 3.67,0 5.4,0 0,-15.32 0,-30.46 0,-45.62 -1.97,0 -3.67,0 -5.71,0 0,6.62 0,13.05 0,19.39 -9.04,0 -17.74,0 -26.65,0 0.01,-6.48 0.01,-12.82 0.01,-19.37 z M 10.73,325.33 c 0,15.34 0,30.5 0,45.64 1.9,0 3.59,0 5.6,0 0,-6.98 0,-13.78 0,-20.61 9.11,0 17.89,0 26.98,0 0,7.06 0,13.86 0,20.57 2.01,0 3.7,0 5.42,0 0,-15.29 0,-30.36 0,-45.51 -1.92,0 -3.71,0 -5.74,0 0,6.58 0,12.9 0,19.22 -9.04,0 -17.82,0 -26.86,0 0,-6.57 0,-12.89 0,-19.32 -1.97,0.01 -3.66,0.01 -5.4,0.01 z m 154.82,45.65 c 1.96,0 3.64,0 5.39,0 0,-15.3 0,-30.45 0,-45.56 -1.89,0 -3.56,0 -5.48,0 0,6.56 0,12.88 0,19.28 -9.06,0 -17.85,0 -26.89,0 0,-6.53 0,-12.86 0,-19.26 -2.03,0 -3.8,0 -5.59,0 0,15.32 0,30.38 0,45.45 1.96,0 3.74,0 5.83,0 0,-7.05 0,-13.85 0,-20.63 9.01,0 17.7,0 26.74,0 0,3.49 0,6.83 0,10.17 0,3.47 0,6.93 0,10.55 z m 70.11,-39.88 c -6.33,-7.28 -19.33,-9.01 -26.72,-3.51 -1.72,1.28 -3.29,3.15 -4.18,5.09 -2.91,6.32 -0.07,12.44 7.06,15.19 4.63,1.78 9.5,2.95 14.15,4.67 2.97,1.1 5.14,3.22 4.9,6.74 -0.23,3.52 -2.33,5.66 -5.59,6.72 -1.05,0.34 -2.17,0.56 -3.27,0.67 -6.39,0.64 -11.73,-1.58 -16.29,-6.41 -1.22,1.55 -2.33,2.96 -3.41,4.32 5.89,6.07 14.13,8.61 22.18,7.03 7.42,-1.46 11.8,-5.73 12.34,-12.03 0.55,-6.42 -2.81,-10.75 -10.54,-13.41 -4.11,-1.41 -8.42,-2.37 -12.32,-4.21 -1.8,-0.85 -3.55,-3.13 -4.05,-5.09 -0.72,-2.81 1.29,-5.04 3.89,-6.09 1.79,-0.72 3.99,-1.4 5.77,-1.01 4.47,0.97 8.8,2.55 13.81,4.07 0.3,-0.35 1.3,-1.56 2.27,-2.74 z m 46.99,29.22 c -8.18,7.91 -17.97,8.5 -25.07,1.71 -6.95,-6.65 -7.45,-19.26 -1.01,-26.64 3.1,-3.56 7.06,-5.32 11.76,-5.75 6.01,-0.55 10.5,2.16 14.27,6.45 1.63,-0.95 3.01,-1.75 4.42,-2.57 -6.01,-8.5 -15.86,-11.33 -26,-7.58 -9.8,3.62 -15.74,13.11 -14.96,23.9 0.82,11.37 8.12,19.65 19.22,21.79 8.86,1.71 18.11,-2.16 21.51,-9.07 -1.31,-0.71 -2.62,-1.42 -4.14,-2.24 z m 202.87,5.56 c -7.16,0 -14.18,0 -21.44,0 0,-13.78 0,-27.09 0,-40.48 -1.92,0 -3.58,0 -5.23,0 0,15.34 0,30.47 0,45.53 9.07,0 17.87,0 26.67,0 0,-1.68 0,-3.13 0,-5.05 z M 67.88,325.38 c -1.93,0 -3.72,0 -5.4,0 0,15.39 0,30.54 0,45.55 1.93,0 3.62,0 5.4,0 0,-15.27 0,-30.31 0,-45.55 z m 453.75,45.65 c 0,-15.47 0,-30.61 0,-45.67 -1.85,0 -3.43,0 -5.12,0 0,15.3 0,30.43 0,45.67 1.78,0 3.36,0 5.12,0 z m 28.63,-46.81 c -0.24,-0.33 -0.49,-0.66 -0.73,-0.98 -1.29,0.82 -3.36,1.37 -3.76,2.5 -5.38,15.46 -10.53,30.99 -15.74,46.51 0.21,0.32 0.42,0.64 0.63,0.95 1.32,-0.83 3.45,-1.37 3.85,-2.52 5.4,-15.44 10.55,-30.96 15.75,-46.46 z"
   id="path8"
   inkscape:connector-curvature="0"
   style="fill:#fcfcfc" />
	<path
   class="st3"
   d="m -34.1,432.28 c 0,-37.32 0,-74.47 0,-111.8 5.13,0 10.07,0 15.37,0 0,31.43 0,62.84 0,94.75 1.91,0 3.49,0 5.06,0 186.5,0 373,0.01 559.49,-0.08 3.49,0 5.34,0.8 6.33,4.31 1.2,4.26 3.03,8.34 4.71,12.81 -197.24,0.01 -394.01,0.01 -590.96,0.01 z"
   id="path10"
   inkscape:connector-curvature="0"
   style="fill:#fbfbfb" />
	<path
   class="st4"
   d="m 554.12,405.46 c 14,5.18 27.99,10.35 41.98,15.54 5.22,1.94 10.42,3.92 16.38,6.17 -4,3.88 -7.68,7.39 -11.28,10.97 -3.16,3.14 -3.15,3.94 -0.05,7.04 8.55,8.57 17.13,17.12 25.75,25.72 -2.66,2.46 -5.18,4.79 -8.5,7.86 -1.79,-2.06 -3.94,-4.77 -6.35,-7.23 -6.2,-6.34 -12.57,-12.52 -18.77,-18.86 -2.33,-2.38 -4.31,-2.5 -6.63,-0.04 -3.58,3.8 -7.29,7.47 -11.36,11.61 -7.41,-19.87 -14.56,-39.07 -21.72,-58.27 0.18,-0.17 0.36,-0.34 0.55,-0.51 z"
   id="path12"
   inkscape:connector-curvature="0"
   style="fill:#fafafa" />
	<path
   class="st4"
   d="m 553.57,405.97 c -0.05,-0.29 -0.09,-0.57 -0.14,-0.86 0.23,0.12 0.46,0.23 0.69,0.35 -0.19,0.17 -0.37,0.34 -0.55,0.51 z"
   id="path14"
   inkscape:connector-curvature="0"
   style="fill:#fafafa" />
	<path
   class="st5"
   d="m 447.83,348.22 c -0.03,13.87 -9.54,23.73 -22.89,23.71 -13.32,-0.01 -22.86,-9.96 -22.83,-23.8 0.03,-13.88 9.54,-23.71 22.92,-23.69 13.38,0.03 22.83,9.88 22.8,23.78 z m -6,0.83 c 0.47,-8.49 -3.81,-15.86 -10.68,-18.39 -8.39,-3.1 -17.26,0.27 -20.96,7.96 -4.41,9.18 -1.63,21.08 5.96,25.78 8.75,5.42 24.85,2.34 25.68,-15.35 z"
   id="path16"
   inkscape:connector-curvature="0"
   style="fill:#080808" />
	<path
   class="st5"
   d="m 120.76,332.89 c -1.59,1.04 -2.91,1.9 -4.37,2.85 -5.1,-5.43 -11.26,-7.45 -18.38,-5.49 -7.08,1.95 -11.19,7 -12.35,14.04 -1.25,7.59 0.45,14.57 7.1,19.27 6.03,4.26 12.52,4.27 19.08,0.89 2.57,-1.32 4.13,-2.97 3.63,-6.13 -0.27,-1.7 -0.05,-3.48 -0.05,-5.68 -5.28,0 -10.45,0 -15.72,0 0,-1.91 0,-3.36 0,-5.01 7.07,0 13.99,0 21.28,0 0,5.22 0.08,10.31 -0.08,15.4 -0.03,0.93 -0.9,2 -1.65,2.73 -7.26,6.98 -19.52,8.29 -28.51,3.11 -9.05,-5.21 -13.38,-16.1 -10.69,-26.87 2.6,-10.37 10.78,-17 21.53,-17.52 7.6,-0.36 13.92,2.13 19.18,8.41 z"
   id="path18"
   inkscape:connector-curvature="0"
   style="fill:#080808" />
	<path
   class="st5"
   d="m 346.93,348.01 c 0.07,-13.94 9.55,-23.67 22.96,-23.56 13.33,0.11 22.88,10.15 22.76,23.91 -0.12,13.8 -9.75,23.61 -23.11,23.58 -13.31,-0.04 -22.68,-9.96 -22.61,-23.93 z m 22.91,18.74 c 9.83,-0.06 16.82,-7.76 16.85,-18.54 0.03,-10.86 -7.25,-18.83 -17.12,-18.74 -9.99,0.09 -16.81,7.87 -16.66,19.01 0.15,11.05 6.91,18.34 16.93,18.27 z"
   id="path20"
   inkscape:connector-curvature="0"
   style="fill:#080808" />
	<path
   class="st5"
   d="m 602.02,348.1 c 0.02,13.91 -9.42,23.81 -22.74,23.83 -13.35,0.02 -22.94,-9.85 -22.98,-23.67 -0.05,-13.81 9.51,-23.79 22.83,-23.82 13.38,-0.03 22.86,9.77 22.89,23.66 z m -5.97,1.24 c 0,-9.65 -4.1,-16.3 -10.81,-18.72 -8.48,-3.06 -17.16,0.32 -20.85,8.12 -4.41,9.32 -1.68,21.13 6.1,25.68 5.59,3.27 11.44,3.35 17.07,0.15 6.3,-3.57 8.34,-9.54 8.49,-15.23 z"
   id="path22"
   inkscape:connector-curvature="0"
   style="fill:#080808" />
	<path
   class="st6"
   d="m 302.99,325.37 c 0,6.55 0,12.88 0,19.37 8.91,0 17.61,0 26.65,0 0,-6.34 0,-12.77 0,-19.39 2.03,0 3.73,0 5.71,0 0,15.16 0,30.3 0,45.62 -1.73,0 -3.42,0 -5.4,0 0,-6.77 0,-13.59 0,-20.63 -9.06,0 -17.85,0 -26.92,0 0,6.78 0,13.59 0,20.6 -1.97,0 -3.65,0 -5.62,0 0,-15.08 0,-30.21 0,-45.57 1.68,0 3.37,0 5.58,0 z"
   id="path24"
   inkscape:connector-curvature="0"
   style="fill:#0c0c0c" />
	<path
   class="st7"
   d="m 10.73,325.33 c 1.74,0 3.43,0 5.4,0 0,6.43 0,12.75 0,19.32 9.04,0 17.82,0 26.86,0 0,-6.32 0,-12.64 0,-19.22 2.04,0 3.82,0 5.74,0 0,15.15 0,30.22 0,45.51 -1.72,0 -3.4,0 -5.42,0 0,-6.72 0,-13.52 0,-20.57 -9.1,0 -17.88,0 -26.98,0 0,6.83 0,13.63 0,20.61 -2.01,0 -3.7,0 -5.6,0 0,-15.15 0,-30.31 0,-45.65 z"
   id="path26"
   inkscape:connector-curvature="0"
   style="fill:#0b0b0b" />
	<path
   class="st8"
   d="m 165.55,370.98 c 0,-3.62 0,-7.09 0,-10.55 0,-3.34 0,-6.68 0,-10.17 -9.04,0 -17.74,0 -26.74,0 0,6.78 0,13.58 0,20.63 -2.08,0 -3.86,0 -5.83,0 0,-15.07 0,-30.13 0,-45.45 1.79,0 3.56,0 5.59,0 0,6.4 0,12.72 0,19.26 9.03,0 17.82,0 26.89,0 0,-6.4 0,-12.71 0,-19.28 1.93,0 3.59,0 5.48,0 0,15.11 0,30.26 0,45.56 -1.75,0 -3.43,0 -5.39,0 z"
   id="path28"
   inkscape:connector-curvature="0"
   style="fill:#060606" />
	<path
   class="st5"
   d="m 235.66,331.1 c -0.97,1.18 -1.97,2.4 -2.26,2.75 -5.01,-1.52 -9.34,-3.1 -13.81,-4.07 -1.78,-0.38 -3.97,0.29 -5.77,1.01 -2.6,1.05 -4.62,3.28 -3.89,6.09 0.5,1.96 2.25,4.24 4.05,5.09 3.9,1.84 8.21,2.8 12.32,4.21 7.73,2.66 11.1,6.98 10.54,13.41 -0.54,6.31 -4.92,10.58 -12.34,12.03 -8.05,1.58 -16.29,-0.96 -22.18,-7.03 1.08,-1.36 2.19,-2.77 3.41,-4.32 4.55,4.83 9.9,7.04 16.29,6.41 1.1,-0.11 2.22,-0.33 3.27,-0.67 3.25,-1.05 5.35,-3.2 5.59,-6.72 0.23,-3.52 -1.93,-5.65 -4.9,-6.74 -4.66,-1.72 -9.52,-2.89 -14.15,-4.67 -7.13,-2.75 -9.97,-8.87 -7.06,-15.19 0.89,-1.94 2.46,-3.81 4.18,-5.09 7.37,-5.51 20.38,-3.79 26.71,3.5 z"
   id="path30"
   inkscape:connector-curvature="0"
   style="fill:#080808" />
	<path
   class="st5"
   d="m 282.65,360.32 c 1.53,0.82 2.83,1.53 4.13,2.23 -3.4,6.91 -12.64,10.78 -21.51,9.07 -11.1,-2.14 -18.4,-10.42 -19.22,-21.79 -0.78,-10.79 5.16,-20.28 14.96,-23.9 10.14,-3.74 19.98,-0.91 26,7.58 -1.4,0.81 -2.79,1.62 -4.42,2.57 -3.77,-4.29 -8.26,-7 -14.27,-6.45 -4.7,0.43 -8.66,2.19 -11.76,5.75 -6.44,7.38 -5.94,19.99 1.01,26.64 7.1,6.8 16.9,6.21 25.08,-1.7 z"
   id="path32"
   inkscape:connector-curvature="0"
   style="fill:#080808" />
	<path
   class="st9"
   d="m 485.52,365.88 c 0,1.92 0,3.37 0,5.05 -8.8,0 -17.61,0 -26.67,0 0,-15.05 0,-30.18 0,-45.53 1.65,0 3.31,0 5.23,0 0,13.39 0,26.7 0,40.48 7.26,0 14.28,0 21.44,0 z"
   id="path34"
   inkscape:connector-curvature="0"
   style="fill:#030303" />
	<path
   class="st10"
   d="m 67.88,325.38 c 0,15.24 0,30.28 0,45.55 -1.79,0 -3.47,0 -5.4,0 0,-15.01 0,-30.17 0,-45.55 1.68,0 3.47,0 5.4,0 z"
   id="path36"
   inkscape:connector-curvature="0"
   style="fill:#0e0e0e" />
	<path
   d="m 521.63,371.03 c -1.75,0 -3.33,0 -5.12,0 0,-15.24 0,-30.37 0,-45.67 1.69,0 3.27,0 5.12,0 0,15.06 0,30.2 0,45.67 z"
   id="path38"
   inkscape:connector-curvature="0" />
	<path
   class="st10"
   d="m 550.26,324.22 c -5.21,15.5 -10.36,31.02 -15.75,46.46 -0.4,1.15 -2.53,1.7 -3.85,2.52 -0.21,-0.32 -0.42,-0.64 -0.63,-0.95 5.21,-15.52 10.36,-31.05 15.74,-46.51 0.39,-1.13 2.47,-1.68 3.76,-2.5 0.25,0.33 0.49,0.65 0.73,0.98 z"
   id="path40"
   inkscape:connector-curvature="0"
   style="fill:#0e0e0e" />
	<path
   class="st3"
   d="m 441.83,349.05 c -0.82,17.69 -16.92,20.77 -25.68,15.34 -7.59,-4.7 -10.37,-16.6 -5.96,-25.78 3.69,-7.68 12.57,-11.05 20.96,-7.96 6.87,2.54 11.15,9.91 10.68,18.4 z"
   id="path42"
   inkscape:connector-curvature="0"
   style="fill:#fbfbfb" />
	<path
   class="st3"
   d="m 369.84,366.75 c -10.02,0.07 -16.79,-7.23 -16.93,-18.26 -0.15,-11.14 6.67,-18.92 16.66,-19.01 9.87,-0.09 17.15,7.88 17.12,18.74 -0.03,10.78 -7.02,18.47 -16.85,18.53 z"
   id="path44"
   inkscape:connector-curvature="0"
   style="fill:#fbfbfb" />
	<path
   class="st3"
   d="m 596.05,349.34 c -0.15,5.69 -2.19,11.66 -8.49,15.23 -5.63,3.19 -11.48,3.11 -17.07,-0.15 -7.78,-4.55 -10.52,-16.35 -6.1,-25.68 3.69,-7.8 12.37,-11.18 20.85,-8.12 6.71,2.43 10.81,9.07 10.81,18.72 z"
   id="path46"
   inkscape:connector-curvature="0"
   style="fill:#fbfbfb" />
</g>
</svg>