<?xml version="1.0" encoding="UTF-8" standalone="no"?>
<!-- Created with Inkscape (http://www.inkscape.org/) -->

<svg
   xmlns:dc="http://purl.org/dc/elements/1.1/"
   xmlns:cc="http://creativecommons.org/ns#"
   xmlns:rdf="http://www.w3.org/1999/02/22-rdf-syntax-ns#"
   xmlns:svg="http://www.w3.org/2000/svg"
   xmlns="http://www.w3.org/2000/svg"
   xmlns:sodipodi="http://sodipodi.sourceforge.net/DTD/sodipodi-0.dtd"
   xmlns:inkscape="http://www.inkscape.org/namespaces/inkscape"
   width="312.1138mm"
   height="114.71814mm"
   viewBox="0 0 1105.915 406.48159"
   id="svg2"
   version="1.1"
   inkscape:version="0.91 r13725"
   sodipodi:docname="OHIO Logo with Subtitle.svg">
  <defs
     id="defs4" />
  <sodipodi:namedview
     id="base"
     pagecolor="#ffffff"
     bordercolor="#666666"
     borderopacity="1.0"
     inkscape:pageopacity="0.0"
     inkscape:pageshadow="2"
     inkscape:zoom="0.35"
     inkscape:cx="1001.0154"
     inkscape:cy="265.79563"
     inkscape:document-units="px"
     inkscape:current-layer="layer1"
     showgrid="false"
     fit-margin-top="0"
     fit-margin-left="0"
     fit-margin-right="0"
     fit-margin-bottom="0"
     inkscape:window-width="1920"
     inkscape:window-height="1116"
     inkscape:window-x="1912"
     inkscape:window-y="-8"
     inkscape:window-maximized="1" />
  <metadata
     id="metadata7">
    <rdf:RDF>
      <cc:Work
         rdf:about="">
        <dc:format>image/svg+xml</dc:format>
        <dc:type
           rdf:resource="http://purl.org/dc/dcmitype/StillImage" />
        <dc:title></dc:title>
      </cc:Work>
    </rdf:RDF>
  </metadata>
  <g
     inkscape:label="Layer 1"
     inkscape:groupmode="layer"
     id="layer1"
     transform="translate(-35.413155,-928.81909)">
    <rect
       style="opacity:1;fill:#000000;fill-opacity:1;stroke:none;stroke-width:0.05;stroke-miterlimit:4;stroke-dasharray:none;stroke-opacity:1"
       id="rect16233-8-1-0"
       width="1105.915"
       height="406.4816"
       x="35.413155"
       y="928.81909" />
    <g
       style="font-style:normal;font-weight:normal;font-size:40px;line-height:0%;font-family:sans-serif;letter-spacing:0px;word-spacing:0px;fill:#ffffff;fill-opacity:1;stroke:none;stroke-width:1px;stroke-linecap:butt;stroke-linejoin:miter;stroke-opacity:1"
       id="text16260-33-4">
      <path
         d="m 121.04816,1266.2772 q -5.63964,0 -8.97216,4.2041 -3.30689,4.2041 -3.30689,11.4588 0,7.229 3.30689,11.4331 3.33252,4.2041 8.97216,4.2041 5.63965,0 8.9209,-4.2041 3.30689,-4.2041 3.30689,-11.4331 0,-7.2547 -3.30689,-11.4588 -3.28125,-4.2041 -8.9209,-4.2041 z m 0,-4.2041 q 8.04932,0 12.86866,5.409 4.81933,5.3833 4.81933,14.458 0,9.049 -4.81933,14.458 -4.81934,5.3833 -12.86866,5.3833 -8.07495,0 -12.91992,-5.3833 -4.81933,-5.3833 -4.81933,-14.458 0,-9.0747 4.81933,-14.458 4.84497,-5.409 12.91992,-5.409 z"
         style="font-size:52.5px;fill:#ffffff"
         id="path4233" />
      <path
         d="m 146.83674,1262.7653 5.17822,0 0,15.6884 18.81592,0 0,-15.6884 5.17822,0 0,38.2727 -5.17822,0 0,-18.2264 -18.81592,0 0,18.2264 -5.17822,0 0,-38.2727 z"
         style="font-size:52.5px;fill:#ffffff"
         id="path4235" />
      <path
         d="m 186.31428,1262.7653 5.17822,0 0,38.2727 -5.17822,0 0,-38.2727 z"
         style="font-size:52.5px;fill:#ffffff"
         id="path4237" />
      <path
         d="m 217.33234,1266.2772 q -5.63964,0 -8.97216,4.2041 -3.30689,4.2041 -3.30689,11.4588 0,7.229 3.30689,11.4331 3.33252,4.2041 8.97216,4.2041 5.63965,0 8.9209,-4.2041 3.30689,-4.2041 3.30689,-11.4331 0,-7.2547 -3.30689,-11.4588 -3.28125,-4.2041 -8.9209,-4.2041 z m 0,-4.2041 q 8.04932,0 12.86866,5.409 4.81933,5.3833 4.81933,14.458 0,9.049 -4.81933,14.458 -4.81934,5.3833 -12.86866,5.3833 -8.07495,0 -12.91992,-5.3833 -4.81933,-5.3833 -4.81933,-14.458 0,-9.0747 4.81933,-14.458 4.84497,-5.409 12.91992,-5.409 z"
         style="font-size:52.5px;fill:#ffffff"
         id="path4239" />
      <path
         d="m 282.7779,1264.0214 0,5.05 q -2.948,-1.4099 -5.56274,-2.102 -2.61475,-0.6922 -5.05005,-0.6922 -4.22974,0 -6.53687,1.6406 -2.28149,1.6407 -2.28149,4.6656 0,2.5378 1.51245,3.8452 1.53809,1.2817 5.79346,2.0764 l 3.12744,0.6409 q 5.79345,1.1023 8.53637,3.8965 2.76856,2.7685 2.76856,7.434 0,5.5628 -3.74268,8.4339 -3.71704,2.8711 -10.92041,2.8711 -2.71728,0 -5.79345,-0.6153 -3.05054,-0.6152 -6.33179,-1.82 l 0,-5.3321 q 3.15308,1.7688 6.17798,2.6661 3.0249,0.8972 5.94726,0.8972 4.43482,0 6.84449,-1.7432 2.40966,-1.7432 2.40966,-4.9731 0,-2.8199 -1.74316,-4.4092 -1.71753,-1.5894 -5.66528,-2.3841 l -3.15308,-0.6152 q -5.79346,-1.1535 -8.38257,-3.6145 -2.58911,-2.4609 -2.58911,-6.8445 0,-5.0757 3.56323,-7.998 3.58887,-2.9224 9.86939,-2.9224 2.69165,0 5.48584,0.4871 2.79419,0.487 5.71655,1.4612 z"
         style="font-size:52.5px;fill:#ffffff"
         id="path4241" />
      <path
         d="m 287.85358,1262.7653 32.37671,0 0,4.3579 -13.58642,0 0,33.9148 -5.20386,0 0,-33.9148 -13.58643,0 0,-4.3579 z"
         style="font-size:52.5px;fill:#ffffff"
         id="path4243" />
      <path
         d="m 333.94489,1267.8666 -7.02392,19.0466 14.07348,0 -7.04956,-19.0466 z m -2.92236,-5.1013 5.87036,0 14.58618,38.2727 -5.3833,0 -3.48633,-9.8182 -17.25219,0 -3.48633,9.8182 -5.46021,0 14.61182,-38.2727 z"
         style="font-size:52.5px;fill:#ffffff"
         id="path4245" />
      <path
         d="m 347.63386,1262.7653 32.37671,0 0,4.3579 -13.58643,0 0,33.9148 -5.20386,0 0,-33.9148 -13.58642,0 0,-4.3579 z"
         style="font-size:52.5px;fill:#ffffff"
         id="path4247" />
      <path
         d="m 385.03498,1262.7653 24.19922,0 0,4.3579 -19.021,0 0,11.3305 18.22632,0 0,4.3579 -18.22632,0 0,13.8685 19.48243,0 0,4.3579 -24.66065,0 0,-38.2727 z"
         style="font-size:52.5px;fill:#ffffff"
         id="path4249" />
      <path
         d="m 422.51301,1262.7653 0,14.2273 -4.35791,0 0,-14.2273 4.35791,0 z"
         style="font-size:52.5px;fill:#ffffff"
         id="path4251" />
      <path
         d="m 455.65876,1264.0214 0,5.05 q -2.948,-1.4099 -5.56274,-2.102 -2.61475,-0.6922 -5.05005,-0.6922 -4.22974,0 -6.53687,1.6406 -2.28149,1.6407 -2.28149,4.6656 0,2.5378 1.51245,3.8452 1.53808,1.2817 5.79346,2.0764 l 3.12744,0.6409 q 5.79345,1.1023 8.53637,3.8965 2.76856,2.7685 2.76856,7.434 0,5.5628 -3.74268,8.4339 -3.71704,2.8711 -10.92041,2.8711 -2.71728,0 -5.79345,-0.6153 -3.05054,-0.6152 -6.33179,-1.82 l 0,-5.3321 q 3.15308,1.7688 6.17798,2.6661 3.0249,0.8972 5.94726,0.8972 4.43482,0 6.84449,-1.7432 2.40966,-1.7432 2.40966,-4.9731 0,-2.8199 -1.74316,-4.4092 -1.71753,-1.5894 -5.66528,-2.3841 l -3.15308,-0.6152 q -5.79346,-1.1535 -8.38257,-3.6145 -2.58911,-2.4609 -2.58911,-6.8445 0,-5.0757 3.56323,-7.998 3.58887,-2.9224 9.86939,-2.9224 2.69165,0 5.48584,0.4871 2.79419,0.487 5.71655,1.4612 z"
         style="font-size:52.5px;fill:#ffffff"
         id="path4253" />
      <path
         d="m 482.75471,1262.7653 5.17822,0 0,15.6884 18.81592,0 0,-15.6884 5.17822,0 0,38.2727 -5.17822,0 0,-18.2264 -18.81592,0 0,18.2264 -5.17822,0 0,-38.2727 z"
         style="font-size:52.5px;fill:#ffffff"
         id="path4255" />
      <path
         d="m 535.02399,1267.8666 -7.02392,19.0466 14.07348,0 -7.04956,-19.0466 z m -2.92236,-5.1013 5.87036,0 14.58618,38.2727 -5.3833,0 -3.48632,-9.8182 -17.2522,0 -3.48633,9.8182 -5.46021,0 14.61182,-38.2727 z"
         style="font-size:52.5px;fill:#ffffff"
         id="path4257" />
      <path
         d="m 585.85773,1265.7133 0,5.4602 q -2.61474,-2.4353 -5.58837,-3.6402 -2.948,-1.2048 -6.28052,-1.2048 -6.5625,0 -10.04883,4.0246 -3.48633,3.9991 -3.48633,11.587 0,7.5622 3.48633,11.5869 3.48633,3.999 10.04883,3.999 3.33252,0 6.28052,-1.2048 2.97363,-1.2049 5.58837,-3.6402 l 0,5.409 q -2.71728,1.8457 -5.76782,2.7685 -3.0249,0.9229 -6.40869,0.9229 -8.69018,0 -13.68896,-5.3064 -4.99878,-5.3321 -4.99878,-14.5349 0,-9.2286 4.99878,-14.5349 4.99878,-5.3321 13.68896,-5.3321 3.43506,0 6.45996,0.9229 3.05054,0.8972 5.71655,2.7173 z"
         style="font-size:52.5px;fill:#ffffff"
         id="path4259" />
      <path
         d="m 593.90705,1262.7653 5.17822,0 0,16.1755 17.1753,-16.1755 6.66504,0 -18.99537,17.8418 20.35401,20.4309 -6.81885,0 -18.38013,-18.4314 0,18.4314 -5.17822,0 0,-38.2727 z"
         style="font-size:52.5px;fill:#ffffff"
         id="path4261" />
      <path
         d="m 640.22907,1267.8666 -7.02392,19.0466 14.07348,0 -7.04956,-19.0466 z m -2.92236,-5.1013 5.87036,0 14.58618,38.2727 -5.3833,0 -3.48633,-9.8182 -17.25219,0 -3.48633,9.8182 -5.46021,0 14.61182,-38.2727 z"
         style="font-size:52.5px;fill:#ffffff"
         id="path4263" />
      <path
         d="m 653.91804,1262.7653 32.37671,0 0,4.3579 -13.58643,0 0,33.9148 -5.20386,0 0,-33.9148 -13.58642,0 0,-4.3579 z"
         style="font-size:52.5px;fill:#ffffff"
         id="path4265" />
      <path
         d="m 691.31916,1262.7653 5.17822,0 0,15.6884 18.81592,0 0,-15.6884 5.17822,0 0,38.2727 -5.17822,0 0,-18.2264 -18.81592,0 0,18.2264 -5.17822,0 0,-38.2727 z"
         style="font-size:52.5px;fill:#ffffff"
         id="path4267" />
      <path
         d="m 746.33137,1266.2772 q -5.63965,0 -8.97217,4.2041 -3.30689,4.2041 -3.30689,11.4588 0,7.229 3.30689,11.4331 3.33252,4.2041 8.97217,4.2041 5.63965,0 8.9209,-4.2041 3.30688,-4.2041 3.30688,-11.4331 0,-7.2547 -3.30688,-11.4588 -3.28125,-4.2041 -8.9209,-4.2041 z m 0,-4.2041 q 8.04931,0 12.86865,5.409 4.81934,5.3833 4.81934,14.458 0,9.049 -4.81934,14.458 -4.81934,5.3833 -12.86865,5.3833 -8.07495,0 -12.91992,-5.3833 -4.81934,-5.3833 -4.81934,-14.458 0,-9.0747 4.81934,-14.458 4.84497,-5.409 12.91992,-5.409 z"
         style="font-size:52.5px;fill:#ffffff"
         id="path4269" />
      <path
         d="m 772.11994,1262.7653 6.97266,0 16.97021,32.0178 0,-32.0178 5.02442,0 0,38.2727 -6.97266,0 -16.97021,-32.0179 0,32.0179 -5.02442,0 0,-38.2727 z"
         style="font-size:52.5px;fill:#ffffff"
         id="path4271" />
      <path
         d="m 833.28449,1267.0206 0,14.3811 6.51123,0 q 3.6145,0 5.58838,-1.8713 1.97388,-1.8713 1.97388,-5.332 0,-3.4351 -1.97388,-5.3064 -1.97388,-1.8714 -5.58838,-1.8714 l -6.51123,0 z m -5.17822,-4.2553 11.68945,0 q 6.43433,0 9.71558,2.9223 3.30688,2.8968 3.30688,8.5108 0,5.6652 -3.30688,8.562 -3.28125,2.8967 -9.71558,2.8967 l -6.51123,0 0,15.3809 -5.17822,0 0,-38.2727 z"
         style="font-size:52.5px;fill:#ffffff"
         id="path4273" />
      <path
         d="m 877.94025,1283.0936 q 1.66626,0.564 3.22998,2.4097 1.58936,1.8457 3.17872,5.0757 l 5.25512,10.459 -5.56274,0 -4.89624,-9.8182 q -1.89697,-3.8452 -3.69141,-5.1013 -1.7688,-1.2561 -4.84497,-1.2561 l -5.63965,0 0,16.1756 -5.17822,0 0,-38.2727 11.68945,0 q 6.5625,0 9.79248,2.7429 3.22998,2.7429 3.22998,8.28 0,3.6145 -1.69189,5.9985 -1.66626,2.3841 -4.87061,3.3069 z m -12.97119,-16.073 0,13.5865 6.51123,0 q 3.74268,0 5.63965,-1.7176 1.92261,-1.7431 1.92261,-5.1013 0,-3.3581 -1.92261,-5.05 -1.89697,-1.7176 -5.63965,-1.7176 l -6.51123,0 z"
         style="font-size:52.5px;fill:#ffffff"
         id="path4275" />
      <path
         d="m 911.82941,1266.2772 q -5.63964,0 -8.97216,4.2041 -3.30689,4.2041 -3.30689,11.4588 0,7.229 3.30689,11.4331 3.33252,4.2041 8.97216,4.2041 5.63965,0 8.9209,-4.2041 3.30689,-4.2041 3.30689,-11.4331 0,-7.2547 -3.30689,-11.4588 -3.28125,-4.2041 -8.9209,-4.2041 z m 0,-4.2041 q 8.04932,0 12.86866,5.409 4.81933,5.3833 4.81933,14.458 0,9.049 -4.81933,14.458 -4.81934,5.3833 -12.86866,5.3833 -8.07495,0 -12.91992,-5.3833 -4.81933,-5.3833 -4.81933,-14.458 0,-9.0747 4.81933,-14.458 4.84497,-5.409 12.91992,-5.409 z"
         style="font-size:52.5px;fill:#ffffff"
         id="path4277" />
      <path
         d="m 963.71418,1295.5778 0,-10.2796 -8.45947,0 0,-4.2554 13.58642,0 0,16.4319 q -2.99926,2.1277 -6.61377,3.23 -3.6145,1.0767 -7.71606,1.0767 -8.97217,0 -14.04785,-5.2295 -5.05005,-5.2551 -5.05005,-14.6118 0,-9.3824 5.05005,-14.6119 5.07568,-5.2551 14.04785,-5.2551 3.74267,0 7.10083,0.9229 3.38379,0.9228 6.22925,2.7173 l 0,5.5114 q -2.8711,-2.4353 -6.10108,-3.6657 -3.22998,-1.2305 -6.79321,-1.2305 -7.02393,0 -10.56152,3.9221 -3.51197,3.9221 -3.51197,11.6895 0,7.7417 3.51197,11.6638 3.53759,3.9221 10.56152,3.9221 2.74292,0 4.89624,-0.4614 2.15332,-0.4871 3.87085,-1.4868 z"
         style="font-size:52.5px;fill:#ffffff"
         id="path4279" />
      <path
         d="m 996.47541,1283.0936 q 1.66626,0.564 3.22998,2.4097 1.58931,1.8457 3.17871,5.0757 l 5.2551,10.459 -5.5627,0 -4.89626,-9.8182 q -1.89697,-3.8452 -3.6914,-5.1013 -1.7688,-1.2561 -4.84497,-1.2561 l -5.63965,0 0,16.1756 -5.17822,0 0,-38.2727 11.68945,0 q 6.5625,0 9.79248,2.7429 3.22997,2.7429 3.22997,8.28 0,3.6145 -1.6919,5.9985 -1.66624,2.3841 -4.87059,3.3069 z m -12.97119,-16.073 0,13.5865 6.51123,0 q 3.74268,0 5.63965,-1.7176 1.92261,-1.7431 1.92261,-5.1013 0,-3.3581 -1.92261,-5.05 -1.89697,-1.7176 -5.63965,-1.7176 l -6.51123,0 z"
         style="font-size:52.5px;fill:#ffffff"
         id="path4281" />
      <path
         d="m 1025.4683,1267.8666 -7.0239,19.0466 14.0735,0 -7.0496,-19.0466 z m -2.9223,-5.1013 5.8703,0 14.5862,38.2727 -5.3833,0 -3.4863,-9.8182 -17.2522,0 -3.4863,9.8182 -5.4602,0 14.6118,-38.2727 z"
         style="font-size:52.5px;fill:#ffffff"
         id="path4283" />
      <path
         d="m 1048.5653,1262.7653 7.716,0 9.7669,26.0449 9.8181,-26.0449 7.716,0 0,38.2727 -5.05,0 0,-33.6072 -9.8694,26.25 -5.2038,0 -9.8694,-26.25 0,33.6072 -5.0244,0 0,-38.2727 z"
         style="font-size:52.5px;fill:#ffffff"
         id="path4285" />
    </g>
    <g
       style="font-style:normal;font-weight:normal;font-size:161.46931458px;line-height:0%;font-family:sans-serif;letter-spacing:0px;word-spacing:0px;fill:#000000;fill-opacity:1;stroke:none;stroke-width:1px;stroke-linecap:butt;stroke-linejoin:miter;stroke-opacity:1"
       id="text16235-9-6-3">
      <path
         d="m 222.39948,1224.412 c 71.57128,0 120.61759,-53.7692 120.61759,-125.3405 0,-71.5713 -49.04631,-125.3406 -120.61759,-125.3406 -71.57129,0 -120.25429,53.7693 -120.25429,125.3406 0,71.5713 48.683,125.3405 120.25429,125.3405 z m 0,-26.8846 c -54.4959,0 -89.00997,-42.1435 -89.00997,-98.4559 0,-56.6758 34.51407,-98.456 89.00997,-98.456 54.13259,0 89.37327,41.7802 89.37327,98.456 0,56.3124 -35.24068,98.4559 -89.37327,98.4559 z"
         style="font-style:normal;font-variant:normal;font-weight:normal;font-stretch:normal;font-size:363.30599976px;font-family:'Proxima Nova';-inkscape-font-specification:'Proxima Nova';fill:#ffffff"
         id="path4222" />
      <path
         d="m 592.10875,1220.0524 0,-242.32513 -30.1544,0 0,104.26883 -141.68934,0 0,-104.26883 -30.1544,0 0,242.32513 30.1544,0 0,-111.1717 141.68934,0 0,111.1717 30.1544,0 z"
         style="font-style:normal;font-variant:normal;font-weight:normal;font-stretch:normal;font-size:363.30599976px;font-family:'Proxima Nova';-inkscape-font-specification:'Proxima Nova';fill:#ffffff"
         id="path4224" />
      <path
         d="m 679.26242,1220.0524 0,-242.32513 -30.1544,0 0,242.32513 30.1544,0 z"
         style="font-style:normal;font-variant:normal;font-weight:normal;font-stretch:normal;font-size:363.30599976px;font-family:'Proxima Nova';-inkscape-font-specification:'Proxima Nova';fill:#ffffff"
         id="path4226" />
      <path
         d="m 728.77423,1227.3185 86.10353,-256.85735 -21.43506,0 -86.10352,256.85735 21.43505,0 z"
         style="font-style:normal;font-variant:normal;font-weight:normal;font-stretch:normal;font-size:363.30599976px;font-family:'Proxima Nova';-inkscape-font-specification:'Proxima Nova';fill:#ffffff"
         id="path4228" />
      <path
         d="m 953.97858,1224.412 c 71.57132,0 120.61762,-53.7692 120.61762,-125.3405 0,-71.5713 -49.0463,-125.3406 -120.61762,-125.3406 -71.57128,0 -120.25429,53.7693 -120.25429,125.3406 0,71.5713 48.68301,125.3405 120.25429,125.3405 z m 0,-26.8846 c -54.4959,0 -89.00997,-42.1435 -89.00997,-98.4559 0,-56.6758 34.51407,-98.456 89.00997,-98.456 54.13262,0 89.37332,41.7802 89.37332,98.456 0,56.3124 -35.2407,98.4559 -89.37332,98.4559 z"
         style="font-style:normal;font-variant:normal;font-weight:normal;font-stretch:normal;font-size:363.30599976px;font-family:'Proxima Nova';-inkscape-font-specification:'Proxima Nova';fill:#ffffff"
         id="path4230" />
    </g>
  </g>
</svg>
