<?xml version="1.0" encoding="utf-8"?>
<!-- Generator: Adobe Illustrator 23.0.3, SVG Export Plug-In . SVG Version: 6.00 Build 0)  -->
<svg version="1.1"
	 id="svg2" xmlns:cc="http://creativecommons.org/ns#" xmlns:dc="http://purl.org/dc/elements/1.1/" xmlns:inkscape="http://www.inkscape.org/namespaces/inkscape" xmlns:rdf="http://www.w3.org/1999/02/22-rdf-syntax-ns#" xmlns:sodipodi="http://sodipodi.sourceforge.net/DTD/sodipodi-0.dtd" xmlns:svg="http://www.w3.org/2000/svg"
	 xmlns="http://www.w3.org/2000/svg" xmlns:xlink="http://www.w3.org/1999/xlink" x="0px" y="0px" viewBox="0 0 794.2 795"
	 style="enable-background:new 0 0 794.2 795;" xml:space="preserve">
<style type="text/css">
	.st0{fill:#FFFFFF;}
</style>
<sodipodi:namedview  bordercolor="#666666" borderopacity="1.0" fit-margin-bottom="0" fit-margin-left="0" fit-margin-right="0" fit-margin-top="0" id="base" inkscape:current-layer="layer1" inkscape:cx="477.06681" inkscape:cy="558.20429" inkscape:document-units="px" inkscape:pageopacity="0.0" inkscape:pageshadow="2" inkscape:window-height="855" inkscape:window-maximized="1" inkscape:window-width="1440" inkscape:window-x="0" inkscape:window-y="1" inkscape:zoom="0.49497475" pagecolor="#ffffff" showgrid="false">
	</sodipodi:namedview>
<g id="layer1" transform="translate(1122.5382,584.50476)" inkscape:groupmode="layer" inkscape:label="Layer 1">
	<path id="path3351-5" class="st0" d="M-749.8-584.5l-0.6,1.8c-0.4,1-5.8,19.4-12,41c-6.2,21.5-11.7,40.2-12.1,41.4
		c-0.6,1.8-1.4,2.3-4.2,2.7c-14.5,2.1-32.6,7-53,14.3l-13.2,4.7l-32.3-29.1c-17.7-16-32.7-29-33.3-28.8
		c-0.6,0.1-26.4,19.9-57.4,43.9l-56.4,43.6l1.5,2.8c0.8,1.5,10.6,19,21.6,38.8l20.1,36l-7.1,11c-8.5,13.1-18.2,30.9-24,44.1
		c-2.3,5.2-4.3,9.6-4.4,9.7c-0.1,0.1-19.4,0.7-42.9,1.4c-23.5,0.7-43.6,1.3-44.6,1.4l-1.9,0.2l-8.5,71.3c-0.2,1.4-0.3,2.2-0.4,3.5
		l3.8-28.2c0.1-0.9,1-1.5,1.9-1.4c0.6,0.1,1.2,0.5,1.4,1.2l5.3,17.6h8.5h20.3h1.7l4.5-17.5c0.2-0.9,1.1-1.4,2-1.2
		c0.6,0.2,1.1,0.7,1.2,1.3l4.4,24.1l8.7-56.5c0.1-0.8,0.8-1.4,1.6-1.4c0.9,0,1.6,0.6,1.7,1.5l10.3,90.8l7.9-57.8
		c0.1-0.9,1-1.5,1.9-1.4c0.6,0.1,1.2,0.5,1.4,1.2l5.3,17.6h28.8v3.3h-30c-0.7,0-1.4-0.5-1.6-1.2l-3.4-11.4l-8.6,63.4
		c-0.1,0.9-1,1.5-1.9,1.4c-0.7-0.1-1.3-0.7-1.4-1.4l-10.4-91.6l-8.3,53.9c-0.1,0.9-1,1.5-1.9,1.4c-0.7-0.1-1.2-0.6-1.4-1.3
		l-4.8-26.4l-2.9,11.5c-0.2,0.7-0.8,1.2-1.6,1.2h-3h-20.3h-9.7c-0.7,0-1.4-0.5-1.6-1.2l-3.4-11.4l-8.6,63.4c-0.1,0.9-1,1.5-1.9,1.4
		c-0.3,0-0.6-0.2-0.8-0.4c-1.6,14.1-2.7,23.5-2.6,23.5c3.3,0.8,85.6,25.2,85.7,25.4c0.1,0.1,1,4.9,2.1,10.5
		c2.1,10.8,4.3,19.8,7.6,30.3l8.3-73.2c0.1-0.9,0.8-1.5,1.7-1.5c0.8,0,1.5,0.6,1.6,1.4l8.6,63.4l3.4-11.4c0.2-0.7,0.9-1.2,1.6-1.2
		h26.2h3.8h19.5c0.8,0,1.4,0.5,1.6,1.2l2.9,11.5l4.8-26.4c0.2-0.9,1-1.5,1.9-1.3c0.7,0.1,1.2,0.7,1.3,1.4l8.3,53.9l10.4-91.6
		c0.1-0.9,0.8-1.5,1.7-1.5c0.8,0,1.5,0.6,1.6,1.4l8.6,63.4l3.4-11.4c0.2-0.7,0.9-1.2,1.6-1.2h30v3.3H-903l-5.3,17.6
		c-0.3,0.9-1.2,1.4-2.1,1.1c-0.6-0.2-1.1-0.7-1.2-1.4l-7.9-57.9l-10.3,90.8c-0.1,0.9-0.9,1.6-1.8,1.5c-0.7-0.1-1.3-0.7-1.4-1.4
		l-8.7-56.5l-4.4,24.1c-0.2,0.9-1,1.5-1.9,1.3c-0.6-0.1-1.1-0.6-1.3-1.2l-4.5-17.5H-972h-3.8h-25l-5.3,17.6
		c-0.3,0.9-1.2,1.4-2.1,1.1c-0.6-0.2-1.1-0.7-1.2-1.4l-7.9-57.9l-7.6,67.2c0.6,1.9,1.3,3.9,2,5.9l5.4,15.4l-29.8,33
		c-16.4,18.2-29.8,33.4-29.9,33.9s19.7,26,43.8,56.7c42.4,53.8,44,55.7,45.9,54.8c1.1-0.5,18.8-10.2,39.2-21.4
		c20.5-11.3,37.6-20.5,38.1-20.4s5.1,2.9,10.4,6.4c15.7,10.3,30.8,18.6,44.9,24.8c3.9,1.7,7.7,3.5,8.3,3.9
		c0.8,0.6,1.7,12.5,3.2,44.4c1.1,24,2.1,43.7,2.1,43.8l0,0c0,0.1,31.9,4,70.8,8.6c48.5,5.8,71,8.2,71.5,7.6
		c0.3-0.4,6.2-19.8,12.9-43l12.3-42.2l13.7-3c17.1-3.8,25.6-6.2,42.8-12.1l13.6-4.6l33,29.9c18.1,16.4,33.2,29.9,33.6,30
		c0.3,0,25.8-19.8,56.6-44.1l56-44.1l-21.6-39.5l-21.6-39.5l8.7-13.3c9.7-14.9,17.4-28.9,23-41.6c3.3-7.6,4-8.5,5.9-8.7
		c0.6-0.1,5.6-0.2,12.5-0.4l-8.2-53.5l-4.4,24.1c-0.2,0.9-1,1.5-1.9,1.3c-0.6-0.1-1.1-0.6-1.3-1.2l-4.5-17.5h-22v-3.3h23.3
		c0.8,0,1.4,0.5,1.6,1.2l2.9,11.5l4.8-26.4c0.2-0.9,1-1.5,1.9-1.3c0.7,0.1,1.2,0.7,1.3,1.4l8.3,53.9l10.4-91.6
		c0.1-0.9,0.8-1.5,1.7-1.5c0.8,0,1.5,0.6,1.6,1.4l8.6,63.4l3.4-11.4c0.2-0.7,0.9-1.2,1.6-1.2h6.7h23.3c0.8,0,1.4,0.5,1.6,1.2
		l2.9,11.5l4.8-26.3c0.2-0.9,1-1.5,1.9-1.3c0.7,0.1,1.2,0.7,1.3,1.4l4.2,27.4l4.4-36.9l8.5-71.6l-42.3-12.4
		c-8.5-2.5-15.1-4.5-21.8-6.4l-6.3,46.7c-0.1,0.9-1,1.5-1.8,1.4c-0.7-0.1-1.3-0.7-1.4-1.4l-5.8-51.2c-3.1-0.9-5.3-1.6-5.4-1.7
		c-0.1-0.1-1.3-6.4-2.8-13.9c0-0.1,0-0.2-0.1-0.3l-4.5,29.5c-0.1,0.9-1,1.5-1.9,1.4c-0.7-0.1-1.2-0.6-1.4-1.3l-4.8-26.3l-2.9,11.4
		c-0.2,0.7-0.8,1.2-1.6,1.2h-7.1l0,0h-30c-0.7,0-1.4-0.5-1.6-1.2l-3.4-11.5l-8.6,63.9c-0.1,0.9-1,1.5-1.9,1.4
		c-0.8-0.1-1.3-0.7-1.4-1.5l-10.4-92.3l-8.3,54.3c-0.1,0.9-1,1.5-1.9,1.4c-0.7-0.1-1.3-0.6-1.4-1.3l-4.8-26.5l-2.9,11.5
		c-0.2,0.7-0.8,1.2-1.6,1.2h-23.3l0,0H-563c-0.7,0-1.4-0.5-1.6-1.2l-3.4-11.4l-8.6,63.4c-0.1,0.9-1,1.5-1.9,1.4
		c-0.7-0.1-1.3-0.7-1.4-1.4l-10.4-91.6l-8.3,53.9c-0.1,0.9-1,1.5-1.9,1.4c-0.7-0.1-1.2-0.6-1.4-1.3l-4.8-26.4l-2.9,11.5
		c-0.2,0.7-0.8,1.2-1.6,1.2h-19.5h-3.8h-26.2c-0.7,0-1.4-0.5-1.6-1.2l-3.4-11.4l-8.6,63.4c-0.1,0.9-1,1.5-1.9,1.4
		c-0.7-0.1-1.3-0.7-1.4-1.4l-10.4-91.6l-8.3,53.9c-0.1,0.9-1,1.5-1.9,1.4c-0.7-0.1-1.2-0.6-1.4-1.3l-4.8-26.4l-2.9,11.5
		c-0.2,0.7-0.8,1.2-1.6,1.2h-23.3v-3.3h22l4.5-17.5c0.2-0.9,1.1-1.4,2-1.2c0.6,0.2,1.1,0.7,1.2,1.3l4.4,24.1l8.7-56.5
		c0.1-0.8,0.8-1.4,1.6-1.4c0.9,0,1.6,0.6,1.7,1.5l10.3,90.8l7.9-57.9c0.1-0.9,1-1.5,1.9-1.4c0.6,0.1,1.2,0.5,1.4,1.2l5.3,17.6h25
		h3.8h18.2l4.5-17.5c0.2-0.9,1.1-1.4,2-1.2c0.6,0.2,1.1,0.7,1.2,1.3l4.4,24.1l8.7-56.5c0.1-0.8,0.8-1.4,1.6-1.4
		c0.9,0,1.6,0.6,1.7,1.5l10.3,90.8l7.9-57.9c0.1-0.9,1-1.5,1.9-1.4c0.6,0.1,1.2,0.5,1.4,1.2l5.3,17.6h19.5l0,0h22l4.5-17.7
		c0.2-0.9,1.1-1.4,2-1.2c0.6,0.2,1.1,0.7,1.2,1.3l4.4,24.2l8.7-56.9c0.1-0.8,0.8-1.4,1.6-1.4c0.9,0,1.6,0.6,1.7,1.5l10.3,91.4
		l7.9-58.3c0.1-0.9,1-1.5,1.9-1.4c0.6,0.1,1.2,0.5,1.4,1.2l5.3,17.7h28.8l0,0h5.8l4.5-17.5c0.2-0.9,1.1-1.4,2-1.2
		c0.6,0.2,1.1,0.7,1.2,1.3l4.3,24l4.3-28.2c-3.1-13.2-7.3-27-11.4-37.6l-3.6-9l29.9-32.4c16.4-17.8,29.8-32.7,29.7-33.1
		c-0.5-1.9-87.3-112.8-88.4-112.9c-0.7-0.1-18.4,9-39.4,20.2c-21,11.1-38.5,20.2-39,20.2c-0.4-0.1-5.9-3.5-12.2-7.6
		c-13.2-8.7-26.9-16.4-40.9-23l-9.9-4.7l-1.9-42.2c-1.1-23.2-2-43-2.1-44.1l-0.2-1.9l-71.2-8.5L-749.8-584.5z M-803.3-287.4
		c17.5,0,35.1,8.3,43.8,23.9c14.1,23.7,8.6,58.8-15.4,74c-8.7,5.6-19.1,8.1-29.4,7.8c-21.5,0.3-42.1-15.3-47.3-36.3
		c-6.6-22.5,1-50.2,22.1-62.4C-821.6-285.1-812.5-287.4-803.3-287.4z M-939.5-285.8c7,0,14.1,0.3,21.1,1.1
		c12.5,2.6,22.1,14.6,21.7,27.4c0.4,9.8-5.5,19.6-13.2,24.6c15.3,9.8,14.8,35.6-0.9,44.8c-7.4,4.6-16.5,4.9-24.9,4.8
		c-13-0.2-26-0.1-39-0.1v-102.5C-963-285.2-951.2-285.8-939.5-285.8z M-884.2-285.6h18.4v102.4h-18.4v-0.8v-0.8V-285.6z
		 M-803.2-270.4c-12,0.2-24,7-28.3,18.6c-6.6,15.4-4.3,36,9.4,47c5.8,4.4,13.2,6.4,20.5,6.1c15.2,0.1,28.4-12.7,30.2-27.6
		c3-15.6-2.7-34.5-18.1-41.3C-793.8-269.6-798.5-270.4-803.2-270.4z M-932.1-268.8c-1,0-1.9,0.1-2.8,0.2h-21.5v26.7
		c9.2,0,18.4-0.1,27.6,0.1c8.8,0.1,15.6-9.4,12.8-17.7C-917.7-266.5-925.4-268.9-932.1-268.8z M-404.3-233.6l4.1,36.6l4.6-34
		C-398.8-232-401.9-232.9-404.3-233.6z M-933.8-225c-1.5,0-2.9,0.1-4.2,0.2h-18.4v24.6c8.9,0,17.9-0.1,26.8,0.1
		c8.7,0.2,14.6-9.4,11.5-17.2C-920.6-223.7-927.5-225-933.8-225z M-606.2-166.7c0.7,0,1.4,0,2.1,0c15.7-0.3,31,8.1,39.5,21.3
		c3.3,3.8-5.3,4.6-7.3,7c-3.5,1.8-7.4,5.9-9.1,0.6c-9.9-13.8-31.4-15.3-44-4.8c-18.9,14.7-17.3,48,3.6,60.4
		c14,8.6,34.6,4.3,42.6-10.5c5.3,2.9,10.6,5.7,15.9,8.6c-1.8,2.5-3.6,5-5.7,7.3c-14.8,18.1-42.8,20.5-62.5,9.3
		c-21.3-11.4-30.2-38.6-23.9-61.1C-649.8-150.7-628.4-166.4-606.2-166.7z M-475.9-165.3c-14.3,16.3-28.7,32.6-43,48.9
		c15.5,17.9,30.9,35.8,46.4,53.7H-496c-11.7-13.8-23.3-27.6-34.9-41.4c-2.7,1.4-3.8,5.4-6.4,7.4c-0.1,11.3,0,22.7-0.1,34.1h-18.4
		V-165h18.4v44.1c12.3-14.3,24.6-28.6,36.9-43c6.5-2.4,14-0.5,20.9-1.1C-478.4-165.1-477.1-165.2-475.9-165.3z M-845.1-165.1h18.4
		v41.3h49.8c0-13.8,0-27.6,0-41.3h18.4v102.4H-777c0-14.7,0-29.4,0-44.1h-49.8v44.1h-18.4v-100.8v-0.8v-0.8H-845.1z M-712.6-165.1
		h19.2c13.7,34.1,27.4,68.3,41.2,102.4h-20.6c-2.8-7.2-5.7-14.3-8.5-21.5h-43.5c-2.8,7.2-5.7,14.3-8.5,21.5h-20.6
		c13.6-33.8,27.3-67.6,40.9-101.4l0.1-0.3L-712.6-165.1z M-403.2-153.8l-10,87.8c5.3-0.2,10.8-0.3,17.5-0.5c17.5-0.5,36-1,41.1-1.2
		l9.2-0.3l2.7-22.5l-4.5-29.4l-4.4,24.1c-0.2,0.9-1,1.5-1.9,1.3c-0.6-0.1-1.1-0.6-1.3-1.2l-4.5-17.5h-22h-5.5l-5.3,17.6
		c-0.3,0.9-1.2,1.4-2.1,1.1c-0.6-0.2-1.1-0.7-1.2-1.4L-403.2-153.8z M-703.1-140.9c-5.2,13.3-10.4,26.6-15.6,39.9h31.4L-703.1-140.9
		z"/>
	<g id="text3353-8-2" transform="matrix(0.9762107,-0.21682404,0.21682404,0.9762107,0,0)">
	</g>
	<g id="text3353-8-2-1" transform="matrix(0.9762107,-0.21682404,0.21682404,0.9762107,0,0)">
	</g>
	<g id="text871" transform="matrix(1,0,0,-1,31.874999,0)">
	</g>
	<g id="text879" transform="translate(-11.57227,10.667967)">
	</g>
</g>
</svg>
