<?xml version="1.0" encoding="UTF-8" standalone="no"?>
<!-- Created with Inkscape (http://www.inkscape.org/) -->

<svg
   xmlns:dc="http://purl.org/dc/elements/1.1/"
   xmlns:cc="http://creativecommons.org/ns#"
   xmlns:rdf="http://www.w3.org/1999/02/22-rdf-syntax-ns#"
   xmlns:svg="http://www.w3.org/2000/svg"
   xmlns="http://www.w3.org/2000/svg"
   xmlns:sodipodi="http://sodipodi.sourceforge.net/DTD/sodipodi-0.dtd"
   xmlns:inkscape="http://www.inkscape.org/namespaces/inkscape"
   width="220.67737mm"
   height="239.35913mm"
   viewBox="0 0 781.92768 848.1229"
   id="svg2"
   version="1.1"
   inkscape:version="0.91 r13725"
   sodipodi:docname="HackOHIO logo  (scarlet - tranparent text).svg"
   inkscape:export-filename="C:\Users\Kayvan\Google Drive\OHIO\HackOHIO 2016\Branding\HackOHIO logo with date (scarlet - tranparent text).png"
   inkscape:export-xdpi="464.54001"
   inkscape:export-ydpi="464.54001">
  <defs
     id="defs4">
    <clipPath
       id="clipPath28"
       clipPathUnits="userSpaceOnUse">
      <path
         inkscape:connector-curvature="0"
         id="path30"
         d="m 0,1000 1000,0 L 1000,0 0,0 0,1000 Z" />
    </clipPath>
  </defs>
  <sodipodi:namedview
     id="base"
     pagecolor="#ffffff"
     bordercolor="#666666"
     borderopacity="1.0"
     inkscape:pageopacity="0.0"
     inkscape:pageshadow="2"
     inkscape:zoom="0.70710678"
     inkscape:cx="201.94381"
     inkscape:cy="452.04429"
     inkscape:document-units="px"
     inkscape:current-layer="layer1"
     showgrid="false"
     fit-margin-top="0"
     fit-margin-left="0"
     fit-margin-right="0"
     fit-margin-bottom="0"
     inkscape:window-width="1920"
     inkscape:window-height="1116"
     inkscape:window-x="-8"
     inkscape:window-y="209"
     inkscape:window-maximized="1" />
  <metadata
     id="metadata7">
    <rdf:RDF>
      <cc:Work
         rdf:about="">
        <dc:format>image/svg+xml</dc:format>
        <dc:type
           rdf:resource="http://purl.org/dc/dcmitype/StillImage" />
        <dc:title></dc:title>
      </cc:Work>
    </rdf:RDF>
  </metadata>
  <g
     inkscape:label="Layer 1"
     inkscape:groupmode="layer"
     id="layer1"
     transform="translate(386.84844,408.14036)">
    <path
       style="fill:#bb0000;fill-opacity:1"
       d="m 27.656258,439.00002 c -0.3454,-0.55897 -1.011,-0.77969 -1.4789,-0.49047 -1.3139,0.81201 -5.011,-4.47079 -5.011,-7.1602 0,-3.891 -2.7274,-9.27514 -5.2016,-10.26847 -3.3092,-1.32856 -7.0384997,-4.96375 -9.8120997,-9.56455 -1.3263,-2.2 -2.9003,-4.50415 -3.4978,-5.12033 -2.48270001,-2.56043 -7.7174,-4.38186 -12.6888003,-4.41511 -11.1879,-0.0748 -16.7997,-7.04926 -16.7997,-20.87892 0,-2.11791 -0.7986,-4.87714 -1.7947,-6.20078 -0.9871,-1.31167 -1.6677,-3.28486 -1.5123,-4.38486 1.6264,-11.51628 1.3447,-12.81065 -3.1492,-14.47306 -1.9956,-0.73822 -7.8471,1.1844 -13.7794,4.52748 -1.8131,1.02174 -3.8854,1.3259 -6.1453,0.90195 -3.4161,-0.64087 -8.6191,1.59317 -8.6191,3.70085 0,1.65628 -5.2567,7.23837 -7.0324,7.46778 -0.5322,0.0688 -1.1926,0.2375 -1.4676,0.375 -0.275,0.1375 -0.8375,0.34511 -1.25,0.46137 -3.8884,1.09585 -8.0997,6.35474 -6.7882,8.47685 0.299,0.48371 -0.7976,2.008 -2.4368,3.3873 -3.3672,2.83329 -10.0347,3.41969 -14.2163,1.25028 -3.4592,-1.79467 -6.784198,-0.98052 -10.179798,2.49259 -3.7148,3.79953 -5.4718,3.45128 -7.1407,-1.41533 -1.3276,-3.87154 -4.5129,-7.65306 -6.4464,-7.65306 -0.573,0 -1.0418,-0.39375 -1.0418,-0.875 0,-0.78176 -2.2587,-1.51375 -8.5,-2.75461 -2.4081,-0.47877 -7.5147,-1.33186 -9.2647,-1.54772 -0.6956,-0.0858 -3.1121,-1.7373 -5.37,-3.67 -3.1457,-2.69252 -5.0708,-3.54501 -8.2353,-3.64667 -2.2715,-0.073 -4.6276,0.23455 -5.2358,0.68339 -0.6081,0.44884 -2.4081,0.96777 -4,1.15317 -7.4133,0.86343 -13.5172,4.70973 -12.5966,7.93764 0.1224,0.4291 -0.4404,2.06207 -1.2506,3.62881 -1.5249,2.94886 -3.8464,4.45826 -5.0326,3.27209 -0.3746,-0.37461 -0.9811,-0.70243 -1.3477,-0.7285 -0.3667,-0.0261 -2.6404,-1.02731 -5.0527,-2.22497 -2.4123,-1.19765 -4.7779,-1.93536 -5.2568,-1.63936 -0.479,0.29601 -2.1428,-0.36749 -3.6974,-1.47445 -2.0473,-1.4578 -2.8265,-2.85589 -2.8265,-5.07138 0,-3.28858 -3.7447,-8.20154 -5.6898,-7.46488 -1.5815,0.59897 -6.9793,-4.22527 -6.1781,-5.52163 0.7734,-1.2513 -1.4472,-4.65444 -4.3752,-6.70527 -1.9682,-1.37865 -2.9704,-1.7069 -9.0178,-2.95369 -1.3352,-0.27527 -2.9102,-1.08274 -3.5,-1.79436 -2.1032,-2.53757 -6.9815,-3.77776 -10.1385,-2.57747 -1.6137,0.6135 -3.1589,1.13773 -3.4339,1.16496 -0.275,0.0272 -1.4833,0.42334 -2.6851,0.88026 -2.3149,0.88013 -9.7959,1.30013 -12.3149,0.69139 -0.825,-0.19936 -3.3,-1.23629 -5.5,-2.30428 -2.2,-1.068 -4.3375,-2.00158 -4.75,-2.07464 -0.4125,-0.0731 -0.8625,-0.22658 -1,-0.34116 -0.1375,-0.11459 -1.15,-0.3555 -2.25,-0.53536 -3.8209,-0.62476 -6.3816,-1.37258 -8.4011,-2.4534 -2.5752,-1.37817 -4.4781,-8.27994 -3.6724,-13.31897 0.7319,-4.57702 -1.5698,-10.4366 -7.0115,-17.84979 -2.1067,-2.86986 -3.8279,-6.5435 -4.1336,-8.82255 -0.5198,-3.87601 -0.4837,-3.92514 4.8474,-6.59457 50.7689,-25.42116 72.5861,-81.40179 53.7071,-137.80631 -13.1581,-39.31216 -43.7403,-66.029792 -83.8359,-73.241902 -16.4904,-2.96618 -40.9391,-1.27201 -57.4895,3.98373 l -7.1864,2.2821 0.314,-16.09232 c 0.3438,-17.62099 0.9416,-28.50535 1.6018,-29.16557 0.2338,-0.23381 1.9116,6.54952 3.7284,15.07406 1.8167,8.52455 3.3546,15.49788 3.4174,15.4963 1.4097,-0.0355 44.9341,-9.98363 45.3057,-10.35523 0.2937,-0.29362 -3.801,-20.21392 -9.0993,-44.267335 -5.2982,-24.0534108 -9.2864,-44.050231 -8.8626,-44.437381 0.8604,-0.78604 97.4272,-22.11378 97.9154,-21.6256 0.1703,0.17031 4.6538,20.08238 9.9633,44.2490402 5.3095,24.1666708 9.7587,44.0658958 9.8872,44.2205258 0.23,0.27689 45.7937,-9.68893 46.0861,-10.08009 0.2321,-0.31051 -46.3998,-211.862398 -46.762,-212.142168 -0.7195,-0.55574 -45.8195,9.83161 -45.8195,10.55306 0,0.43047 4.0232,19.13316 8.9405,41.56154 4.9173,22.42837 8.8548,40.839037 8.75,40.912577 -0.1048,0.0736 -22.1893,4.96158 -49.0768,10.86231 -33.3016,7.308355 -49.1011,10.381065 -49.56,9.638495 -0.3706,-0.59955 -4.6427,-19.169855 -9.4938,-41.267372 -10.0963,-45.99089 -9.53821,-41.79825 -8.1989,-93.31949 0.70523,-47.78105 3.5894,-95.58605 2.4893,-143.37942 l 27.3249,-0.0369 c 15.0286,-0.0203 39.9248,-0.32436 55.3248,-0.67575 53.3443,-1.21718 55.312,-1.25949 130.7414,-2.81144 12.5078,-0.25735 23.1587,-0.72577 23.6687,-1.04095 0.5099,-0.31517 1.2093,0.71142 1.5541,2.28131 0.8521,3.87987 5.4439,7.02916 12.0215,8.2451 5.5133,1.0192 9.5143,0.11408 9.5143,-2.15236 0,-1.38015 2.7972,0.21283 6.5,3.70165 2.931,2.76165 9.182498,7.36872 9.998898,7.36872 0.2256,0 1.5352,1.125 2.9102,2.5 1.375,1.375 3.3304,2.5 4.3455,2.5 1.0149,0 2.3854,0.54 3.0454,1.2 0.66,0.66 1.2,0.8299 1.2,0.37756 0,-0.45235 0.675,-0.26225 1.5,0.42244 0.825,0.68469 1.5,0.90969 1.5,0.5 0,-0.40969 0.5625,-0.29067 1.25,0.26449 0.6875,0.55516 3.0877,1.31218 5.3338,1.68226 5.1327,0.84572 10.1915,3.87239 11.3718,6.80371 1.3796,3.4263 10.924,12.74954 13.052,12.74954 0.5458,0 0.9924,0.40122 0.9924,0.89159 0,0.84061 4.5879,2.45213 5.3418,1.87633 0.1929,-0.14735 1.0662,0.32581 1.9406,1.05147 1.1575,0.96064 2.1152,1.03819 3.5222,0.28519 1.0628,-0.56882 2.1854,-0.7812 2.4947,-0.47196 1.1214,1.12137 6.4191,-2.95418 8.2434,-6.34167 1.0279,-1.90886 1.7692,-4.78023 1.6473,-6.38081 -0.3065,-4.02237 1.9244,-3.76003 5.2645,0.61908 4.4861,5.88153 6.7131,7.55874 8.9901003,6.77048 6.1792,-2.13917 11.6931,-0.2841 8.79819999,2.96002 -2.00849999,2.25071 -0.42199999,5.61251 3.83560001,8.1275 1.6069,0.94922 2.9216,2.11338 2.9216,2.58703 0,1.59323 14.7587997,16.02575 16.3879997,16.02575 0.8866,0 1.612,0.37848 1.612,0.84107 0,0.46259 2.25,2.06568 5,3.56241 2.75,1.49674 5,2.41316 5,2.03649 0,-0.37667 0.5625,-0.2411 1.25,0.30128 2.1379,1.6866 9.0646,1.10162 13.25,-1.11899 2.2,-1.16724 4.225,-2.38315 4.5,-2.70201 0.275,-0.31886 3.0647,-1.823 6.1993,-3.34253 4.4519,-2.15812 7.2971,-2.7989 13,-2.92781 7.2066,-0.1629 11.1975,-1.75039 21.8007,-8.67194 1.5593,-1.01786 7.500002,-3.29854 7.500002,-2.87929 0,0.1316 1.125,-0.37762 2.5,-1.13161 1.375,-0.75399 3.0054,-1.45683 3.6232,-1.56188 0.6177,-0.10505 2.6427,-0.88385 4.5,-1.73067 10.1994,-4.65045 16.259,-5.24085 20.6476,-2.01172 5.036,3.70551 18.0562,5.90988 22.7805,3.85682 1.0718,-0.46579 2.2862,-0.942 2.6987,-1.05825 0.4125,-0.11626 0.975,-0.30512 1.25,-0.4197 0.5823,-0.24262 7.3799,-0.28515 7.75,-0.0485 0.1375,0.0879 0.925,0.3031 1.75,0.4782 0.825,0.17509 1.95,0.43833 2.5,0.58497 1.8164,0.48426 5.9411,-1.81566 9.9967,-5.57417 2.1982,-2.03712 6.0232,-4.65509 8.5,-5.81769 2.4768,-1.16261 9.0845,-6.51273 14.6837,-11.88916 5.5992,-5.37642 10.6814,-9.77532 11.2937,-9.77532 1.4077,0 4.5491,-3.12094 9.5623,-9.5 2.1611,-2.75 4.3673,-5.18092 4.9026,-5.40204 0.5353,-0.22112 2.4205,-1.79612 4.1893,-3.5 1.7689,-1.70388 4.0386,-3.65221 5.0439,-4.32962 7.1578,-4.82328 9.5207,-6.26834 10.2498,-6.26834 0.4582,0 1.3933,-0.675 2.078,-1.5 0.6847,-0.825 2.3944,-1.5 3.7994,-1.5 2.5903,0 17.8868,-6.92391 20.4098,-9.23838 2.6348,-2.41704 20.15596,-11.6097 20.43576,-10.72182 0.08,0.25311 0.9798,-0.29523 2,-1.21854 1.0203,-0.92331 2.1925,-1.71081 2.605,-1.75 0.4125,-0.0392 0.8625,-0.10569 1,-0.14777 1.2267,-0.37542 4.7978,-1.072 7.25,-1.4142 1.65,-0.23025 4.125,-0.6871 5.5,-1.01523 1.375,-0.32812 3.5941,-0.82211 4.9313,-1.09775 1.3372,-0.27564 5.2747,-2.0913 8.75,-4.0348 3.4753,-1.9435 6.3187,-3.18572 6.3187,-2.76048 0,0.42523 1.3007,-0.47294 2.8903,-1.99594 1.9176,-1.83715 3.1255,-2.3886 3.589,-1.63853 0.4674,0.75625 1.0934,0.80302 1.8908,0.14126 0.6556,-0.54412 2.5281,-1.26462 4.161,-1.60111 4.7584,-0.98056 4.9081,-1.02494 6.2189,-1.84385 0.6875,-0.42949 1.25,-0.5039 1.25,-0.16534 0,0.33855 1.2375,-0.0496 2.75,-0.86254 2.3097,-1.24143 4.5954,-2.22899 7.25,-3.13241 0.275,-0.0936 1.85,-0.73963 3.5,-1.43566 1.65,-0.69603 3.45,-1.35327 4,-1.46055 0.55,-0.10728 3.3995,-1.4126 6.3322,-2.90071 2.9327,-1.48811 6.599,-3.43039 6.6537,-2.70565 3.18744,30.77533 2.58502,61.71847 3.2359,92.611 l -15.1086,3.24223 c -8.3098,1.78322 -15.3903,3.55824 -15.7346,3.9445 -0.3443,0.38625 -8.5206,16.90227 -18.1695,36.70227 -9.6489,19.8 -21.5511,44.17488 -26.4493,54.16639 l -8.9058,18.16639 -10.1562,-46.06221 c -5.5858,-25.33421 -10.36336,-46.2695 -10.61666,-46.52285 -0.5894,-0.58936 -43.828,8.73134 -44.8376,9.66537 -0.6187,0.57247 44.8782,210.690372 45.90056,211.981952 0.1719,0.21728 10.4443,-1.80772 22.8274,-4.499995 20.2544,-4.40359 22.5121,-5.09583 22.4876,-6.89504 -0.015,-1.1 -3.0888,-15.725 -6.8307,-32.500007 l -6.8036,-30.5 5.8493,-11.75795 5.8493,-11.75794 32.2383,27.65294 c 22.88337,19.6286 32.36986,26.39698 34.41254,29.57328 l 0.23867,17.344092 c -1.2149,-0.26158 -7.27181,2.460415 -9.06121,4.079835 -1.4397,1.30284 -1.8256,1.30929 -3.0018,0.0502 -0.9167,-0.98135 -2.0386,-1.18298 -3.497,-0.6285 -1.181,0.44902 -2.3342,0.6294 -2.5628,0.40085 -0.7454,-0.74544 -9.7901,9.47385 -9.7901,11.06153 0,0.84946 0.6579,1.79692 1.4619,2.10547 0.8041,0.30854 1.7093,1.34009 2.0115,2.29233 0.3022,0.95223 1.5433,2.798035 2.7579,4.101795 2.1281,2.28424 2.4866,3.12501 3.1904,7.4821 0.1777,1.1 0.3805,2.26751 0.4507,2.59446 0.07,0.32695 1.2345,1.88259 2.5873,3.45698 1.3528,1.57438 2.322,3.0002 2.1537,3.16849 -0.1683,0.16828 -2.9626,-0.87171 -6.2097,-2.31109 -6.1523,-2.72725 -14.0412,-5.27111 -23.4037,-7.54676 -8.4232,-2.04735 -36.4116,-1.7444 -46.8435,0.50704 -29.56196,6.38015 -52.95816,20.06064 -69.35486,40.55388 -15.5654,19.4543702 -22.8271,40.882311 -22.9647,67.764336 -0.2473,48.3125 26.749,90.593092 68.5247,107.320872 8.29096,3.31989 23.03276,6.93463 28.42586,6.97014 l 3.2875,0.0216 -5.7875,5.80892 c -7.0852,7.11141 -13.6157,14.73304 -13.3758,15.61059 0.098,0.35806 -0.7422,1.82084 -1.8668,3.25062 -1.1247,1.42977 -2.0449,3.19351 -2.0449,3.91942 0,0.7259 -1.5462,1.60989 -3.436,1.96442 -3.78716,0.7105 -11.56396,6.77909 -11.56396,9.02396 0,0.78215 -0.5025,1.42208 -1.1166,1.42208 -0.6142,0 -0.9103,0.7875 -0.6582,1.75 0.3852,1.47029 -0.1955,1.72915 -3.6333,1.61954 -4.6198,-0.14729 -5.4515,0.21005 -14.8377,6.37496 -3.7102,2.43688 -7.8736,4.55449 -9.252,4.7058 -2.2027,0.2418 -2.678,-0.30332 -3.9247,-4.50149 -2.3588,-7.94279 -4.735,-10.56764 -10.4748,-11.57085 -0.7685,-0.13432 -4.1834,2.59732 -7.5887,6.07033 -3.4052,3.473 -7.0515,6.60422 -8.1027,6.95827 -3.4609,1.16563 -5.2386,4.98991 -5.8956,12.68308 -0.348,4.0757 -1.0084,7.78975 -1.4673,8.25346 -0.459,0.4637 -1.8952,0.20834 -3.1915,-0.56748 -3.7003,-2.21456 -13.3414,-1.53282 -17.0449,1.20526 -2.707,2.00137 -2.9865,2.68103 -2.5233,6.13473 0.5137,3.8296 -0.1964,5.08708 -3.1228,5.53013 -1.6682,0.25256 -4.1591,3.55626 -3.4934,4.63337 0.2723,0.44065 -0.6949,1.73729 -2.1494,2.88143 -1.757,1.38199 -2.424,2.62725 -1.9873,3.70986 0.3616,0.89628 0.751,2.17908 0.8652,2.85066 0.1143,0.67158 0.4767,1.48995 0.8054,1.81861 0.3286,0.32866 0.3851,1.94512 0.1256,3.59214 -0.2596,1.64701 -0.01,3.5564 0.5642,4.24308 0.7317,0.88171 0.532,2.25861 -0.68,4.68681 -1.4298,2.86453 -2.3002,3.46564 -5.2162,3.60215 -1.925,0.0901 -4.31,0.20262 -5.3,0.25 -1.4842,0.071 -1.7311,0.77516 -1.4073,4.01346 0.3044,3.0438 1.353,4.84988 4.6612,8.02839 4.5304,4.35283 4.4738,3.99407 2.0119,12.73887 -1.0588,3.76084 -0.963,4.50062 0.9266,7.15438 3.8922,5.46607 1.5903,7.11096 -3.71,2.65106 -1.6341,-1.375 -3.6239,-2.5 -4.4218,-2.5 -2.0643,0 -4.3909,2.99433 -5.0506,6.5 -0.9618,5.11151 -2.597,8.5 -4.1019,8.5 -0.7928,0 -1.6151,0.52107 -1.8274,1.15794 -0.5614,1.68423 -5.5187,0.20003 -6.6992,-2.00572 -0.7606,-1.42115 -0.3261,-2.61293 1.9666,-5.39433 l 2.9428,-3.57018 -3.638,-7.07225 c -3.8369,-7.45891 -7.7137,-11.15463 -9.6598,-9.20856 -1.6437,1.64371 -2.6931,1.32022 -2.6931,-0.83017 0,-3.31386 -4.5944,-7.84623 -7.6172,-7.5144 -3.2989,0.36212 -5.6562,2.61209 -5.877,5.60939 -0.1065,1.44476 -1.7785,3.40788 -4.5867,5.38522 -2.4305,1.71142 -4.435,3.52373 -4.4545,4.02736 -0.019,0.50364 -0.6742,2.0407 -1.4549,3.4157 -0.7807,1.375 -1.3199,3.175 -1.1982,4 0.1217,0.825 -1.3795,3.3 -3.3361,5.5 -3.2567,3.66182 -3.5108,4.38648 -3.0057,8.57131 0.9147,7.57783 -0.1271,10.37594 -4.819002,12.94299 -9.996,5.46905 -11.9236,10.04542 -6.5614,15.5778 2.0201,2.08427 3.2044,4.4261 3.4219,6.76681 0.183,1.96872 0.6194,4.04335 0.9698,4.61029 0.3504,0.56694 0.2744,1.5933 -0.1688,2.2808 -1.1504,1.78462 -1.3267,9.62302 -0.2316,10.29982 0.5057,0.31252 0.9194,1.57666 0.9194,2.8092 0,1.23254 0.4953,2.73627 1.1007,3.34163 0.8008,0.80087 0.7486,2.07416 -0.1918,4.67487 -0.7109,1.96582 -1.465,3.40165 -1.676,3.19074 -0.2109,-0.21091 -1.7289,0.002 -3.3733,0.47401 -1.8684,0.53586 -3.8755,0.45398 -5.351,-0.21831 -5.1312,-2.33793 -11.6276,2.2018 -12.0091,8.39201 -0.362,5.87396 -1.6547,16.2486 -2.2162,17.78603 -0.3012,0.825 -0.6908,2.59007 -0.8657,3.92238 -0.4247,3.23577 -3.3728,6.0329 -6.977,6.61969 -1.6173,0.26331 -3.9255,0.70071 -5.1293,0.97201 -1.2038,0.27129 -2.4814,0.0198 -2.839,-0.55897 -0.4463,-0.72213 -1.093,-0.68487 -2.0613,0.11878 -0.776,0.64405 -1.411,0.8358 -1.411,0.42611 0,-0.40969 -0.5765,-0.26646 -1.281,0.3183 -0.7046,0.58475 -2.3921,1.27467 -3.75,1.53316 -2.6061,0.49606 -5.167,1.29695 -8.469,2.64854 -4.5156,1.84835 -6.0576,2.3064 -7.1746,2.1312 -0.646,-0.10133 -1.4601,0.27769 -1.809,0.84228 -0.8151,1.31893 -3.2139,1.32501 -4.0265,0.0102 z M -150.83364,264.36951 c 11.825,-2.58045 21.673,-4.82606 21.8844,-4.99023 0.2115,-0.16418 -3.9824,-20.15667 -9.3196,-44.42777 -5.3372,-24.27111 -9.5141,-44.31925 -9.2819,-44.55143 0.363,-0.36302 97.960498,-22.14557 98.365198,-21.9539 0.081,0.0386 4.4932,19.85688 9.8039,44.04067 5.3106,24.18379 9.8616,44.17639 10.1132,44.42799 0.2516,0.2516 10.6899,-1.77351 23.1961003,-4.50024 17.6117997,-3.83987 22.6886997,-5.2892 22.5169997,-6.42798 -0.6864,-4.55073 -46.1674,-210.192758 -46.5785,-210.603788 -0.2721,-0.27217 -10.5534,1.70761 -22.8473,4.399501 -15.7142,3.440815 -22.4232,5.316015 -22.5905,6.314175 -0.1309,0.7809 3.757,19.41982 8.6398,41.41982 4.8828,22 8.7259,40.163922 8.5404,40.364292 -0.1856,0.20036 -22.2985,5.19802 -49.139798,11.10591 -33.4381,7.35988 -49.0013,10.39345 -49.4341,9.6357 -0.3474,-0.60825 -4.5588,-19.10591 -9.3586,-41.105902 -4.7998,-22 -8.8697,-40.1541 -9.0441,-40.34244 -0.6936,-0.74888 -44.7386,9.3903 -45.121,10.38685 -0.2254,0.58729 9.9549,48.210352 22.6228,105.829052 12.6679,57.6187 23.0326,104.95595 23.0326,105.1939 0,0.89329 3.0452,0.35859 24,-4.21418 z m 231.743198,-51.0614 c 13.5313,-2.91503 22.245802,-5.24912 22.250002,-5.95947 0.01,-1.59327 -46.079602,-210.7360878 -46.544502,-211.2098678 -0.5546,-0.56524 -43.8156,8.97086 -44.7845,9.87195 -0.4598,0.42752 9.554,47.9661758 22.2527,105.6414478 12.6988,57.67528 23.0874,105.20165 23.0859,105.61415 0,1.1531 0.077,1.13959 23.7404,-3.95821 z M 143.41636,198.4027 c 10.1607,-2.20219 12.75,-3.10366 12.75,-4.43889 0,-1.40722 22.0192,-208.947038 23.3621,-220.197478 0.2462,-2.0625 0.037,-3.75 -0.4646,-3.75 -1.5483,0 -28.152,6.03924 -29.0508,6.59476 -0.4657,0.2878 -0.8467,1.87264 -0.8467,3.52186 0,1.64923 -5.175,51.253706 -11.5,110.232176 -6.325,58.978472 -11.5,108.276332 -11.5,109.550792 0,1.89445 0.4105,2.21988 2.25,1.7837 1.2375,-0.29344 7.9875,-1.77705 15,-3.29692 z m -279.25,-175.401972 c 13.475,-2.914225 24.6618,-5.427205 24.8596,-5.584395 0.1977,-0.15719 1.5742,-8.9506308 3.0588,-19.5409708 l 2.6993,-19.2551502 43.941098,-9.74469 c 24.1677,-5.35957 44.4525,-9.77044 45.0774,-9.80193 0.6248,-0.0315 5.9089,7.29386 11.7422003,16.27856 l 10.6061,16.3358202 25.5583997,-5.6048402 c 14.0571,-3.08267 25.6481,-5.883 25.7578,-6.22296 0.393,-1.21875 -127.6108,-193.843842 -128.8138,-193.843842 -1.3288,0 -55.741198,11.92097 -56.113998,12.29378 -0.124,0.124 -7.9112,50.84613 -17.3049,112.715847 -9.3936,61.869705 -17.3524,113.795431 -17.6861,115.390501 -0.4595,2.1964 -0.2762,2.77671 0.7557,2.39149 0.7493,-0.27975 12.3874,-2.893 25.8624,-5.80722 z m 35.0046,-90.234396 c 0.01,-3.43391 11.781898,-91.869852 12.301298,-92.389232 0.4556,-0.45556 51.6864,79.913067 51.2479,80.395437 -0.2048,0.22538 -62.4462,14.243795 -63.241998,14.243795 -0.1715,0 -0.3097,-1.0125 -0.3072,-2.25 z m 265.8694,27.63732 c 16.9958,-3.04088 32.5034,-9.25942 44.626,-17.89493 6.8697,-4.89362 18.6905,-16.871645 23.184,-23.492385 6.0969,-8.98319 15.4994,-30.149917 14.0409,-31.608467 -0.9619,-0.96186 -41.9491,-10.371 -42.8234,-9.83065 -0.4958,0.30643 -0.9015,1.14513 -0.9015,1.86377 0,3.28824 -7.7592,16.31372 -13.1522,22.078927 -11.3673,12.15164 -22.8202,17.38012 -39.945,18.23571 -35.2452,1.76092 -62.688402,-20.854407 -70.317502,-57.947137 -6.3549,-30.89791 7.7626,-61.76551 34.439902,-75.3019 22.713,-11.52484 48.6038,-8.37693 66.8411,8.12681 3.2715,2.96061 6.225,5.38293 6.5633,5.38293 1.056,0 34.5704,-27.16517 34.5704,-28.02113 0,-0.44608 -2.8125,-3.37538 -6.25,-6.50955 -20.0473,-18.27832 -39.5181,-26.92267 -63.4646,-28.17605 -33.148,-1.73501 -67.863902,11.52771 -91.164202,34.82794 -30.1031,30.10313 -38.9927,72.83923 -24.2228,116.44938 18.0269,53.226862 69.725502,82.238822 127.975602,71.816732 z m -520.2176,303.095428 c -8.2096,-2.0777 -20.2131,-8.62215 -26.4138,-14.4011 l -5.2574,-4.89981 0.6514,-20.34092 c 0.3583,-11.18751 0.7619,-22.81593 0.8969,-25.84093 0.5065,-11.35022 1.7439,-52.62906 1.6732,-55.81483 -0.066,-2.98491 0.5274,-3.70324 5.964,-7.21713 19.1019,-12.34615 44.7574,-14.37185 64.075,-5.05923 23.4242,11.29235 38.8306,38.38369 39.0067,68.59119 0.077,13.21584 -1.6065,20.60314 -7.4067,32.5 -7.1106,14.5846 -19.8002,25.26351 -36.8457,31.00743 -8.5382,2.87716 -27.7268,3.65611 -36.3436,1.47533 z M 318.15872,118.04276 c -32.7699,-4.23235 -56.99786,-35.926332 -56.97056,-74.526432 0.015,-20.64275 5.1973,-33.9311758 18.3722,-47.1060358 8.82966,-8.8297202 17.24966,-13.6659202 29.60596,-17.0047302 7.8171,-2.11225 26.297,-2.392 33,-0.49956 8.578,2.42181 18.5576,7.95461 24.946,13.8303002 5.5481,5.10283 6.2083,6.0859 5.2443,7.80888996 -0.6066,1.08413004 -1.793,4.49977004 -2.6365,7.59032004 -0.8435,3.0905398 -2.2131,6.1831398 -3.0437,6.8724398 -0.8305,0.6893 -1.5101,1.889 -1.5101,2.666011 0,0.777 -0.6412,2.4094 -1.425,3.62755 -0.84,1.30562 -1.3433,4.267355 -1.2262,7.214815 0.1523,3.83024 -0.3301,5.71993 -2.0619,8.07725 -1.9753,2.68877 -2.3367,4.70866 -2.8627,16 -0.3823,8.20522 -1.067,13.47033 -1.8758,14.42275 -1.6384,1.92928 -2.7472,7.75909 -1.6095,8.46222 0.4803,0.29688 0.6282,1.47736 0.3285,2.62331 -0.2997,1.14595 -0.8199,1.67518 -1.1561,1.17606 -0.9401,-1.39557 -3.9417,-2.26389 -5.6113,-1.62322 -1.8994,0.7289 -1.9378,5.28917 -0.075,8.88041 1.6043,3.09233 0.4813,6.0587 -2.6729,7.05978 -1.582,0.50211 -2.4022,3.30281 -1.7342,5.92144 1.1506,4.509952 0.8987,5.206362 -3.4355,9.499992 -2.5057,2.48222 -4.5516,5.45022 -4.5627,6.61916 -0.03,3.16718 -5.3359,3.91731 -17.0276,2.40728 z m 55.0351,-304.00506 c -10.7099,-8.72107 -19.6237,-16.30988 -19.8084,-16.86402 -0.3703,-1.11091 35.949,-70.32263 36.5742,-69.69743 l 3.068,102.47901 c -0.1987,-0.0336 -9.1239,-7.19649 -19.8338,-15.91756 z"
       id="path4151"
       inkscape:connector-curvature="0"
       sodipodi:nodetypes="ccssscssscsssscsccssscsssscccscsccscsssccssccscsccsccccsssscsscccsccscccsscscsccsssccsssssssssssssssccccccsscsssssssssssssscssscscccsssscscssssscccsssssscccscsscsssccsssscscccscscccsccccscscscccscssssssccsccsssscsssssssccsscscccccccssccsscsscscsccsssscscsssssccsccsccccssccsscssccsscccscsccsssccscscscsccsssscccscssssscsssssscscscscscsssscscccscssscsssssscssssssssscsscssssssccsssscscsccssccscccscscccscccs"
       inkscape:export-xdpi="464.63901"
       inkscape:export-ydpi="464.63901" />
  </g>
</svg>
