<svg id="Layer_1" data-name="Layer 1" xmlns="http://www.w3.org/2000/svg" viewBox="0 0 237.49 39.38"><defs><style>.cls-1{fill:#f78e26;}.cls-2{fill:#de1b51;}</style></defs><title>logo</title><path class="cls-1" d="M15.65,25v3.8A16.16,16.16,0,0,1,10,29.83a9.85,9.85,0,0,1-7.27-2.7A9.76,9.76,0,0,1,0,19.89,10.34,10.34,0,0,1,2.65,12.5,9.09,9.09,0,0,1,9.59,9.69a11.6,11.6,0,0,1,2.69.29A17.71,17.71,0,0,1,15.22,11v4.1a10.22,10.22,0,0,0-5.4-1.86,5.52,5.52,0,0,0-4.26,1.83,6.63,6.63,0,0,0-1.67,4.65,6.28,6.28,0,0,0,1.8,4.73,6.69,6.69,0,0,0,4.87,1.75A12.69,12.69,0,0,0,15.65,25"/><path class="cls-1" d="M27.36,13.49a6.07,6.07,0,0,0-4.54,1.81,6.34,6.34,0,0,0-1.77,4.62,6.06,6.06,0,0,0,1.81,4.55,6.41,6.41,0,0,0,4.63,1.77,6.31,6.31,0,0,0,4.63-1.78,6.15,6.15,0,0,0,1.8-4.57A6.1,6.1,0,0,0,32,15.31a6.53,6.53,0,0,0-4.73-1.81M27.52,10a10.13,10.13,0,0,1,7.37,2.86,9.62,9.62,0,0,1,2.93,7.19,9.13,9.13,0,0,1-3,7,10.56,10.56,0,0,1-7.49,2.77A10.13,10.13,0,0,1,20,27a9.36,9.36,0,0,1-2.93-7,9.42,9.42,0,0,1,3-7.1,10.33,10.33,0,0,1,7.44-2.84"/><polygon class="cls-1" points="51.87 10.07 56.04 10.07 47.46 29.83 46.16 29.83 37.38 10.07 41.58 10.07 46.82 22.02 51.87 10.07"/><path class="cls-1" d="M60.15,17.82h9.77a5.36,5.36,0,0,0-1.37-3.55A4.41,4.41,0,0,0,65.26,13a4.74,4.74,0,0,0-3.39,1.24,6.16,6.16,0,0,0-1.72,3.55m13.57,2.3H60.07a6.33,6.33,0,0,0,1.87,4.43,6.15,6.15,0,0,0,4.44,1.65,11.56,11.56,0,0,0,7-2.36V27.6a12.85,12.85,0,0,1-3.51,1.69,14.68,14.68,0,0,1-4.08.51,9.17,9.17,0,0,1-5.19-1.33,9.68,9.68,0,0,1-3.18-3.58,10.93,10.93,0,0,1-1.19-5.2,10.32,10.32,0,0,1,2.51-7.21A8.39,8.39,0,0,1,65.26,9.7a7.68,7.68,0,0,1,6.16,2.7,10.79,10.79,0,0,1,2.3,7.24v0.49h0Z"/><path class="cls-1" d="M81.13,10.07v4.45l0.21-.34q2.79-4.5,5.57-4.5a6.87,6.87,0,0,1,4.54,2.2l-2,3.38a5.69,5.69,0,0,0-3.71-1.9,4,4,0,0,0-3.25,1.77,6.69,6.69,0,0,0-1.36,4.2V29.49H77.27V10.07h3.86Z"/><path class="cls-2" d="M110.05,15.39v14.1h-3.86V18.68a8.49,8.49,0,0,0-.87-4.51,3.38,3.38,0,0,0-3-1.28,4.52,4.52,0,0,0-2.21.55,9.73,9.73,0,0,0-2.29,1.94v14.1H94V10.07h3.84V12.6q2.93-2.93,5.74-2.93a6.31,6.31,0,0,1,5.72,3.5q3.07-3.57,6.42-3.57a5.93,5.93,0,0,1,4.65,2.07q1.83,2.07,1.83,6.31V29.49h-3.84V18a6,6,0,0,0-1-3.71A3.39,3.39,0,0,0,114.49,13,5.89,5.89,0,0,0,110,15.39"/><polygon class="cls-2" points="137.86 10.07 142.17 10.07 128.41 39.38 124.12 39.38 130.72 25.32 123.22 10.07 127.59 10.07 132.84 21.04 137.86 10.07"/><path class="cls-1" d="M160.78,15.39v14.1h-3.86V18.68a8.49,8.49,0,0,0-.86-4.51,3.38,3.38,0,0,0-3-1.28,4.52,4.52,0,0,0-2.21.55,9.69,9.69,0,0,0-2.29,1.94v14.1h-3.84V10.07h3.84V12.6q2.93-2.93,5.74-2.93a6.31,6.31,0,0,1,5.72,3.5q3.06-3.57,6.42-3.57a5.93,5.93,0,0,1,4.65,2.07q1.82,2.07,1.83,6.31V29.49h-3.84V18a6,6,0,0,0-1-3.71A3.39,3.39,0,0,0,165.23,13a5.9,5.9,0,0,0-4.45,2.41"/><path class="cls-1" d="M178.58,17.82h9.77A5.36,5.36,0,0,0,187,14.27,4.41,4.41,0,0,0,183.69,13a4.74,4.74,0,0,0-3.39,1.24,6.16,6.16,0,0,0-1.72,3.55m13.57,2.3H178.49a6.33,6.33,0,0,0,1.87,4.43,6.15,6.15,0,0,0,4.44,1.65,11.55,11.55,0,0,0,7-2.36V27.6a12.83,12.83,0,0,1-3.51,1.69,14.68,14.68,0,0,1-4.08.51A9.17,9.17,0,0,1,179,28.47a9.69,9.69,0,0,1-3.18-3.58,10.94,10.94,0,0,1-1.19-5.2,10.33,10.33,0,0,1,2.51-7.21,8.38,8.38,0,0,1,6.52-2.78,7.69,7.69,0,0,1,6.16,2.7,10.8,10.8,0,0,1,2.3,7.24v0.49h0Z"/><path class="cls-1" d="M207.49,26.19V13.89a8,8,0,0,0-3.63-.91,5.86,5.86,0,0,0-4.57,1.88,7.27,7.27,0,0,0-1.7,5.07,6.63,6.63,0,0,0,1.48,4.62A4.57,4.57,0,0,0,201,25.86a12.67,12.67,0,0,0,3.57.34h3Zm0-26.19h3.86V29.49h-8.16a9,9,0,0,1-6.87-2.72,10.22,10.22,0,0,1-2.56-7.3,9.69,9.69,0,0,1,2.69-7,9.17,9.17,0,0,1,6.86-2.87,12.5,12.5,0,0,1,4.22.82V0h0Z"/><path class="cls-1" d="M213.93,28.09V24a17.52,17.52,0,0,0,3.32,1.85,7.76,7.76,0,0,0,2.86.71,3.59,3.59,0,0,0,2.07-.59,1.7,1.7,0,0,0,.86-1.41,1.91,1.91,0,0,0-.56-1.4,13.05,13.05,0,0,0-2.42-1.61A17.08,17.08,0,0,1,215.2,18a5.06,5.06,0,0,1-1.15-3.2,4.49,4.49,0,0,1,1.74-3.65,6.89,6.89,0,0,1,4.49-1.41,12.36,12.36,0,0,1,5.85,1.6v3.8A11.7,11.7,0,0,0,220.49,13a3.11,3.11,0,0,0-1.8.47,1.46,1.46,0,0,0-.69,1.26,1.8,1.8,0,0,0,.62,1.29,10.63,10.63,0,0,0,2.18,1.48l1.37,0.78Q227,21,227,24.38a4.84,4.84,0,0,1-1.87,3.91,7.33,7.33,0,0,1-4.8,1.53,11.7,11.7,0,0,1-3.08-.37,20.52,20.52,0,0,1-3.4-1.36"/><path class="cls-1" d="M232.77,11.6h0.72c0.79,0,1.1.2,1.1,0.64s-0.17.67-1.11,0.67h-0.71V11.6h0Zm-0.57-.47v4h0.57V13.4h0.42a1.09,1.09,0,0,1,1,.68l0.56,1h0.68l-0.5-.88a1.62,1.62,0,0,0-.86-0.89,1.12,1.12,0,0,0,1.15-1.09s0,0,0,0c0-.35-0.21-1.06-1.43-1.06H232.2ZM237,13.07a3.19,3.19,0,1,1-3.19-3.2,3.19,3.19,0,0,1,3.19,3.2h0m0.53,0a3.72,3.72,0,1,0-3.72,3.72,3.72,3.72,0,0,0,3.72-3.72"/></svg>