<?xml version="1.0" encoding="utf-8"?>
<!-- Generator: Adobe Illustrator 18.1.1, SVG Export Plug-In . SVG Version: 6.00 Build 0)  -->
<svg version="1.1" id="Layer_1" xmlns="http://www.w3.org/2000/svg" xmlns:xlink="http://www.w3.org/1999/xlink" x="0px" y="0px"
	 viewBox="0 0 2000 2000" enable-background="new 0 0 2000 2000" xml:space="preserve">
<g>
	<g>
		<path fill="none" d="M816,636c-64.2-37.8-132.8-56.8-205.7-56.8c-74.2,0-144.7,18.9-211.5,56.8c-66.8,37.8-118.1,88.8-153.9,152.8
			c-35.8,64-53.7,136.1-53.7,216.3c0,122.2,40.2,224.4,120.5,306.5c80.3,82.1,179.2,123.2,296.7,123.2c75.5,0,145.2-18.6,209.1-55.8
			c63.9-37.2,114.7-89.4,152.4-156.7c37.7-67.3,56.6-138.4,56.6-213.4c0-75-19-146.5-57.1-214.4C931.3,726.7,880.2,673.8,816,636z"
			/>
		<path fill="#BB0000" d="M1887.6,677.7c-29.1-67.6-74.6-121.4-135.7-161.5c-61.1-40.1-131.3-60.1-210.2-60.1
			c-77,0-148.4,17.9-214.3,53.8c-66,35.9-127.3,90.1-181.3,162.5V73h-141v549.9c0-1.4-0.2-2.9-1.6-4.4
			C897.7,510.2,771.5,456,622.3,456c-84,0-161.1,17.3-231.5,51.9C320.4,542.5,258,594.7,200,664.6V73H68v1464h132v-192.4
			c54,73.7,115.8,129,185.6,165.9c69.8,36.9,147.9,55.3,233.8,55.3c149.9,0,278.3-54,384.9-162c106.6-108,160-238.3,160-390.9
			c0-23.1,1.1-123.8,1.7-153c1.5-76.6,62.8-142.9,127.8-197.2c65-54.3,138.6-81.5,220.7-81.5c71.8,0,129.8,17.6,174.1,52.9
			c44.3,35.3,75,87.8,91.8,157.6c9.7,40.7,14.7,121.9,14.7,243.5V1537h137V995.4C1932,851.2,1916.7,745.3,1887.6,677.7z
			 M969.9,1222.4c-37.7,67.3-88.6,119.5-152.4,156.7c-63.9,37.2-133.6,55.8-209.1,55.8c-117.4,0-216.3-41.1-296.7-123.2
			c-80.3-82.1-120.5-184.3-120.5-306.5c0-80.2,17.9-152.3,53.7-216.3c35.8-64,87.1-115,153.9-152.8c66.8-37.8,137.3-56.8,211.5-56.8
			c72.9,0,141.5,18.9,205.7,56.8c64.2,37.8,115.3,90.7,153.4,158.6c38.1,67.9,57.1,139.4,57.1,214.4
			C1026.5,1084,1007.6,1155.1,969.9,1222.4z"/>
	</g>
	<rect y="1602.6" fill="none" width="2000" height="324.5"/>
	<text transform="matrix(1 0 0 1 42.9336 1768.293)" fill="#BB0000" font-family="'CenturyGothic-Bold'" font-size="225.1656">buckeye hackers</text>
</g>
</svg>
