<?xml version="1.0" encoding="utf-8"?>
<!-- Generator: Adobe Illustrator 23.0.3, SVG Export Plug-In . SVG Version: 6.00 Build 0)  -->
<svg version="1.1"
	 id="svg8" xmlns:cc="http://creativecommons.org/ns#" xmlns:dc="http://purl.org/dc/elements/1.1/" xmlns:inkscape="http://www.inkscape.org/namespaces/inkscape" xmlns:rdf="http://www.w3.org/1999/02/22-rdf-syntax-ns#" xmlns:sodipodi="http://sodipodi.sourceforge.net/DTD/sodipodi-0.dtd" xmlns:svg="http://www.w3.org/2000/svg"
	 xmlns="http://www.w3.org/2000/svg" xmlns:xlink="http://www.w3.org/1999/xlink" x="0px" y="0px" viewBox="0 0 798.7 795"
	 style="enable-background:new 0 0 798.7 795;" xml:space="preserve">
<style type="text/css">
	.st0{fill:#666666;}
	.st1{fill:#FFFFFF;}
</style>
<sodipodi:namedview  bordercolor="#666666" borderopacity="1.0" id="base" inkscape:current-layer="g4290" inkscape:cx="1529.8363" inkscape:cy="312.6742" inkscape:document-units="mm" inkscape:pageopacity="0.0" inkscape:pageshadow="2" inkscape:window-height="1001" inkscape:window-maximized="1" inkscape:window-width="1920" inkscape:window-x="-9" inkscape:window-y="-9" inkscape:zoom="0.3599046" pagecolor="#ffffff" showgrid="false" showguides="false">
	</sodipodi:namedview>
<g id="layer1" transform="translate(33.975056,-6.0732042)" inkscape:groupmode="layer" inkscape:label="Layer 1">
	<g id="g4240">
		<g id="g4290" transform="translate(-0.73514855,0.36757426)">
			<g id="g339" transform="translate(251.11477,53.539424)">
				<g id="layer1-3" transform="matrix(0.28222223,0,0,0.28222223,34.03233,117.74337)" inkscape:label="Layer 1">
					
						<path id="path3351-5" inkscape:connector-curvature="0" sodipodi:nodetypes="cscccsscssscssccsccscsscsscscscsscsccccsscssssscsccccsccccscsscccssscsccscsc" class="st0" d="
						M-114,2178.5c0-0.4-3.4-70.3-7.5-155.3c-5.4-113.1-8.5-155.3-11.4-157.4c-2.2-1.6-15.4-7.8-29.4-13.9
						c-50-21.7-103.8-51.3-159.2-87.8c-18.6-12.2-35.2-22.4-36.8-22.6c-1.6-0.2-62.4,32.4-135,72.3c-72.6,40-135.2,74.2-139.1,76
						c-6.8,3.2-12.6-3.7-162.7-194.4c-85.6-108.7-155.4-199-155.2-200.8c0.3-1.7,47.8-55.8,105.9-120.2l105.5-117l-19.2-54.6
						c-21.5-61.1-32.7-101.5-42.9-155.1c-3.8-20-7.1-36.8-7.4-37.3c-0.3-0.6-292.2-87.1-303.8-90c-0.4-0.1,12.8-113.8,29.3-252.7
						l30-252.5l6.7-0.7c3.7-0.4,74.8-2.6,158-5c83.2-2.4,151.6-4.6,151.9-4.9c0.3-0.4,7.4-15.8,15.7-34.4
						c20.8-46.8,55.3-110,85.2-156.4l25.3-39.1L-681.4,47c-39.2-70-73.7-131.9-76.7-137.4l-5.4-9.9l199.7-154.6
						c109.8-85,201.3-155,203.3-155.6c2-0.5,55,45.4,117.9,102.1l114.3,103l46.7-16.7c72.2-25.9,136.4-43.2,187.7-50.7
						c9.8-1.4,12.8-3.4,14.9-9.6c1.4-4.3,20.7-70.2,42.8-146.6s41.3-141.7,42.5-145.2l2.3-6.4l252.2,30l252.2,30l0.7,6.8
						c0.4,3.7,3.8,74,7.6,156.1l6.8,149.4l35.1,16.5c49.7,23.3,98.1,50.5,145.1,81.3c22.3,14.6,41.7,26.8,43.3,26.9
						c1.5,0.2,63.7-32,138.1-71.5c74.4-39.5,137.3-71.7,139.7-71.5c3.9,0.3,311.4,393.3,313.1,400.1c0.4,1.5-47,54.3-105.2,117.4
						l-105.9,114.7l12.6,32c18.2,46.5,36.6,110.7,47.6,166.2c5.3,26.7,9.8,48.9,10,49.3c0.3,0.4,67.9,20.6,150.3,44.7l150,43.9
						l-30.2,253.8l-30.2,253.8l-32.7,1.1c-18,0.6-83.5,2.5-145.6,4.3c-62.1,1.7-116.3,3.5-120.6,3.8c-6.8,0.5-9.1,3.9-20.9,30.8
						c-19.7,44.9-47.1,94.3-81.4,147.3l-30.7,47.3l76.6,140.1l76.6,140.1l-198.6,156.4c-109.2,86-199.5,156.2-200.7,156.1
						c-1.1-0.1-54.7-47.9-118.9-106.1l-116.8-105.9l-48.1,16.4c-61,20.9-91.3,29.4-151.8,42.8l-48.5,10.8L436,2083.9
						c-23.9,82.2-44.5,150.7-45.8,152.2c-1.5,1.9-81.2-6.5-253.2-27C-1,2192.7-113.9,2178.9-114,2178.5L-114,2178.5z"/>
					<g id="text3353-8-2" transform="rotate(-12.522562)">
						<path id="path4166" inkscape:connector-curvature="0" class="st1" d="M-374.2,876.8l0-531.2h-159.3l-129,332.1l-129-332.1
							l-158.5,0l0,531.2h113.1V493.7l149.7,383.1l49.4,0L-488,493.7l0,383.1L-374.2,876.8z"/>
						<path id="path4168" inkscape:connector-curvature="0" class="st1" d="M226.7,876.8L22,345.6h-141.8l-204.7,531.2h128.2
							l33.4-90l227.8,0l33.4,90L226.7,876.8z M34,687.2h-165.7l82.8-228.6L34,687.2z"/>
						<path id="path4170" inkscape:connector-curvature="0" class="st1" d="M730.5,876.8l-225.4-282l211.1-249.3l-139.4,0L388.8,582
							l0-236.5l-113.1,0l0,531.2h113.1V713.5l41.4-50.2l160.9,213.4L730.5,876.8z"/>
						<path id="path4172" inkscape:connector-curvature="0" class="st1" d="M1158.8,876.8v-99.6H896v-121l257.2,0v-99.6l-257.2,0
							V445.1l262.8,0v-99.6l-375.9,0l0,531.2L1158.8,876.8L1158.8,876.8z"/>
					</g>
					<g id="text3353-8-2-1" transform="rotate(-12.522562)">
						<path id="path4155" inkscape:connector-curvature="0" class="st1" d="M-699,1473.5c160.1,0,277.2-114.7,277.2-274.8
							c0-160.1-117.1-274.8-277.2-274.8c-160.9,0-278,114.7-278,274.8C-976.9,1358.8-859.9,1473.5-699,1473.5z M-699,1373.1
							c-98.8,0-161.7-75.7-161.7-174.4c0-99.6,62.9-174.4,161.7-174.4c98,0,160.9,74.9,160.9,174.4
							C-538.1,1297.4-601,1373.1-699,1373.1L-699,1373.1z"/>
						<path id="path4157" inkscape:connector-curvature="0" class="st1" d="M136.2,1463.9l0-531.2H22.3l0,208.7l-250.9,0l0-208.7
							h-113.1l0,531.2h113.1l0-223.8H22.3l0,223.8H136.2z"/>
						<path id="path4159" inkscape:connector-curvature="0" class="st1" d="M353.2,1463.9l0-531.2l-113.1,0l0,531.2H353.2z"/>
						<path id="path4161" inkscape:connector-curvature="0" class="st1" d="M478.6,1479.8l188.8-563.1H594l-188.8,563.1H478.6z"/>
						<path id="path4163" inkscape:connector-curvature="0" class="st1" d="M971.7,1473.5c160.1,0,277.2-114.7,277.2-274.8
							s-117.1-274.8-277.2-274.8c-160.9,0-278,114.7-278,274.8C693.7,1358.8,810.8,1473.5,971.7,1473.5z M971.7,1373.1
							c-98.8,0-161.7-75.7-161.7-174.4c0-99.6,62.9-174.4,161.7-174.4c98,0,160.9,74.9,160.9,174.4
							C1132.5,1297.4,1069.6,1373.1,971.7,1373.1z"/>
					</g>
				</g>
			</g>
			
				<g id="flowRoot4097" transform="matrix(0.48417125,-0.10485327,0.11472275,0.50070563,-216.2993,-123.40772)" inkscape:transform-center-x="-0.72971767" inkscape:transform-center-y="-3.757683">
				<path id="path3883" class="st1" d="M837.4,1704.7v14.2h-65.2v-8c12.9-13,22.5-22.9,28.7-29.8c6.2-6.9,10.8-12.7,13.8-17.7
					s4.5-9.7,4.5-14.1c0-4.9-1.3-8.7-3.9-11.3c-2.6-2.6-6.3-3.9-11.2-3.9c-7.6,0-15.2,3.3-23,9.8l-8.9-10.7
					c4.6-4.3,9.9-7.8,15.7-10.3s11.9-3.8,18.3-3.8c5.8,0,11.1,1.1,15.7,3.2c4.7,2.1,8.4,5.3,11,9.5c2.7,4.1,4.1,9.1,4.1,14.8
					c0,5.5-1.3,11-3.8,16.3c-2.4,5.3-6.3,11.2-11.8,17.7c-5.4,6.5-13.1,14.5-22.8,24L837.4,1704.7z"/>
				<path id="path3885" class="st1" d="M887,1720.8c-11.4,0-20.2-4.3-26.3-12.9c-6-8.6-9.1-21.2-9.1-37.9c0-12.7,1.8-22.8,5.4-30.4
					c3.6-7.7,8.2-13,13.8-16c5.6-3.1,11.7-4.7,18.1-4.7c11.2,0,19.9,4.3,26,13c6.1,8.6,9.2,21.3,9.2,38.2c0,12.8-1.8,23-5.4,30.5
					c-3.5,7.5-8.1,12.7-13.6,15.7C899.7,1719.4,893.6,1720.8,887,1720.8L887,1720.8z M887.6,1706.5c4.4,0,8-1.2,10.7-3.6
					c2.8-2.4,4.9-6.3,6.2-11.6c1.4-5.3,2.1-12.4,2.1-21.2c0-12.2-1.5-21.3-4.5-27.4s-7.6-9.2-13.8-9.2c-6.5,0-11.3,2.9-14.5,8.8
					c-3.1,5.8-4.7,15.1-4.7,27.8c0,12.4,1.5,21.6,4.4,27.5C876.6,1703.5,881.2,1706.5,887.6,1706.5L887.6,1706.5z"/>
				<path id="path3887" class="st1" d="M1000.4,1704.7v14.2h-65.2v-8c12.9-13,22.5-22.9,28.7-29.8s10.8-12.7,13.8-17.7
					s4.5-9.7,4.5-14.1c0-4.9-1.3-8.7-3.9-11.3c-2.6-2.6-6.3-3.9-11.2-3.9c-7.6,0-15.2,3.3-23,9.8l-8.9-10.7
					c4.6-4.3,9.9-7.8,15.7-10.3s11.9-3.8,18.3-3.8c5.8,0,11.1,1.1,15.7,3.2c4.7,2.1,8.4,5.3,11,9.5c2.7,4.1,4.1,9.1,4.1,14.8
					c0,5.5-1.3,11-3.8,16.3c-2.4,5.3-6.3,11.2-11.8,17.7c-5.4,6.5-13.1,14.5-22.8,24L1000.4,1704.7z"/>
				<path id="path3889" class="st1" d="M1050,1720.8c-11.4,0-20.2-4.3-26.3-12.9c-6-8.6-9.1-21.2-9.1-37.9c0-12.7,1.8-22.8,5.4-30.4
					c3.6-7.7,8.2-13,13.8-16c5.6-3.1,11.7-4.7,18.1-4.7c11.2,0,19.9,4.3,26,13c6.1,8.6,9.2,21.3,9.2,38.2c0,12.8-1.8,23-5.4,30.5
					c-3.5,7.5-8.1,12.7-13.6,15.7C1062.7,1719.4,1056.6,1720.8,1050,1720.8L1050,1720.8z M1050.6,1706.5c4.4,0,8-1.2,10.7-3.6
					c2.8-2.4,4.9-6.3,6.2-11.6c1.4-5.3,2.1-12.4,2.1-21.2c0-12.2-1.5-21.3-4.5-27.4s-7.6-9.2-13.8-9.2c-6.5,0-11.3,2.9-14.5,8.8
					c-3.1,5.8-4.7,15.1-4.7,27.8c0,12.4,1.5,21.6,4.4,27.5C1039.5,1703.5,1044.2,1706.5,1050.6,1706.5L1050.6,1706.5z"/>
			</g>
		</g>
	</g>
</g>
</svg>
