<?xml version="1.0" encoding="UTF-8" standalone="no"?>
<svg
   xmlns:dc="http://purl.org/dc/elements/1.1/"
   xmlns:cc="http://creativecommons.org/ns#"
   xmlns:rdf="http://www.w3.org/1999/02/22-rdf-syntax-ns#"
   xmlns:svg="http://www.w3.org/2000/svg"
   xmlns="http://www.w3.org/2000/svg"
   xmlns:sodipodi="http://sodipodi.sourceforge.net/DTD/sodipodi-0.dtd"
   xmlns:inkscape="http://www.inkscape.org/namespaces/inkscape"
   id="Capa_1"
   enable-background="new 0 0 551.13 551.13"
   height="512"
   viewBox="0 0 551.13 551.13"
   width="512"
   version="1.1"
   sodipodi:docname="makeohio.svg"
   inkscape:version="0.92.2 5c3e80d, 2017-08-06">
  <metadata
     id="metadata11">
    <rdf:RDF>
      <cc:Work
         rdf:about="">
        <dc:format>image/svg+xml</dc:format>
        <dc:type
           rdf:resource="http://purl.org/dc/dcmitype/StillImage" />
        <dc:title></dc:title>
      </cc:Work>
    </rdf:RDF>
  </metadata>
  <defs
     id="defs9" />
  <sodipodi:namedview
     pagecolor="#ffffff"
     bordercolor="#666666"
     borderopacity="1"
     objecttolerance="10"
     gridtolerance="10"
     guidetolerance="10"
     inkscape:pageopacity="0"
     inkscape:pageshadow="2"
     inkscape:window-width="1446"
     inkscape:window-height="860"
     id="namedview7"
     showgrid="false"
     inkscape:zoom="1.3037281"
     inkscape:cx="232.0098"
     inkscape:cy="238.50392"
     inkscape:window-x="0"
     inkscape:window-y="0"
     inkscape:window-maximized="0"
     inkscape:current-layer="Capa_1" />
  <path
     style="stroke-width:0.31867182"
     d="m 146.25735,185.14008 c -5.4836,0.57096 -11.24593,-0.44317 -16.58196,0.54452 -4.23528,3.96224 -2.75761,12.18868 -8.72125,14.74513 -4.92939,1.14598 -9.25114,3.74751 -13.89941,5.58023 -3.9979,0.64565 -7.29982,-2.58287 -10.883017,-3.85468 -2.610744,-1.80875 -5.834088,-0.91201 -7.335224,1.83704 -4.955324,5.37743 -11.423719,9.95561 -15.079205,16.01498 0.317223,5.57886 6.613337,10.35094 4.311665,15.98847 -2.813981,4.66079 -4.050085,10.43357 -6.40815,15.05225 -4.252076,2.52193 -10.003745,2.57803 -13.439457,6.22269 -0.893083,8.4251 -0.386463,17.04532 -0.123148,25.43527 3.526864,4.15315 10.475232,3.05145 13.963208,7.32211 2.395699,4.48765 3.144261,9.70057 6.028319,14.00327 2.149258,4.45626 -2.03264,8.44395 -3.366447,12.45245 -1.7653,2.59604 -0.947253,5.79364 1.774425,7.26014 5.345104,4.88279 9.893747,11.17375 15.840103,15.05374 5.348596,-0.0867 9.570198,-5.14763 14.676868,-5.08765 5.22968,3.24097 11.33285,4.7499 16.61905,7.242 2.5413,4.23833 2.554,10.0513 6.23752,13.45132 8.35595,0.8236 17.15595,0.51418 25.5228,0.0237 4.34599,-3.78153 2.8411,-11.81732 8.45271,-14.63237 4.83285,-1.39995 9.34562,-3.49692 13.86973,-5.66184 4.13345,-1.05096 7.59455,2.46679 11.27917,3.7345 2.61258,1.79052 5.86228,0.95506 7.37381,-1.82517 4.93523,-5.35549 11.27209,-9.8296 15.07178,-15.98085 -0.30504,-5.59185 -6.59918,-10.36396 -4.31315,-16.01073 2.81042,-4.68866 4.08207,-10.44154 6.40815,-15.05819 4.24195,-2.51462 9.96775,-2.58702 13.43501,-6.19152 0.90344,-8.43415 0.39775,-17.06674 0.13057,-25.46643 -3.51518,-4.15396 -10.46666,-3.05336 -13.95431,-7.31618 -2.40726,-4.49265 -3.17747,-9.72521 -6.03722,-13.99585 -2.14172,-4.47422 2.03335,-8.46952 3.38142,-12.49461 1.7484,-2.58454 0.92441,-5.77187 -1.78049,-7.2254 -5.34696,-4.90496 -9.8536,-11.08899 -15.84308,-15.0567 -5.33985,0.0709 -9.5865,5.14657 -14.6828,5.08616 -5.22908,-3.24182 -11.38813,-4.76284 -16.61906,-7.24348 -2.5211,-4.25164 -2.57496,-9.97562 -6.19152,-13.45726 -3.01377,-0.46544 -6.07346,-0.52757 -9.11741,-0.49111 z m -12.73024,5.00307 c 6.34682,0 12.69364,0 19.04047,0 2.8159,4.22862 2.68418,9.92968 6.27758,13.67983 7.13809,1.53153 13.61515,5.64026 20.2942,7.84883 4.54564,-1.0475 8.38382,-3.93176 12.85191,-5.2197 4.71403,4.71149 9.42745,9.4236 14.14274,14.13383 -0.84898,5.16405 -5.98932,9.47236 -4.85081,14.78378 3.54026,5.9016 5.51214,12.67946 8.01408,18.92764 3.93715,2.86067 9.04431,3.22629 13.17981,5.72712 0,6.65593 0,13.31186 0,19.96778 -4.23256,3.06506 -10.97465,2.44727 -13.88656,7.02815 -1.67877,6.66858 -5.03528,12.85772 -7.71479,19.03622 0.7467,4.81363 4.11467,8.68523 5.27459,13.3801 -4.70639,4.7048 -9.41409,9.40828 -14.12049,14.11307 -5.20529,-0.88456 -9.49956,-5.99676 -14.7903,-4.84782 -5.89757,3.54924 -12.68414,5.50554 -18.92703,8.02 -2.88089,3.96402 -3.20224,8.99676 -5.72268,13.17535 -6.65296,0 -13.30592,0 -19.95889,0 -3.04989,-4.22816 -2.45404,-10.96462 -7.01324,-13.87639 -6.82591,-1.57447 -13.05355,-5.46633 -19.44132,-7.66858 -4.63657,0.90069 -8.430634,4.05505 -12.991378,5.21525 -4.705079,-4.70413 -9.410946,-9.40747 -14.116031,-14.11159 0.819222,-5.15851 6.026702,-9.48803 4.841983,-14.78033 -3.763305,-5.95845 -5.312615,-13.22338 -8.431081,-19.25304 -3.943065,-2.47593 -8.713109,-3.0941 -12.756951,-5.37845 0,-6.66583 0,-13.33165 0,-19.99747 4.231215,-2.81365 9.924993,-2.69165 13.681303,-6.27758 1.530505,-7.14882 5.657381,-13.63466 7.842899,-20.32833 -1.033728,-4.54008 -3.973214,-8.34468 -5.21673,-12.81926 4.713009,-4.70856 9.423542,-9.4196 14.135319,-14.12939 5.153597,0.84705 9.491317,6.00737 14.784047,4.8528 5.93739,-3.69567 13.0529,-5.39587 19.14397,-8.30984 2.65748,-3.9153 3.09337,-8.84589 5.51348,-12.89198 h 0.75966 z"
     id="path2"
     inkscape:connector-curvature="0" />
  <path
     style="stroke-width:0.35287282"
     d="m 141.90542,226.92703 c -24.27339,-0.0793 -45.606916,22.7836 -44.08029,46.84868 0.419131,23.09957 20.9616,43.61186 44.13226,43.70355 22.78755,0.89659 44.32817,-17.74472 46.24797,-40.57701 2.5688,-22.34343 -13.70965,-45.12182 -36.05287,-49.08145 -3.36767,-0.68111 -6.81215,-0.98521 -10.24707,-0.89377 z m 2.11448,5.40202 c 21.45352,-0.0668 40.33564,19.98807 38.95431,41.42201 -0.51138,20.08081 -18.19017,37.94299 -38.35792,38.29221 -20.03679,1.01065 -39.21731,-15.15906 -41.13942,-35.23467 -2.55756,-19.82515 11.9081,-40.25426 31.76146,-43.68929 2.88794,-0.59233 5.8366,-0.81567 8.78157,-0.79026 z"
     id="path4"
     inkscape:connector-curvature="0" />
  <g
     aria-label="MAKE"
     style="font-style:normal;font-variant:normal;font-weight:normal;font-stretch:normal;font-size:38.02732849px;line-height:1.25;font-family:'Proxima Nova';-inkscape-font-specification:'Proxima Nova';text-align:center;letter-spacing:0px;word-spacing:0px;text-anchor:middle;fill:#000000;fill-opacity:1;stroke:none;stroke-width:1.01858902"
     id="text834">
    <path
       d="m 320.64271,260.8298 v -65.2223 h -11.63636 l -20.2414,50.26127 -20.33919,-50.26127 H 256.7894 v 65.2223 h 8.11611 v -54.85714 l 22.1971,54.85714 h 3.32467 l 22.09932,-54.85714 v 54.85714 z"
       style="font-size:97.78456116px;stroke-width:1.01858902"
       id="path895" />
    <path
       d="M 391.69237,260.8298 365.4861,195.6075 h -10.07181 l -26.30404,65.2223 h 9.28953 l 5.76929,-14.5699 h 32.46447 l 5.76929,14.5699 z m -17.40566,-21.70817 h -27.67303 l 13.78763,-35.20244 z"
       style="font-size:97.78456116px;stroke-width:1.01858902"
       id="path897" />
    <path
       d="m 449.79625,260.8298 -29.62872,-34.32238 27.18411,-30.89992 h -10.1696 L 408.3356,229.24539 V 195.6075 h -8.11612 v 65.2223 h 8.11612 v -21.90374 l 6.55156,-7.43162 24.7395,29.33536 z"
       style="font-size:97.78456116px;stroke-width:1.01858902"
       id="path899" />
    <path
       d="m 501.77486,260.8298 v -7.23605 H 467.15913 V 231.1033 h 33.93124 v -7.23606 h -33.93124 v -21.02368 h 34.61573 v -7.23606 h -42.73185 v 65.2223 z"
       style="font-size:97.78456116px;stroke-width:1.01858902"
       id="path901" />
  </g>
  <g
     aria-label="OHI/O"
     style="font-style:normal;font-variant:normal;font-weight:normal;font-stretch:normal;font-size:38.02732849px;line-height:1.25;font-family:'Proxima Nova';-inkscape-font-specification:'Proxima Nova';text-align:center;letter-spacing:0px;word-spacing:0px;text-anchor:middle;fill:#000000;fill-opacity:1;stroke:none;stroke-width:1.01858902"
     id="text842">
    <path
       d="m 280.06282,348.84239 c 19.26355,0 32.46447,-14.47211 32.46447,-33.73567 0,-19.26356 -13.20092,-33.73568 -32.46447,-33.73568 -19.26356,0 -32.36669,14.47212 -32.36669,33.73568 0,19.26356 13.10313,33.73567 32.36669,33.73567 z m 0,-7.23606 c -14.66769,0 -23.95722,-11.34301 -23.95722,-26.49961 0,-15.25439 9.28953,-26.49962 23.95722,-26.49962 14.5699,0 24.055,11.24523 24.055,26.49962 0,15.1566 -9.4851,26.49961 -24.055,26.49961 z"
       style="font-size:97.78456116px;stroke-width:1.01858902"
       id="path884" />
    <path
       d="m 379.57083,347.66898 v -65.22231 h -8.11612 v 28.06417 h -38.13598 v -28.06417 h -8.11612 v 65.22231 h 8.11612 V 317.7469 h 38.13598 v 29.92208 z"
       style="font-size:97.78456116px;stroke-width:1.01858902"
       id="path886" />
    <path
       d="m 403.02842,347.66898 v -65.22231 h -8.11612 v 65.22231 z"
       style="font-size:97.78456116px;stroke-width:1.01858902"
       id="path888" />
    <path
       d="m 416.35462,349.62467 23.17494,-69.13369 h -5.76929 l -23.17494,69.13369 z"
       style="font-size:97.78456116px;stroke-width:1.01858902"
       id="path890" />
    <path
       d="m 476.96884,348.84239 c 19.26356,0 32.46447,-14.47211 32.46447,-33.73567 0,-19.26356 -13.20091,-33.73568 -32.46447,-33.73568 -19.26356,0 -32.36669,14.47212 -32.36669,33.73568 0,19.26356 13.10313,33.73567 32.36669,33.73567 z m 0,-7.23606 c -14.66769,0 -23.95722,-11.34301 -23.95722,-26.49961 0,-15.25439 9.28953,-26.49962 23.95722,-26.49962 14.5699,0 24.055,11.24523 24.055,26.49962 0,15.1566 -9.4851,26.49961 -24.055,26.49961 z"
       style="font-size:97.78456116px;stroke-width:1.01858902"
       id="path892" />
  </g>
  <g
     aria-label="2020"
     style="font-style:normal;font-variant:normal;font-weight:normal;font-stretch:normal;font-size:40.18656158px;line-height:1.25;font-family:'Proxima Nova';-inkscape-font-specification:'Proxima Nova';text-align:center;letter-spacing:0px;word-spacing:0px;text-anchor:middle;fill:#000000;fill-opacity:1;stroke:none;stroke-width:1.07642579"
     id="text846">
    <path
       d="m 123.78485,282.38846 v -2.12415 h -9.38644 c 5.33908,-4.21959 9.30032,-7.77897 9.30032,-11.68281 0,-3.81772 -3.24363,-5.62611 -6.42985,-5.62611 -2.69824,0 -5.19555,1.06207 -6.65948,3.01399 l 1.46393,1.52135 c 1.11949,-1.43524 2.89918,-2.4112 5.19555,-2.4112 1.98063,0 4.01866,1.03337 4.01866,3.50197 0,3.30104 -3.76032,6.48726 -10.64944,11.88374 v 1.92322 z"
       style="font-size:28.70468712px;stroke-width:1.07642579"
       id="path875" />
    <path
       d="m 134.7469,282.73291 c 5.22425,0 7.31969,-5.25295 7.31969,-9.90311 0,-4.67887 -2.09544,-9.87441 -7.31969,-9.87441 -5.25296,0 -7.3197,5.19554 -7.3197,9.87441 0,4.65016 2.06674,9.90311 7.3197,9.90311 z m 0,-2.12414 c -3.6455,0 -4.8798,-3.96125 -4.8798,-7.77897 0,-3.81773 1.2343,-7.75027 4.8798,-7.75027 3.64549,0 4.87979,3.93254 4.87979,7.75027 0,3.81772 -1.2343,7.77897 -4.87979,7.77897 z"
       style="font-size:28.70468712px;stroke-width:1.07642579"
       id="path877" />
    <path
       d="m 158.20805,282.38846 v -2.12415 h -9.38644 c 5.33907,-4.21959 9.30032,-7.77897 9.30032,-11.68281 0,-3.81772 -3.24363,-5.62611 -6.42985,-5.62611 -2.69824,0 -5.19555,1.06207 -6.65949,3.01399 l 1.46394,1.52135 c 1.11949,-1.43524 2.89918,-2.4112 5.19555,-2.4112 1.98062,0 4.01866,1.03337 4.01866,3.50197 0,3.30104 -3.76032,6.48726 -10.64944,11.88374 v 1.92322 z"
       style="font-size:28.70468712px;stroke-width:1.07642579"
       id="path879" />
    <path
       d="m 169.1701,282.73291 c 5.22425,0 7.31969,-5.25295 7.31969,-9.90311 0,-4.67887 -2.09544,-9.87441 -7.31969,-9.87441 -5.25296,0 -7.3197,5.19554 -7.3197,9.87441 0,4.65016 2.06674,9.90311 7.3197,9.90311 z m 0,-2.12414 c -3.6455,0 -4.8798,-3.96125 -4.8798,-7.77897 0,-3.81773 1.2343,-7.75027 4.8798,-7.75027 3.64549,0 4.87979,3.93254 4.87979,7.75027 0,3.81772 -1.2343,7.77897 -4.87979,7.77897 z"
       style="font-size:28.70468712px;stroke-width:1.07642579"
       id="path881" />
  </g>
</svg>
